SplineFontDB: 3.0
FontName: HZRenaissance-Roman
FullName: HZ Renaissance Roman
FamilyName: HZRenaissance
Weight: Roman
Copyright: Copyright (URW)++,Copyright 2014 by (URW)++ Design & Development\nCopyright (c) 2019, Daniel Benjamin Miller
Version: 1.00
ItalicAngle: 0
UnderlinePosition: -100
UnderlineWidth: 50
Ascent: 726
Descent: 274
InvalidEm: 0
sfntRevision: 0x00010000
LayerCount: 2
Layer: 0 0 "Back" 1
Layer: 1 0 "Fore" 0
XUID: [1021 921 275376880 8219245]
UniqueID: 4064644
StyleMap: 0x0040
FSType: 4
OS2Version: 3
OS2_WeightWidthSlopeOnly: 0
OS2_UseTypoMetrics: 0
CreationTime: 1464719618
ModificationTime: 1555185314
PfmFamily: 81
TTFWeight: 400
TTFWidth: 5
LineGap: 200
VLineGap: 0
Panose: 0 0 5 0 0 0 0 0 0 0
OS2TypoAscent: 726
OS2TypoAOffset: 0
OS2TypoDescent: -274
OS2TypoDOffset: 0
OS2TypoLinegap: 200
OS2WinAscent: 1109
OS2WinAOffset: 0
OS2WinDescent: 283
OS2WinDOffset: 0
HheadAscent: 726
HheadAOffset: 0
HheadDescent: -274
HheadDOffset: 0
OS2SubXSize: 650
OS2SubYSize: 600
OS2SubXOff: 0
OS2SubYOff: 75
OS2SupXSize: 650
OS2SupYSize: 600
OS2SupXOff: 0
OS2SupYOff: 350
OS2StrikeYSize: 50
OS2StrikeYPos: 269
OS2CapHeight: 689
OS2XHeight: 449
OS2Vendor: 'UKWN'
OS2CodePages: 6000009f.00000000
OS2UnicodeRanges: 00000287.00000800.00000000.00000000
Lookup: 1 0 0 "'onum' Oldstyle Figures lookup 22" { "'onum' Oldstyle Figures lookup 22-1" ("onum") } ['onum' ('DFLT' <'dflt' > 'cyrl' <'dflt' > 'grek' <'dflt' > 'latn' <'AZE ' 'CRT ' 'DEU ' 'MOL ' 'ROM ' 'SRB ' 'TRK ' 'dflt' > ) ]
Lookup: 1 0 0 "'aalt' Access All Alternates lookup 0" { "'aalt' Access All Alternates lookup 0 subtable"  } ['aalt' ('DFLT' <'dflt' > 'cyrl' <'dflt' > 'grek' <'dflt' > 'latn' <'AZE ' 'CRT ' 'DEU ' 'MOL ' 'ROM ' 'SRB ' 'TRK ' 'dflt' > ) ]
Lookup: 3 0 0 "'aalt' Access All Alternates lookup 1" { "'aalt' Access All Alternates lookup 1 subtable"  } ['aalt' ('DFLT' <'dflt' > 'cyrl' <'dflt' > 'grek' <'dflt' > 'latn' <'AZE ' 'CRT ' 'DEU ' 'MOL ' 'ROM ' 'SRB ' 'TRK ' 'dflt' > ) ]

StartChar: zero.onum
Encoding: 854 -1 0
Width: 500
Flags: W
HStem: -20 34<186.328 312.713> 442 32<187.286 319.479>
VStem: 23 85<112.656 323.604> 392 85<132.927 355.2>
LayerCount: 2
Fore
SplineSet
263 474 m 3
 336.006848994 474 477 431.00276241 477 250 c 7
 477 82.9970060149 368.014648438 -20 235 -20 c 3
 113.983398438 -20 23 80 23 222 c 3
 23 357 123 474 263 474 c 3
247 442 m 3
 188 442 108 404 108 247 c 3
 108 63.99726778 173.974030353 14 251 14 c 3
 331 14 392 76.9864871034 392 225 c 3
 392 404.011172836 330.006023878 442 247 442 c 3
EndSplineSet
EndChar

StartChar: exclam
Encoding: 1 33 2
Width: 278
Flags: MW
HStem: -5 116<123 153> 674 20<160 194 194 194>
VStem: 81 116<37.5 68>
LayerCount: 2
Fore
SplineSet
138 111 m 0
 169 111 197 83 197 53 c 0
 197 22 169 -5 137 -5 c 0
 108 -5 81 22 81 53 c 0
 81 83 108 111 138 111 c 0
160 694 m 1
 194 694 l 1
 194 669 l 2
 194 654 192 616 187 574 c 0
 184 547 183 542 182 526 c 2
 158 248 l 1
 158 223 l 1
 130 200 l 1
 120 205 l 1
 120 215 l 1
 120 221 l 1
 118 245 l 1
 92 550 l 2
 90 579 88 604 85 656 c 1
 160 694 l 1
EndSplineSet
EndChar

StartChar: quotedbl
Encoding: 2 34 3
Width: 371
Flags: MW
HStem: 689 20<84 105.5 265 286.5>
LayerCount: 2
Fore
SplineSet
105 469 m 1
 85 469 l 1
 52 665 l 1
 52 670 l 2
 52 690 73 709 95 709 c 0
 116 709 138 690 138 670 c 0
 138 669 138 667 137 665 c 2
 105 469 l 1
286 469 m 1
 266 469 l 1
 233 665 l 1
 233 670 l 2
 233 690 254 709 276 709 c 0
 297 709 319 690 319 670 c 0
 319 669 319 667 318 665 c 2
 286 469 l 1
EndSplineSet
EndChar

StartChar: numbersign
Encoding: 3 35 4
Width: 500
Flags: MW
HStem: 0 20 224 56<4 111 4 120 178 303 4 169 370 470> 419 56<31 141 31 149 31 199 207 332 398 495>
LayerCount: 2
Fore
SplineSet
470 280 m 1
 470 224 l 1
 361 224 l 1
 330 0 l 1
 272 0 l 1
 303 224 l 1
 169 224 l 1
 136 0 l 1
 78 0 l 1
 111 224 l 1
 4 224 l 1
 4 280 l 1
 120 280 l 1
 141 419 l 1
 31 419 l 1
 31 475 l 1
 149 475 l 1
 180 684 l 1
 238 684 l 1
 207 475 l 1
 340 475 l 1
 370 684 l 1
 428 684 l 1
 398 475 l 1
 495 475 l 1
 495 419 l 1
 390 419 l 1
 370 280 l 1
 470 280 l 1
332 419 m 1
 199 419 l 1
 178 280 l 1
 312 280 l 1
 332 419 l 1
EndSplineSet
EndChar

StartChar: dollar
Encoding: 4 36 5
Width: 500
Flags: MW
VStem: 30 75<457.5 494.5> 223 37<18 292 379 630 630 630> 392 79<169 209.5>
LayerCount: 2
Fore
SplineSet
223 18 m 1
 223 297 l 1
 144 306 109 316 80 338 c 0
 46 363 30 402 30 457 c 0
 30 532 61 592 118 629 c 0
 148 649 172 657 223 666 c 1
 219 731 l 1
 264 731 l 1
 262 712 261 700 260 669 c 1
 340 663 379 653 426 626 c 1
 417 594 413 554 413 500 c 1
 381 500 l 1
 381 542 l 1
 386 598 353 623 260 633 c 1
 260 373 l 1
 347 364 385 353 417 330 c 0
 454 304 471 264 471 207 c 0
 471 131 437 68 375 27 c 0
 341 5 315 -5 260 -16 c 1
 264 -116 l 1
 219 -116 l 1
 221 -95 221 -82 223 -18 c 1
 161 -17 95 -2 30 24 c 1
 36 63 39 93 42 172 c 1
 74 172 l 1
 74 108 l 1
 65 65 130 26 223 18 c 1
260 292 m 1
 260 18 l 1
 341 32 392 92 392 173 c 0
 392 246 358 277 260 292 c 1
223 379 m 1
 223 630 l 1
 187 626 171 620 151 604 c 0
 121 580 105 542 105 494 c 0
 105 421 137 390 223 379 c 1
EndSplineSet
EndChar

StartChar: percent
Encoding: 5 37 6
Width: 840
Flags: MW
HStem: 0 23<614.5 668 614.5 686.5> 298 23<619.5 673> 368 23<167.5 221 167.5 239.5> 666 23<172.5 226> 689 20
VStem: 39 72<483 569 483 570.5> 283 72<489 573.5> 486 72<115 201 115 202.5> 730 72<121 205.5>
LayerCount: 2
Fore
SplineSet
203 689 m 0xf780
 291 689 355 624 355 535 c 0
 355 439 286 368 193 368 c 0
 103 368 39 432 39 522 c 0
 39 619 108 689 203 689 c 0xf780
200 666 m 0
 145 666 111 612 111 526 c 0
 111 440 141 391 194 391 c 0
 248 391 283 446 283 532 c 0
 283 615 252 666 200 666 c 0
650 321 m 0
 738 321 802 256 802 167 c 0
 802 71 733 0 640 0 c 0
 550 0 486 64 486 154 c 0
 486 251 555 321 650 321 c 0
647 298 m 0
 592 298 558 244 558 158 c 0
 558 72 588 23 641 23 c 0
 695 23 730 78 730 164 c 0
 730 247 699 298 647 298 c 0
250 -20 m 1
 210 -20 l 1
 576 709 l 1
 616 709 l 1xef80
 250 -20 l 1
EndSplineSet
Ligature2: "'frac' Diagonal Fractions lookup 6 subtable" zerosuperior fraction zerosuperior
Ligature2: "'frac' Diagonal Fractions lookup 6 subtable" zerosuperior slash zerosuperior
Ligature2: "'frac' Diagonal Fractions lookup 6 subtable" zero fraction zero
Ligature2: "'frac' Diagonal Fractions lookup 6 subtable" zero slash zero
EndChar

StartChar: ampersand
Encoding: 6 38 7
Width: 778
Flags: MW
HStem: -20 56<251 285.5> -20 75<608 694.5> 636 53<312.5 315.5>
VStem: 43 87<162 215.5> 168 70<539.5 541> 357 67<576 588.5> 532 63<263.5 274.5>
LayerCount: 2
Fore
SplineSet
418 344 m 1xbe
 451 389 l 1
 486 388 517 387 531 387 c 2
 548 387 l 1
 742 394 l 1
 733 364 730 347 730 322 c 1
 691 328 661 331 590 334 c 1
 594 320 595 311 595 295 c 0
 595 232 573 184 514 118 c 1
 599 69 637 55 686 55 c 0
 703 55 717 59 747 74 c 1
 753 49 l 1
 666 -14 l 2
 660 -18 650 -20 632 -20 c 0x5e
 584 -20 509 12 451 57 c 1
 379 2 322 -20 249 -20 c 0
 129 -20 43 60 43 171 c 0
 43 260 88 323 198 387 c 1
 177 441 168 478 168 520 c 0
 168 562 177 592 192 606 c 2
 260 666 l 2
 278 682 299 689 326 689 c 0
 388 689 424 656 424 599 c 0
 424 553 404 510 360 463 c 0
 340 443 322 428 280 397 c 1
 336 306 395 232 484 141 c 1
 520 189 532 218 532 254 c 0
 532 295 520 330 505 334 c 0
 494 337 476 339 418 344 c 1xbe
213 352 m 1xbe
 152 304 130 267 130 209 c 0
 130 115 206 36 296 36 c 0
 336 36 373 50 420 82 c 1
 306 208 258 272 213 352 c 1xbe
264 431 m 1
 324 476 357 525 357 569 c 0
 357 608 332 636 299 636 c 0
 259 636 238 609 238 557 c 0
 238 522 245 486 264 431 c 1
EndSplineSet
EndChar

StartChar: quoteright
Encoding: 572 8217 8
Width: 278
Flags: MW
HStem: 689 20<220 220>
LayerCount: 2
Fore
SplineSet
104 470 m 1
 60 446 l 1
 45 456 l 1
 93 533 117 599 123 679 c 1
 174 694 184 697 220 709 c 1
 233 696 l 1
 199 610 161 543 104 470 c 1
EndSplineSet
EndChar

StartChar: parenleft
Encoding: 8 40 9
Width: 333
Flags: MW
VStem: 60 86<223.5 304>
LayerCount: 2
Fore
SplineSet
301 -194 m 1
 282 -215 l 1
 200 -138 168 -99 132 -32 c 0
 85 57 60 159 60 266 c 0
 60 342 73 413 99 480 c 0
 137 577 178 633 282 726 c 1
 301 700 l 1
 228 615 201 568 175 485 c 0
 155 420 146 350 146 267 c 0
 146 180 156 105 177 33 c 0
 203 -57 229 -105 301 -194 c 1
EndSplineSet
EndChar

StartChar: parenright
Encoding: 9 41 10
Width: 333
Flags: MW
VStem: 187 86<223.5 304 205.5 307.5>
LayerCount: 2
Fore
SplineSet
51 -215 m 1
 32 -194 l 1
 104 -105 130 -57 156 33 c 0
 177 105 187 181 187 266 c 0
 187 349 177 420 158 485 c 0
 132 567 105 614 32 700 c 1
 51 726 l 1
 155 632 196 577 234 480 c 0
 260 413 273 342 273 266 c 0
 273 145 241 29 180 -68 c 0
 149 -117 120 -150 51 -215 c 1
EndSplineSet
EndChar

StartChar: asterisk
Encoding: 10 42 11
Width: 389
Flags: W
LayerCount: 2
Fore
SplineSet
168 514 m 1
 37 578 l 1
 34 588 l 1
 78 640 l 1
 88 640 l 1
 183 542 l 1
 209 685 l 1
 218 689 l 1
 280 670 l 1
 283 655 l 1
 214 530 l 1
 353 554 l 1
 359 550 l 1
 359 488 l 1
 350 480 l 1
 212 500 l 1
 280 378 l 1
 280 368 l 1
 212 342 l 1
 202 346 l 1
 184 488 l 1
 78 400 l 1
 68 400 l 1
 32 451 l 1
 37 460 l 1
 168 514 l 1
EndSplineSet
EndChar

StartChar: plus
Encoding: 11 43 12
Width: 606
Flags: MW
HStem: 233 56<51 275 51 275 331 555>
VStem: 275 56<7 233 7 233 289 512>
LayerCount: 2
Fore
SplineSet
275 289 m 1
 275 512 l 1
 331 512 l 1
 331 289 l 1
 555 289 l 1
 555 233 l 1
 331 233 l 1
 331 7 l 1
 275 7 l 1
 275 233 l 1
 51 233 l 1
 51 289 l 1
 275 289 l 1
EndSplineSet
EndChar

StartChar: comma
Encoding: 12 44 13
Width: 250
Flags: W
LayerCount: 2
Fore
SplineSet
204 123 m 1
 218 109 l 1
 190 32 152 -31 71 -136 c 1
 30 -155 l 1
 16 -144 l 1
 74 -48 99 17 106 93 c 1
 159 108 177 114 204 123 c 1
EndSplineSet
EndChar

StartChar: hyphen
Encoding: 13 45 14
Width: 333
Flags: MW
HStem: 215 72<44 282 22 307>
LayerCount: 2
Fore
SplineSet
282 215 m 1
 22 215 l 1
 17 220 l 1
 44 287 l 1
 307 287 l 1
 312 282 l 1
 282 215 l 1
EndSplineSet
AlternateSubs2: "'aalt' Access All Alternates lookup 1 subtable" endash emdash minus
EndChar

StartChar: period
Encoding: 14 46 15
Width: 250
Flags: MW
HStem: -5 116<109 139>
VStem: 67 116<37.5 68>
LayerCount: 2
Fore
SplineSet
124 111 m 0
 155 111 183 83 183 53 c 0
 183 22 155 -5 123 -5 c 0
 94 -5 67 22 67 53 c 0
 67 83 94 111 124 111 c 0
EndSplineSet
Substitution2: "'aalt' Access All Alternates lookup 0 subtable" ellipsis
EndChar

StartChar: slash
Encoding: 15 47 16
Width: 606
Flags: W
LayerCount: 2
Fore
SplineSet
519 726 m 1
 147 -119 l 1
 87 -119 l 1
 459 726 l 1
 519 726 l 1
EndSplineSet
Substitution2: "'dnom' Denominators lookup 5 subtable" fraction
Substitution2: "'numr' Numerators lookup 4 subtable" fraction
Substitution2: "'aalt' Access All Alternates lookup 0 subtable" fraction
EndChar

StartChar: zero
Encoding: 16 48 17
Width: 500
Flags: MW
HStem: -20 35<207 271.5 202 313.5> 654 35<197.5 293.5>
VStem: 29 84<265.5 445> 381 84<254.5 436>
LayerCount: 2
Fore
SplineSet
263 689 m 0
 400 689 465 585 465 367 c 0
 465 109 389 -20 238 -20 c 0
 176 -20 120 8 85 57 c 0
 50 106 29 207 29 324 c 0
 29 566 108 689 263 689 c 0
245 654 m 0
 150 654 113 572 113 360 c 0
 113 116 153 15 251 15 c 0
 292 15 323 34 343 71 c 0
 370 119 381 193 381 316 c 0
 381 556 342 654 245 654 c 0
EndSplineSet
Substitution2: "'onum' Oldstyle Figures lookup 22-1" zero.onum
Substitution2: "'sups' Superscript lookup 3 subtable" zerosuperior
Substitution2: "'aalt' Access All Alternates lookup 0 subtable" zerosuperior
EndChar

StartChar: one
Encoding: 17 49 18
Width: 500
Flags: MW
HStem: -3 20 0 20 674 20<287 287>
VStem: 217 84<96 581 581 593>
LayerCount: 2
Fore
SplineSet
67 555 m 1x90
 60 598 l 1
 153 631 220 659 287 694 c 1
 301 689 l 1
 301 96 l 2
 301 44 312 33 366 30 c 2
 418 27 l 1
 418 -3 l 1xb0
 371 -2 344 -2 330 -1 c 0
 297 0 274 0 261 0 c 0x50
 239 0 183 -1 96 -3 c 1
 96 27 l 1
 152 30 l 2
 206 33 217 44 217 96 c 2
 217 581 l 2
 217 605 215 614 209 614 c 0
 208 614 207 614 206 613 c 2
 77 555 l 1
 67 555 l 1x90
EndSplineSet
Substitution2: "'onum' Oldstyle Figures lookup 22-1" one.onum
Substitution2: "'sups' Superscript lookup 3 subtable" onesuperior
Substitution2: "'aalt' Access All Alternates lookup 0 subtable" onesuperior
EndChar

StartChar: two
Encoding: 18 50 19
Width: 500
Flags: MW
HStem: -3 20 0 20 612 77<190 243.5>
VStem: 341 90<465.5 516>
LayerCount: 2
Fore
SplineSet
16 23 m 1x90
 186 204 l 2
 299 324 341 397 341 473 c 0
 341 559 287 612 200 612 c 0
 133 612 97 587 81 529 c 2
 68 483 l 1
 39 483 l 1
 56 619 l 1
 106 669 154 689 226 689 c 0
 353 689 431 618 431 503 c 0
 431 428 401 373 304 270 c 2
 122 77 l 1
 307 81 353 82 468 87 c 1
 466 66 466 56 466 42 c 0
 466 27 466 17 468 -3 c 1xb0
 341 -1 282 0 239 0 c 0x50
 195 0 138 -1 16 -3 c 1
 16 23 l 1x90
EndSplineSet
Substitution2: "'onum' Oldstyle Figures lookup 22-1" two.onum
Substitution2: "'sups' Superscript lookup 3 subtable" twosuperior
Substitution2: "'aalt' Access All Alternates lookup 0 subtable" twosuperior
EndChar

StartChar: three
Encoding: 19 51 20
Width: 500
Flags: MW
HStem: -20 41<191.5 224> 334 34<224 241.5 202.5 279.5> 622 67<199 251>
VStem: 336 82<511 537.5> 369 93<200.5 235.5>
LayerCount: 2
Fore
SplineSet
43 498 m 1xf0
 72 622 l 1
 119 670 165 689 233 689 c 0
 344 689 418 630 418 541 c 0xf0
 418 481 388 436 308 374 c 1
 357 365 381 357 406 339 c 0
 442 314 462 273 462 224 c 0
 462 177 445 133 411 92 c 0
 356 25 264 -20 184 -20 c 0
 146 -20 103 -12 50 6 c 1
 44 56 36 92 15 153 c 1
 42 163 l 1
 61 109 73 87 98 64 c 0
 127 36 168 21 215 21 c 0
 308 21 369 88 369 190 c 0xe8
 369 281 321 334 238 334 c 0
 210 334 192 329 154 312 c 1
 147 318 l 1
 159 371 l 1
 166 370 172 370 174 370 c 0
 188 369 199 368 206 368 c 0
 277 368 336 431 336 505 c 0
 336 570 283 622 219 622 c 0
 166 622 103 588 92 554 c 2
 74 498 l 1
 43 498 l 1xf0
EndSplineSet
Substitution2: "'onum' Oldstyle Figures lookup 22-1" three.onum
Substitution2: "'sups' Superscript lookup 3 subtable" threesuperior
Substitution2: "'aalt' Access All Alternates lookup 0 subtable" threesuperior
EndChar

StartChar: four
Encoding: 20 52 21
Width: 500
Flags: MW
HStem: -3 20 0 20 181 64<65 280 65 280 13 280 364 388 388 391 391 393.5> 674 20<359 359>
VStem: 280 84<106 181 106 181 245 384>
LayerCount: 2
Fore
SplineSet
280 181 m 1xa8
 13 181 l 1
 2 204 l 1
 285 667 l 1
 359 694 l 1
 371 689 l 1
 366 663 364 571 364 384 c 2
 364 245 l 1
 388 245 l 1
 391 245 l 2
 422 245 441 245 472 248 c 1
 472 177 l 1
 444 180 423 181 364 181 c 1
 364 106 l 2
 366 44 374 34 424 30 c 2
 472 27 l 1
 472 -3 l 1xb8
 385 -1 345 0 315 0 c 0x48
 287 0 248 -1 158 -3 c 1
 158 27 l 1
 220 30 l 2
 270 33 278 44 280 106 c 2
 280 181 l 1xa8
280 245 m 1
 280 597 l 1
 65 245 l 1
 280 245 l 1
EndSplineSet
Substitution2: "'onum' Oldstyle Figures lookup 22-1" four.onum
Substitution2: "'sups' Superscript lookup 3 subtable" foursuperior
Substitution2: "'aalt' Access All Alternates lookup 0 subtable" foursuperior
EndChar

StartChar: five
Encoding: 21 53 22
Width: 500
Flags: MW
HStem: -20 45<173.5 206.5> 377 69<240 266>
VStem: 374 85<216 255>
LayerCount: 2
Fore
SplineSet
127 605 m 1
 118 396 l 1
 180 434 216 446 264 446 c 0
 378 446 459 366 459 253 c 0
 459 179 427 110 367 57 c 0
 311 9 240 -20 173 -20 c 0
 129 -20 90 -12 62 4 c 1
 48 48 36 80 13 137 c 1
 37 151 l 1
 83 69 l 2
 97 43 146 25 201 25 c 0
 310 25 374 90 374 201 c 0
 374 309 314 377 218 377 c 0
 169 377 142 364 95 316 c 1
 75 322 l 1
 78 364 81 458 81 545 c 0
 81 577 80 623 79 684 c 1
 84 689 l 1
 157 685 201 684 258 684 c 0
 315 684 359 685 432 689 c 1
 437 684 l 1
 435 666 435 658 435 645 c 0
 435 631 435 623 437 605 c 1
 432 600 l 1
 309 600 254 601 127 605 c 1
EndSplineSet
Substitution2: "'onum' Oldstyle Figures lookup 22-1" five.onum
Substitution2: "'sups' Superscript lookup 3 subtable" fivesuperior
Substitution2: "'aalt' Access All Alternates lookup 0 subtable" fivesuperior
EndChar

StartChar: six
Encoding: 22 54 23
Width: 500
Flags: MW
HStem: -20 33<211 293 211 306> 349 60<268 293>
VStem: 32 91<164 238 152.5 315.5> 382 86<150.5 234>
LayerCount: 2
Fore
SplineSet
131 331 m 1
 154 349 l 2
 213 396 243 409 293 409 c 0
 399 409 468 334 468 219 c 0
 468 82 371 -20 241 -20 c 0
 111 -20 32 81 32 247 c 0
 32 384 88 506 191 593 c 0
 242 637 283 657 379 689 c 1
 416 672 l 1
 416 664 l 1
 236 610 152 512 131 331 c 1
254 349 m 0
 207 349 160 325 138 291 c 0
 127 274 123 256 123 220 c 0
 123 85 168 13 254 13 c 0
 332 13 382 80 382 184 c 0
 382 284 332 349 254 349 c 0
EndSplineSet
Substitution2: "'onum' Oldstyle Figures lookup 22-1" six.onum
Substitution2: "'sups' Superscript lookup 3 subtable" sixsuperior
Substitution2: "'aalt' Access All Alternates lookup 0 subtable" sixsuperior
EndChar

StartChar: seven
Encoding: 23 55 24
Width: 500
Flags: MW
HStem: -3 20 0 20 603 81<235 312.5>
LayerCount: 2
Fore
SplineSet
56 10 m 1x80
 300 402 l 2
 338 463 369 521 409 603 c 1
 142 603 l 2
 95 602 89 595 81 533 c 2
 74 477 l 1
 44 477 l 1
 46 538 47 564 47 579 c 0
 47 594 46 622 44 684 c 1
 54 689 l 1
 149 685 197 684 273 684 c 0
 352 684 408 685 497 689 c 1
 497 659 l 1
 314 330 l 2
 248 210 199 106 157 -3 c 1xa0
 128 -1 119 0 111 0 c 0x40
 103 0 94 -1 65 -3 c 1
 56 10 l 1x80
EndSplineSet
Substitution2: "'onum' Oldstyle Figures lookup 22-1" seven.onum
Substitution2: "'sups' Superscript lookup 3 subtable" sevensuperior
Substitution2: "'aalt' Access All Alternates lookup 0 subtable" sevensuperior
EndChar

StartChar: eight
Encoding: 24 56 25
Width: 500
Flags: MW
HStem: -20 34<198.5 281.5 198.5 291.5> 655 34<211.5 283.5>
VStem: 30 71<120 185> 53 75<519 560.5> 368 68<515 570.5> 385 79<144.5 191>
LayerCount: 2
Fore
SplineSet
168 345 m 1xe4
 79 402 53 440 53 508 c 0
 53 613 140 689 259 689 c 0
 365 689 436 631 436 545 c 0xd8
 436 485 404 443 313 381 c 1
 428 329 464 286 464 207 c 0
 464 82 357 -20 226 -20 c 0
 112 -20 30 55 30 159 c 0
 30 211 50 256 88 294 c 0
 110 315 127 326 168 345 c 1xe4
284 295 m 2xe4
 204 331 l 1
 130 286 101 240 101 167 c 0
 101 73 156 14 241 14 c 0
 322 14 385 80 385 164 c 0
 385 218 348 266 284 295 c 2xe4
223 423 m 2xd8
 278 396 l 1
 343 438 368 477 368 534 c 0
 368 607 320 655 247 655 c 0
 176 655 128 611 128 544 c 0
 128 494 160 454 223 423 c 2xd8
EndSplineSet
Substitution2: "'onum' Oldstyle Figures lookup 22-1" eight.onum
Substitution2: "'sups' Superscript lookup 3 subtable" eightsuperior
Substitution2: "'aalt' Access All Alternates lookup 0 subtable" eightsuperior
EndChar

StartChar: nine
Encoding: 25 57 26
Width: 500
Flags: MW
HStem: 256 61<200 216> 656 33<198.5 262.5>
VStem: 20 86<440 522> 370 87<425.5 494>
LayerCount: 2
Fore
SplineSet
96 -20 m 1
 62 -3 l 1
 62 5 l 1
 243 49 352 172 360 340 c 1
 290 282 l 2
 272 267 233 256 199 256 c 0
 95 256 20 339 20 455 c 0
 20 589 116 689 244 689 c 0
 376 689 457 586 457 417 c 0
 457 283 406 168 309 85 c 0
 255 39 207 16 96 -20 c 1
240 656 m 0
 157 656 106 593 106 492 c 0
 106 388 160 317 240 317 c 0
 318 317 370 379 370 472 c 0
 370 516 358 565 340 597 c 0
 318 637 285 656 240 656 c 0
EndSplineSet
Substitution2: "'onum' Oldstyle Figures lookup 22-1" nine.onum
Substitution2: "'sups' Superscript lookup 3 subtable" ninesuperior
Substitution2: "'aalt' Access All Alternates lookup 0 subtable" ninesuperior
EndChar

StartChar: colon
Encoding: 26 58 27
Width: 250
Flags: MW
HStem: -5 116<108 138> 340 116<108 138>
VStem: 66 116<37.5 68 382.5 412.5>
LayerCount: 2
Fore
SplineSet
123 111 m 0
 154 111 182 83 182 53 c 0
 182 22 154 -5 122 -5 c 0
 93 -5 66 22 66 53 c 0
 66 83 93 111 123 111 c 0
123 456 m 0
 154 456 182 428 182 397 c 0
 182 367 154 340 122 340 c 0
 93 340 66 367 66 398 c 0
 66 428 93 456 123 456 c 0
EndSplineSet
EndChar

StartChar: semicolon
Encoding: 27 59 28
Width: 250
Flags: MW
HStem: 340 116<135 165>
VStem: 93 116<382.5 412.5 382 413>
LayerCount: 2
Fore
SplineSet
204 125 m 1
 218 111 l 1
 190 34 152 -29 71 -134 c 1
 30 -153 l 1
 16 -142 l 1
 74 -46 99 19 106 95 c 1
 159 110 177 116 204 125 c 1
150 456 m 0
 181 456 209 428 209 397 c 0
 209 367 181 340 149 340 c 0
 120 340 93 367 93 398 c 0
 93 428 120 456 150 456 c 0
EndSplineSet
EndChar

StartChar: less
Encoding: 28 60 29
Width: 606
Flags: W
LayerCount: 2
Fore
SplineSet
559 494 m 1
 161 309 l 1
 559 124 l 1
 559 39 l 1
 50 271 l 1
 50 346 l 1
 559 578 l 1
 559 494 l 1
EndSplineSet
EndChar

StartChar: equal
Encoding: 29 61 30
Width: 606
Flags: MW
HStem: 136 56<51 555 51 555> 330 56<51 555 51 555>
LayerCount: 2
Fore
SplineSet
555 386 m 1
 555 330 l 1
 51 330 l 1
 51 386 l 1
 555 386 l 1
555 192 m 1
 555 136 l 1
 51 136 l 1
 51 192 l 1
 555 192 l 1
EndSplineSet
EndChar

StartChar: greater
Encoding: 30 62 31
Width: 606
Flags: W
LayerCount: 2
Fore
SplineSet
54 494 m 1
 54 578 l 1
 563 346 l 1
 563 271 l 1
 54 39 l 1
 54 124 l 1
 452 309 l 1
 54 494 l 1
EndSplineSet
EndChar

StartChar: question
Encoding: 31 63 32
Width: 444
Flags: MW
HStem: -5 116<183 213> 628 66<191.5 215>
VStem: 141 116<37.5 68> 148 43<239 259.5 235 271> 302 93<511.5 551>
LayerCount: 2
Fore
SplineSet
43 546 m 1xd8
 81 659 l 1
 134 685 169 694 214 694 c 0
 317 694 395 628 395 540 c 0
 395 483 371 445 285 367 c 0
 204 293 191 276 191 243 c 0
 191 227 197 215 213 195 c 1
 192 181 l 1
 162 200 148 224 148 254 c 0
 148 288 164 315 225 382 c 0
 284 447 302 479 302 519 c 0
 302 583 251 628 179 628 c 0
 134 628 103 613 92 586 c 2
 72 538 l 1
 43 546 l 1xd8
198 111 m 0xe0
 229 111 257 83 257 53 c 0
 257 22 229 -5 197 -5 c 0
 168 -5 141 22 141 53 c 0
 141 83 168 111 198 111 c 0xe0
EndSplineSet
EndChar

StartChar: at
Encoding: 32 64 33
Width: 747
Flags: MW
HStem: -20 50<308.5 423.5 308.5 440.5> 134 29<506.5 549> 139 27<290 315.5> 482 27 644 50<306 475.5>
VStem: 24 55<248.5 425 248.5 433> 159 89<240.5 279 227 340> 671 53<347.5 473.5>
LayerCount: 2
Fore
SplineSet
658 171 m 1xdf
 719 171 l 1
 688 120 672 99 640 72 c 0
 572 12 487 -20 394 -20 c 0
 186 -20 24 134 24 331 c 0
 24 535 185 694 392 694 c 0
 579 694 724 569 724 409 c 0
 724 272 607 134 491 134 c 0xdf
 447 134 420 163 415 218 c 1
 365 155 339 139 292 139 c 0x27
 217 139 159 201 159 280 c 0
 159 400 263 509 377 509 c 0
 425 509 452 484 464 429 c 1
 482 499 l 1
 570 499 l 1
 493 220 l 2
 490 210 489 201 489 192 c 0
 489 174 499 163 514 163 c 0
 589 163 671 290 671 405 c 0
 671 542 554 644 397 644 c 0
 215 644 79 513 79 337 c 0
 79 160 216 30 401 30 c 0
 446 30 485 38 523 55 c 0
 579 80 610 106 658 171 c 1xdf
393 482 m 0
 364 484 332 463 305 424 c 0
 272 377 248 304 248 254 c 0
 248 200 272 166 308 166 c 0x37
 341 166 371 189 396 234 c 0
 424 283 445 359 445 410 c 0
 445 451 424 480 393 482 c 0
EndSplineSet
EndChar

StartChar: A
Encoding: 33 65 34
Width: 778
Flags: MW
HStem: -3 20 0 20 229 40<240 493 240 511 223 493> 680 20<376 408 408 408>
LayerCount: 2
Fore
SplineSet
408 700 m 1x90
 650 132 l 2
 685 50 696 34 722 30 c 2
 756 27 l 1
 756 -3 l 1xb0
 678 -1 651 0 629 0 c 0x40
 608 0 572 -1 490 -3 c 1
 490 27 l 1
 537 30 l 2
 563 32 578 39 578 50 c 0
 578 60 575 69 557 114 c 2
 511 229 l 1
 223 229 l 1
 195 162 l 2
 174 111 160 70 160 56 c 0
 160 40 173 33 208 30 c 2
 245 27 l 1
 245 -3 l 1xa0
 172 -1 141 0 124 0 c 0x40
 105 0 83 -1 15 -3 c 1
 15 27 l 1
 52 30 l 2
 74 32 94 50 106 79 c 2
 284 484 l 2
 301 522 321 569 337 605 c 0
 344 621 360 660 376 700 c 1
 408 700 l 1x90
240 269 m 1
 493 269 l 1
 367 567 l 1
 240 269 l 1
EndSplineSet
EndChar

StartChar: B
Encoding: 34 66 35
Width: 611
Flags: MW
HStem: -3 42<292 334.5> 0 20 364 35<264 326 260 342> 652 40
VStem: 113 95<95 362 401 569 569 569> 443 99<530 575> 473 103<192.5 253.5 192.5 261.5>
LayerCount: 2
Fore
SplineSet
65 20 m 1x4a
 91 30 l 2
 106 36 113 57 113 95 c 2
 113 569 l 2
 112 650 109 655 62 659 c 2
 26 662 l 1
 26 692 l 1
 111 690 157 689 184 689 c 0
 201 689 201 689 274 690 c 0
 355 692 355 692 364 692 c 0
 480 692 542 644 542 556 c 0x9c
 542 504 517 461 469 428 c 0
 441 409 418 400 369 390 c 1
 446 384 480 375 519 347 c 0
 556 320 576 279 576 228 c 0
 576 157 541 90 482 48 c 0
 437 15 371 -3 298 -3 c 0x9a
 286 -3 285 -3 208 0 c 2
 175 0 l 2x4a
 152 0 126 -1 65 -3 c 1x8a
 65 20 l 1x4a
208 362 m 1
 208 47 l 1
 233 41 255 39 285 39 c 0xba
 404 39 473 101 473 208 c 0
 473 315 410 364 274 364 c 0x6a
 254 364 247 364 208 362 c 1
208 644 m 1
 208 401 l 1
 238 399 251 399 269 399 c 0
 383 399 443 445 443 533 c 0xbc
 443 617 397 652 286 652 c 0
 254 652 234 650 208 644 c 1
EndSplineSet
EndChar

StartChar: C
Encoding: 35 67 36
Width: 709
Flags: MW
HStem: -20 54<356 456.5> 667 42<389 464>
VStem: 22 107<262.5 409.5>
LayerCount: 2
Fore
SplineSet
670 84 m 1
 642 34 l 1
 572 -2 498 -20 415 -20 c 0
 180 -20 22 125 22 342 c 0
 22 477 82 583 196 649 c 0
 264 688 345 709 433 709 c 0
 506 709 578 696 664 668 c 1
 650 602 645 566 645 516 c 1
 614 516 l 1
 614 588 l 2
 614 627 513 667 415 667 c 0
 242 667 129 546 129 361 c 0
 129 164 258 34 454 34 c 0
 531 34 599 54 661 94 c 1
 670 84 l 1
EndSplineSet
EndChar

StartChar: D
Encoding: 36 68 37
Width: 774
Flags: MW
HStem: -3 44<333 368 287 405> 0 20 652 37 672 20<22 22 398 508>
VStem: 113 95<95 569 569 569> 644 107<331.5 409>
LayerCount: 2
Fore
SplineSet
57 20 m 1x4c
 88 36 l 2
 104 44 113 65 113 95 c 2
 113 569 l 2
 112 650 109 655 62 659 c 2
 22 662 l 1
 22 692 l 1x5c
 125 690 177 689 226 689 c 0x2c
 272 689 306 690 364 691 c 0
 381 692 394 692 402 692 c 0
 614 692 751 571 751 385 c 0
 751 278 707 170 635 99 c 0
 565 30 469 -3 341 -3 c 0x9c
 325 -3 325 -3 248 -1 c 0
 232 0 217 0 196 0 c 0x4c
 170 0 135 -1 57 -3 c 1x8c
 57 20 l 1x4c
208 644 m 1xac
 208 49 l 1
 233 43 263 41 311 41 c 0
 425 41 484 58 544 107 c 0
 610 161 644 247 644 359 c 0
 644 459 621 531 574 579 c 0
 555 597 536 611 514 620 c 0
 472 639 392 652 318 652 c 0
 267 652 233 650 208 644 c 1xac
EndSplineSet
EndChar

StartChar: E
Encoding: 37 69 38
Width: 611
Flags: MW
HStem: -3 42<287 406> 0 20 330 42<302 356> 650 42
VStem: 121 95<120 327 375 569 569 569>
LayerCount: 2
Fore
SplineSet
34 27 m 1x88
 70 30 l 2
 117 34 120 39 121 120 c 2
 121 569 l 2
 120 650 116 656 70 659 c 2
 22 662 l 1
 22 692 l 1
 117 690 159 689 200 689 c 0
 222 689 268 690 333 691 c 0
 373 692 406 692 432 692 c 0
 478 692 508 691 556 689 c 1
 545 645 540 597 540 537 c 1
 505 537 l 1
 505 602 l 2
 505 625 502 630 478 636 c 0
 447 644 388 650 335 650 c 0
 267 650 247 649 216 642 c 1
 216 375 l 1
 251 373 278 372 326 372 c 0
 392 372 420 375 438 383 c 1
 443 391 445 400 446 409 c 2
 451 461 l 1
 481 461 l 1
 479 395 478 365 478 345 c 0
 478 324 479 300 481 234 c 1
 451 234 l 1
 446 293 l 1
 438 318 l 1
 420 327 393 330 319 330 c 0
 270 330 242 329 216 327 c 1
 216 47 l 1
 245 40 261 39 313 39 c 0xb8
 410 39 486 44 501 52 c 0
 510 56 519 73 526 101 c 0
 529 110 532 131 537 164 c 1
 572 164 l 1
 562 112 556 58 556 0 c 1x48
 464 -2 423 -3 389 -3 c 0x88
 359 -3 304 -2 228 -1 c 0
 196 0 174 0 158 0 c 0x48
 129 0 99 -1 34 -3 c 1
 34 27 l 1x88
EndSplineSet
EndChar

StartChar: F
Encoding: 38 70 39
Width: 556
Flags: MW
HStem: -3 20 0 20 330 42<302 355.5> 650 42
VStem: 121 95<120 327 120 375 375 569 569 569>
LayerCount: 2
Fore
SplineSet
216 327 m 1xb8
 216 120 l 2
 217 39 221 32 267 30 c 2
 315 27 l 1
 315 -3 l 1x88
 256 -1 220 0 168 0 c 0x48
 116 0 81 -1 22 -3 c 1
 22 27 l 1
 70 30 l 2
 116 32 120 40 121 120 c 2
 121 569 l 2
 120 650 116 656 70 659 c 2
 22 662 l 1
 22 692 l 1
 117 690 163 689 198 689 c 0
 222 689 258 690 307 691 c 2
 414 692 l 2
 459 692 488 691 536 689 c 1
 525 644 520 597 520 537 c 1
 485 537 l 1
 485 602 l 2
 485 625 482 630 458 636 c 0
 428 644 371 650 324 650 c 0
 265 650 246 649 216 642 c 1
 216 375 l 1
 251 373 278 372 326 372 c 0
 392 372 420 375 438 383 c 1
 442 391 445 400 446 409 c 2
 451 461 l 1
 481 461 l 1
 479 394 478 364 478 345 c 0
 478 325 479 302 481 234 c 1
 451 234 l 1
 446 293 l 1
 438 318 l 1
 420 327 392 330 319 330 c 0
 270 330 242 329 216 327 c 1xb8
EndSplineSet
EndChar

StartChar: G
Encoding: 39 71 40
Width: 763
Flags: MW
HStem: -20 42<354 447.5> 667 42<331 450.5>
VStem: 22 107<258.5 451.5> 596 92<98 199 31 211>
LayerCount: 2
Fore
SplineSet
641 516 m 1
 641 569 l 2
 641 607 616 630 558 649 c 0
 520 661 476 667 425 667 c 0
 237 667 129 555 129 363 c 0
 129 154 254 22 454 22 c 0
 520 22 579 36 590 54 c 0
 594 62 596 74 596 98 c 2
 596 199 l 2
 596 223 588 232 562 234 c 2
 479 241 l 1
 479 271 l 1
 540 269 567 269 601 269 c 0
 635 269 664 269 724 271 c 1
 728 246 l 1
 699 236 l 2
 689 232 688 231 688 199 c 2
 688 31 l 1
 552 -7 483 -20 412 -20 c 0
 178 -20 22 125 22 340 c 0
 22 563 192 709 451 709 c 0
 530 709 581 700 692 668 c 1
 678 613 672 568 672 516 c 1
 641 516 l 1
EndSplineSet
EndChar

StartChar: H
Encoding: 40 72 41
Width: 832
Flags: MW
HStem: -3 20 0 20 345 44<275.5 533 299 533> 672 20<22 22 315 315 517 517 810 810>
VStem: 121 95<120 343 120 391 391 569> 616 95<120 343 343 343 391 569 120 569>
LayerCount: 2
Fore
SplineSet
810 662 m 1xbc
 762 659 l 2
 716 656 712 650 711 569 c 2
 711 120 l 2
 712 39 716 32 762 30 c 2
 810 27 l 1
 810 -3 l 1x8c
 751 -1 715 0 663 0 c 0x4c
 611 0 575 -1 517 -3 c 1
 517 27 l 1
 565 30 l 2
 611 32 615 40 616 120 c 2
 616 343 l 1
 590 345 580 345 533 345 c 2
 299 345 l 2
 252 345 242 345 216 343 c 1
 216 120 l 2
 217 39 221 32 267 30 c 2
 315 27 l 1
 315 -3 l 1xac
 256 -1 220 0 168 0 c 0x4c
 116 0 81 -1 22 -3 c 1
 22 27 l 1
 70 30 l 2
 116 32 120 40 121 120 c 2
 121 569 l 2
 120 650 116 656 70 659 c 2
 22 662 l 1
 22 692 l 1
 82 690 118 689 168 689 c 0
 219 689 255 690 315 692 c 1
 315 662 l 1
 267 659 l 2
 221 657 217 649 216 569 c 2
 216 391 l 1
 235 390 253 389 299 389 c 2
 533 389 l 2
 579 389 597 390 616 391 c 1
 616 569 l 2
 615 650 611 656 565 659 c 2
 517 662 l 1
 517 692 l 1
 577 690 613 689 663 689 c 0
 714 689 750 690 810 692 c 1
 810 662 l 1xbc
EndSplineSet
EndChar

StartChar: I
Encoding: 41 73 42
Width: 337
Flags: MW
HStem: -3 20 0 20 672 20<22 22 315 315>
VStem: 121 95<120 569 120 569>
LayerCount: 2
Fore
SplineSet
315 662 m 1xb0
 267 659 l 2
 221 656 217 650 216 569 c 2
 216 120 l 2
 217 39 221 32 267 30 c 2
 315 27 l 1
 315 -3 l 1x90
 256 -1 220 0 168 0 c 0x50
 116 0 81 -1 22 -3 c 1
 22 27 l 1
 70 30 l 2
 116 32 120 40 121 120 c 2
 121 569 l 2
 120 650 116 656 70 659 c 2
 22 662 l 1
 22 692 l 1
 82 690 118 689 168 689 c 0
 219 689 255 690 315 692 c 1
 315 662 l 1xb0
EndSplineSet
EndChar

StartChar: J
Encoding: 42 74 43
Width: 333
Flags: MW
HStem: -195 66<14 83> 672 20<18 18 311 311>
VStem: 117 95<56.5 117 117 569>
LayerCount: 2
Fore
SplineSet
311 662 m 1
 263 659 l 2
 217 656 213 650 212 569 c 2
 212 117 l 2
 212 -4 199 -54 150 -114 c 0
 111 -163 48 -200 14 -195 c 2
 7 -194 l 1
 -10 -192 l 1
 -15 -116 l 1
 -4 -110 l 1
 19 -124 38 -129 63 -129 c 0
 103 -129 117 -101 117 -17 c 2
 117 569 l 2
 116 650 112 656 66 659 c 2
 18 662 l 1
 18 692 l 1
 78 690 114 689 164 689 c 0
 215 689 251 690 311 692 c 1
 311 662 l 1
EndSplineSet
EndChar

StartChar: K
Encoding: 43 75 44
Width: 726
Flags: MW
HStem: -3 20 0 20 672 20<22 22 315 315 523 523 692 692>
VStem: 121 95<120 325 120 355 355 569>
LayerCount: 2
Fore
SplineSet
216 325 m 1x90
 216 120 l 2
 217 39 221 32 267 30 c 2
 315 27 l 1
 315 -3 l 1x90
 256 -1 220 0 168 0 c 0x50
 116 0 81 -1 22 -3 c 1
 22 27 l 1
 70 30 l 2
 116 32 120 40 121 120 c 2
 121 569 l 2
 120 650 116 656 70 659 c 2
 22 662 l 1
 22 692 l 1
 82 690 118 689 168 689 c 0
 219 689 255 690 315 692 c 1
 315 662 l 1
 267 659 l 2
 221 657 217 649 216 569 c 2
 216 355 l 1
 494 626 l 2
 510 641 524 660 523 665 c 2
 523 692 l 1
 573 690 595 689 612 689 c 0
 630 689 648 690 692 692 c 1
 692 662 l 1
 650 660 l 2
 624 659 599 647 572 622 c 2
 306 382 l 1
 636 70 l 2
 667 41 683 30 698 29 c 2
 719 27 l 1
 719 -3 l 1xb0
 681 -1 668 0 654 0 c 0x50
 642 0 628 -1 574 -3 c 1
 226 332 l 1
 216 325 l 1x90
EndSplineSet
EndChar

StartChar: L
Encoding: 44 76 45
Width: 611
Flags: MW
HStem: -3 42<280.5 414.5> 0 20 672 20<22 22 315 315>
VStem: 121 95<95 569 47 569>
LayerCount: 2
Fore
SplineSet
315 662 m 1x70
 267 659 l 2
 221 656 217 650 216 569 c 2
 216 47 l 1
 241 41 263 39 298 39 c 0x90
 421 39 507 46 520 57 c 0
 526 62 533 82 539 111 c 0
 540 112 541 119 542 122 c 2
 554 172 l 1
 586 172 l 1
 575 69 571 41 565 0 c 1x50
 472 -2 432 -3 397 -3 c 0x90
 368 -3 304 -2 211 -1 c 0
 190 0 175 0 164 0 c 0x50
 138 0 114 -1 65 -3 c 1x90
 65 20 l 1
 96 36 l 2
 112 44 121 65 121 95 c 2
 121 569 l 2
 120 650 116 656 70 659 c 2
 22 662 l 1
 22 692 l 1
 82 690 118 689 168 689 c 0
 219 689 255 690 315 692 c 1
 315 662 l 1x70
EndSplineSet
EndChar

StartChar: M
Encoding: 45 77 46
Width: 946
Flags: MW
HStem: -13 20 0 20 672 20<16 16 206 206 732 732 920 920>
VStem: 111 46<120 569 569 569> 732 95<120 569 120 578 120 578>
LayerCount: 2
Fore
SplineSet
920 662 m 1x78
 878 659 l 2
 831 655 828 650 827 569 c 2
 827 120 l 2
 828 40 832 32 878 30 c 2
 926 27 l 1
 926 -3 l 1
 867 -1 831 0 775 0 c 0x58
 723 0 693 -1 647 -3 c 1
 647 27 l 1
 681 30 l 2
 728 34 731 39 732 120 c 2
 732 578 l 1
 714 544 701 521 688 492 c 2
 510 114 l 2
 500 91 482 49 456 -13 c 1
 436 -13 l 1x98
 157 578 l 1
 157 120 l 2
 158 39 161 34 208 30 c 2
 252 27 l 1
 252 -3 l 1
 181 -1 151 0 132 0 c 0
 112 0 88 -1 16 -3 c 1
 16 27 l 1
 60 30 l 2
 107 34 110 39 111 120 c 2
 111 569 l 2
 110 650 107 655 60 659 c 2
 16 662 l 1
 16 692 l 1
 73 690 94 689 111 689 c 0
 128 689 149 690 206 692 c 1
 470 136 l 1
 732 692 l 1
 786 690 809 689 827 689 c 0
 846 689 868 690 920 692 c 1
 920 662 l 1x78
EndSplineSet
EndChar

StartChar: N
Encoding: 46 78 47
Width: 831
Flags: MW
HStem: 0 20 672 20<17 17 191 191 577 577 813 813>
VStem: 112 46<120 569 569 569> 672 46<98 569>
LayerCount: 2
Fore
SplineSet
17 27 m 1
 61 30 l 2
 108 34 111 39 112 120 c 2
 112 569 l 2
 111 650 108 655 61 659 c 2
 17 662 l 1
 17 692 l 1
 73 690 80 690 137 689 c 1
 191 692 l 1
 672 98 l 1
 672 569 l 2
 671 650 668 655 621 659 c 2
 577 662 l 1
 577 692 l 1
 645 690 672 689 694 689 c 0
 716 689 748 690 813 692 c 1
 813 662 l 1
 769 659 l 2
 722 655 719 650 718 569 c 2
 718 17 l 2
 718 12 719 2 720 -8 c 0
 721 -15 721 -16 721 -20 c 2
 631 -4 l 1
 158 584 l 1
 158 120 l 2
 159 39 162 34 209 30 c 2
 253 27 l 1
 253 -3 l 1
 182 -1 152 0 133 0 c 0
 113 0 89 -1 17 -3 c 1
 17 27 l 1
EndSplineSet
EndChar

StartChar: O
Encoding: 47 79 48
Width: 786
Flags: MW
HStem: -20 42<325.5 482> 667 42<303 471>
VStem: 22 107<271 451.5> 657 107<257 441>
LayerCount: 2
Fore
SplineSet
402 709 m 0
 624 709 764 577 764 367 c 0
 764 147 594 -20 370 -20 c 0
 168 -20 22 131 22 341 c 0
 22 562 174 709 402 709 c 0
385 667 m 0
 221 667 129 563 129 378 c 0
 129 164 241 22 410 22 c 0
 566 22 657 139 657 337 c 0
 657 545 557 667 385 667 c 0
EndSplineSet
EndChar

StartChar: P
Encoding: 48 80 49
Width: 604
Flags: MW
HStem: -3 20 0 20 324 32<328 375.5 321 406.5> 654 38
VStem: 121 95<120 569 569 569> 480 100<477 556.5>
LayerCount: 2
Fore
SplineSet
216 642 m 1xbc
 216 120 l 2
 217 39 221 32 267 30 c 2
 315 27 l 1
 315 -3 l 1x8c
 256 -1 220 0 168 0 c 0x4c
 116 0 81 -1 22 -3 c 1
 22 27 l 1
 70 30 l 2
 116 32 120 40 121 120 c 2
 121 569 l 2
 120 645 114 655 68 659 c 2
 23 662 l 1
 23 692 l 1
 122 690 174 689 205 689 c 0
 236 689 297 690 347 691 c 0
 360 692 369 692 375 692 c 0
 502 692 580 633 580 537 c 0
 580 417 475 324 338 324 c 0
 318 324 304 325 280 330 c 1
 270 366 l 1
 295 358 310 356 332 356 c 0
 419 356 480 419 480 509 c 0
 480 604 423 654 314 654 c 0
 280 654 251 651 216 642 c 1xbc
EndSplineSet
EndChar

StartChar: Q
Encoding: 49 81 50
Width: 786
Flags: MW
HStem: 667 42<302.5 471>
VStem: 22 107<325 452.5> 657 107<299 440>
LayerCount: 2
Fore
SplineSet
388 -19 m 1
 377 -19 l 2
 162 -19 22 124 22 343 c 0
 22 562 173 709 398 709 c 0
 622 709 764 578 764 371 c 0
 764 227 690 98 569 28 c 0
 517 -1 480 -12 401 -19 c 1
 443 -24 461 -30 522 -56 c 0
 602 -90 657 -105 705 -105 c 0
 716 -105 730 -104 764 -99 c 1
 764 -120 l 1
 680 -176 l 1
 640 -168 609 -161 574 -150 c 2
 426 -104 l 2
 394 -94 368 -89 348 -89 c 0
 337 -89 331 -91 320 -97 c 2
 261 -129 l 1
 263 -97 l 1
 319 -54 353 -31 372 -25 c 2
 388 -19 l 1
385 667 m 0
 220 667 129 563 129 375 c 0
 129 275 159 180 209 117 c 0
 259 55 327 23 412 23 c 0
 569 23 657 135 657 335 c 0
 657 545 557 667 385 667 c 0
EndSplineSet
EndChar

StartChar: R
Encoding: 50 82 51
Width: 668
Flags: MW
HStem: -3 20 0 20 654 38
VStem: 121 95<120 569 569 569> 476 100<513 563.5>
LayerCount: 2
Fore
SplineSet
216 642 m 1xb8
 216 120 l 2
 217 39 221 32 267 30 c 2
 315 27 l 1
 315 -3 l 1x98
 256 -1 220 0 168 0 c 0x58
 116 0 81 -1 22 -3 c 1
 22 27 l 1
 70 30 l 2
 116 32 120 40 121 120 c 2
 121 569 l 2
 120 650 117 655 70 659 c 2
 29 662 l 1
 29 692 l 1
 122 690 165 689 206 689 c 0
 237 689 238 689 289 690 c 2
 334 691 l 2
 372 692 372 692 380 692 c 0
 506 692 576 639 576 542 c 0
 576 484 549 434 496 397 c 0
 463 374 437 363 381 349 c 1
 608 53 l 2
 621 36 637 30 669 27 c 1
 669 -3 l 1xb8
 622 -1 608 0 597 0 c 0x58
 585 0 570 -1 529 -3 c 1
 519 11 505 29 488 51 c 2
 304 298 l 2
 296 309 292 314 278 330 c 0
 266 344 263 347 252 360 c 1
 258 372 l 1
 271 371 281 371 287 371 c 0
 404 371 476 429 476 521 c 0
 476 606 418 654 314 654 c 0
 280 654 251 651 216 642 c 1xb8
EndSplineSet
EndChar

StartChar: S
Encoding: 51 83 52
Width: 525
Flags: MW
HStem: -20 44<199.5 290> 667 42<215 278.5>
VStem: 24 84<484.5 549.5> 419 84<157.5 198>
LayerCount: 2
Fore
SplineSet
447 526 m 1
 415 526 l 1
 409 583 l 2
 406 612 395 627 362 644 c 0
 335 659 298 667 259 667 c 0
 171 667 108 607 108 523 c 0
 108 446 151 413 273 397 c 0
 354 386 380 380 411 367 c 0
 476 340 503 299 503 230 c 0
 503 85 377 -20 203 -20 c 0
 144 -20 87 -8 30 18 c 1
 36 62 37 94 37 171 c 1
 69 171 l 1
 77 104 l 2
 82 62 160 24 239 24 c 0
 344 24 419 89 419 179 c 0
 419 217 407 246 381 267 c 0
 354 290 319 301 243 312 c 0
 146 325 100 341 66 372 c 0
 37 399 24 434 24 484 c 0
 24 615 132 709 281 709 c 0
 337 709 381 699 461 667 c 1
 451 615 447 580 447 526 c 1
EndSplineSet
EndChar

StartChar: T
Encoding: 52 84 53
Width: 613
Flags: MW
HStem: -3 20 0 20 643 46<221 255 358 358 358 379 379 387 221 513> 672 20<18 18 595 595>
VStem: 259 95<120 543 120 566>
LayerCount: 2
Fore
SplineSet
160 27 m 1x88
 208 30 l 2
 254 32 258 39 259 120 c 2
 259 543 l 2
 259 589 258 612 255 643 c 1
 100 643 l 2x28
 70 642 62 635 60 610 c 2
 56 531 l 1
 25 531 l 1
 25 596 23 635 18 692 c 1x18
 86 691 l 2
 156 690 209 689 221 689 c 2
 379 689 l 2x28
 395 689 405 689 462 690 c 2
 595 692 l 1x18
 590 635 588 596 588 531 c 1
 557 531 l 1
 553 610 l 2
 551 635 542 642 513 643 c 2
 358 643 l 1
 355 614 354 594 354 543 c 2
 354 120 l 2
 355 40 359 32 405 30 c 2
 453 27 l 1
 453 -3 l 1xa8
 394 -1 358 0 306 0 c 0x48
 254 0 219 -1 160 -3 c 1
 160 27 l 1x88
EndSplineSet
EndChar

StartChar: U
Encoding: 53 85 54
Width: 778
Flags: MW
HStem: -20 62<335.5 429.5> 672 20<12 12 305 305 523 523 759 759>
VStem: 111 95<214 225 225 569> 618 46<249 280 280 569>
LayerCount: 2
Fore
SplineSet
759 662 m 1
 715 659 l 2
 668 655 665 650 664 569 c 2
 664 280 l 2
 664 169 642 94 595 46 c 0
 550 1 481 -20 378 -20 c 0
 278 -20 207 1 167 42 c 0
 129 81 111 136 111 214 c 2
 111 569 l 2
 110 650 106 656 60 659 c 2
 12 662 l 1
 12 692 l 1
 72 690 108 689 158 689 c 0
 209 689 245 690 305 692 c 1
 305 662 l 1
 257 659 l 2
 211 657 207 649 206 569 c 2
 206 225 l 2
 206 97 266 42 405 42 c 0
 550 42 618 108 618 249 c 2
 618 569 l 2
 617 650 614 655 567 659 c 2
 523 662 l 1
 523 692 l 1
 592 690 619 689 640 689 c 0
 662 689 694 690 759 692 c 1
 759 662 l 1
EndSplineSet
EndChar

StartChar: V
Encoding: 54 86 55
Width: 722
Flags: MW
HStem: -9 20 672 20<8 8 274 274 490 490 706 706>
LayerCount: 2
Fore
SplineSet
274 662 m 1
 218 659 l 2
 197 658 186 651 186 639 c 0
 186 635 187 632 188 628 c 2
 385 121 l 1
 568 594 l 2
 574 609 577 623 577 633 c 0
 577 648 564 658 542 659 c 2
 490 662 l 1
 490 692 l 1
 528 691 l 2
 557 690 578 689 593 689 c 2
 598 689 l 1
 706 692 l 1
 706 662 l 1
 676 659 l 2
 656 657 645 641 622 587 c 2
 448 166 l 2
 415 85 404 56 384 -9 c 1
 334 -9 l 1
 319 45 307 80 276 156 c 2
 88 618 l 2
 75 648 64 657 44 659 c 2
 8 662 l 1
 8 692 l 1
 82 690 114 689 141 689 c 0
 168 689 199 690 274 692 c 1
 274 662 l 1
EndSplineSet
EndChar

StartChar: W
Encoding: 55 87 56
Width: 1000
Flags: MW
HStem: -9 20 680 20<499 531 531 531>
LayerCount: 2
Fore
SplineSet
734 -9 m 1
 684 -9 l 1
 649 100 646 108 613 197 c 2
 488 536 l 1
 314 94 l 2
 295 46 287 23 278 -9 c 1
 228 -9 l 1
 223 12 220 30 218 37 c 0
 215 49 210 72 205 94 c 2
 86 609 l 2
 77 645 65 657 36 659 c 2
 8 662 l 1
 8 692 l 1
 36 691 57 691 67 690 c 2
 125 689 l 1
 134 689 l 1
 260 692 l 1
 260 662 l 1
 218 659 l 2
 191 657 181 648 181 626 c 0
 181 616 182 605 185 593 c 2
 285 144 l 1
 409 459 l 2
 462 595 478 638 499 700 c 1
 531 700 l 1
 539 667 542 658 564 598 c 2
 728 137 l 1
 860 626 l 2
 861 629 861 632 861 635 c 0
 860 651 849 656 814 659 c 2
 774 662 l 1
 774 692 l 1
 858 689 859 689 870 689 c 2
 879 689 l 1
 984 692 l 1
 984 662 l 1
 952 659 l 2
 930 657 920 649 914 630 c 2
 761 92 l 2
 750 54 743 30 742 25 c 0
 741 20 738 6 734 -9 c 1
EndSplineSet
EndChar

StartChar: X
Encoding: 56 88 57
Width: 667
Flags: MW
HStem: -3 20 0 20 680 20<168 168>
LayerCount: 2
Fore
SplineSet
648 27 m 1xa0
 648 -3 l 1x80
 628 -2 l 2
 595 0 590 0 578 0 c 0x40
 564 0 548 -1 503 -3 c 1
 319 303 l 1
 294 268 284 254 274 239 c 2
 117 -3 l 1x80
 86 -1 75 0 66 0 c 0x40
 57 0 46 -1 14 -3 c 1
 14 27 l 1
 40 30 l 2
 62 33 74 44 99 78 c 0
 101 81 102 81 105 86 c 2
 294 341 l 1
 166 554 l 2
 133 609 98 642 74 644 c 2
 29 647 l 1
 27 673 l 1
 168 700 l 1
 187 690 202 673 225 635 c 2
 353 419 l 1
 538 689 l 1
 639 689 l 1
 639 659 l 1
 598 656 l 2
 583 654 571 642 530 588 c 2
 376 380 l 1
 552 100 l 2
 587 46 599 33 618 30 c 2
 648 27 l 1xa0
EndSplineSet
EndChar

StartChar: Y
Encoding: 57 89 58
Width: 667
Flags: MW
HStem: -3 20 0 20 685 20<129 129>
VStem: 299 95<120 249 120 262 120 270.5>
LayerCount: 2
Fore
SplineSet
9 680 m 1x90
 124 704 l 2
 127 705 129 705 129 705 c 2
 147 707 188 660 220 602 c 2
 363 341 l 1
 466 504 l 2
 506 567 536 621 574 694 c 1
 654 694 l 1
 654 679 l 1
 576 586 541 539 466 426 c 0
 405 330 393 303 394 249 c 2
 394 120 l 2
 395 40 399 32 445 30 c 2
 493 27 l 1
 493 -3 l 1xb0
 434 -1 398 0 346 0 c 0x50
 294 0 258 -1 200 -3 c 1
 200 27 l 1
 248 30 l 2
 294 32 298 40 299 120 c 2
 299 262 l 2
 299 279 296 292 290 302 c 2
 166 518 l 2
 124 591 73 643 38 648 c 2
 9 651 l 1
 9 680 l 1x90
EndSplineSet
EndChar

StartChar: Z
Encoding: 58 90 59
Width: 667
Flags: MW
HStem: -3 20 0 44<327 355 327 327> 648 41<427 477 427 500> 672 20<80 80 633 633>
LayerCount: 2
Fore
SplineSet
637 663 m 1x10
 151 44 l 1
 424 44 l 2x40
 580 45 590 49 598 116 c 2
 604 173 l 1
 638 173 l 1
 633 119 632 83 632 -3 c 1x80
 484 -1 392 0 355 0 c 2
 327 0 l 1x40
 15 -3 l 1
 15 25 l 1
 79 101 98 123 112 142 c 2
 414 530 l 2
 428 548 442 565 455 583 c 0
 475 608 485 623 500 648 c 1
 272 648 l 2xa0
 145 646 122 639 120 601 c 2
 114 530 l 1
 80 530 l 1
 82 567 83 585 83 611 c 0
 83 637 82 655 80 692 c 1x10
 245 691 l 1
 427 689 l 1
 477 689 l 1x20
 633 692 l 1
 637 663 l 1x10
EndSplineSet
EndChar

StartChar: bracketleft
Encoding: 59 91 60
Width: 333
Flags: MW
VStem: 88 84<14 528 528 541 541 541>
LayerCount: 2
Fore
SplineSet
88 -184 m 1
 79 -171 l 1
 85 -144 87 -113 87 -44 c 2
 87 -33 l 1
 87 -24 l 1
 88 14 l 1
 88 528 l 1
 88 541 l 2
 87 551 87 564 87 579 c 0
 87 654 85 688 79 713 c 1
 88 726 l 1
 138 724 160 724 185 724 c 0
 211 724 233 724 282 726 c 1
 288 720 l 1
 288 694 l 1
 284 689 l 1
 246 689 l 2
 183 686 172 674 173 616 c 0
 173 614 173 593 172 565 c 2
 172 528 l 1
 172 14 l 1
 172 -23 l 2
 173 -53 173 -73 173 -75 c 0
 172 -132 184 -144 246 -147 c 2
 284 -147 l 1
 288 -152 l 1
 288 -178 l 1
 282 -184 l 1
 233 -182 211 -182 185 -182 c 0
 160 -182 138 -182 88 -184 c 1
EndSplineSet
EndChar

StartChar: backslash
Encoding: 60 92 61
Width: 606
Flags: MW
HStem: 0 20
LayerCount: 2
Fore
SplineSet
81 726 m 1
 140 726 l 1
 512 0 l 1
 453 0 l 1
 81 726 l 1
EndSplineSet
EndChar

StartChar: bracketright
Encoding: 61 93 62
Width: 333
Flags: MW
VStem: 161 84<14 528 528 541>
LayerCount: 2
Fore
SplineSet
245 726 m 1
 254 713 l 1
 248 689 246 656 246 582 c 0
 246 566 246 553 245 541 c 2
 245 528 l 1
 245 14 l 1
 245 1 l 2
 246 -11 246 -25 246 -40 c 0
 246 -114 248 -147 254 -171 c 1
 245 -184 l 1
 195 -182 173 -182 148 -182 c 0
 122 -182 100 -182 51 -184 c 1
 45 -178 l 1
 45 -152 l 1
 49 -147 l 1
 87 -147 l 1
 150 -143 161 -132 160 -73 c 0
 161 -17 161 -15 161 14 c 2
 161 528 l 1
 161 565 l 2
 160 594 160 613 160 616 c 0
 161 674 150 685 87 689 c 1
 49 689 l 1
 45 694 l 1
 45 720 l 1
 51 726 l 1
 100 724 122 724 148 724 c 0
 173 724 195 724 245 726 c 1
EndSplineSet
EndChar

StartChar: asciicircum
Encoding: 62 94 63
Width: 606
Flags: W
LayerCount: 2
Fore
SplineSet
119 283 m 1
 51 283 l 1
 270 689 l 1
 336 689 l 1
 554 283 l 1
 486 283 l 1
 303 621 l 1
 119 283 l 1
EndSplineSet
EndChar

StartChar: underscore
Encoding: 63 95 64
Width: 500
Flags: MW
HStem: -125 50<0 500 0 500>
LayerCount: 2
Fore
SplineSet
500 -125 m 1
 0 -125 l 1
 0 -75 l 1
 500 -75 l 1
 500 -125 l 1
EndSplineSet
EndChar

StartChar: quoteleft
Encoding: 571 8216 65
Width: 278
Flags: MW
HStem: 689 20<218 218>
LayerCount: 2
Fore
SplineSet
174 685 m 1
 218 709 l 1
 233 699 l 1
 185 623 161 555 155 476 c 1
 104 461 94 458 58 446 c 1
 45 459 l 1
 78 544 117 613 174 685 c 1
EndSplineSet
EndChar

StartChar: a
Encoding: 65 97 66
Width: 500
Flags: MW
HStem: -12 57<118 212.5> 0 20 416 53<224 235>
VStem: 32 86<103 143.5 103 154> 324 80<82 270 124 256 256 256 87 288>
LayerCount: 2
Fore
SplineSet
324 82 m 1x78
 200 -4 l 2
 193 -9 177 -12 158 -12 c 0x98
 78 -12 32 33 32 110 c 0
 32 198 89 245 225 270 c 2
 324 288 l 1
 321 379 282 416 188 416 c 0
 142 416 132 409 111 362 c 2
 98 331 l 1
 72 338 l 1
 72 403 l 1
 125 435 l 2
 163 458 202 469 246 469 c 0
 362 469 404 416 404 270 c 2
 404 87 l 2
 405 35 406 32 432 29 c 2
 471 27 l 1
 471 -3 l 1
 450 -2 l 2
 416 0 410 0 397 0 c 0
 383 0 368 -1 319 -3 c 1
 324 82 l 1x78
324 124 m 1
 324 256 l 1
 248 245 193 231 167 216 c 0
 138 197 118 162 118 125 c 0
 118 81 152 45 193 45 c 0
 232 45 295 83 324 124 c 1
EndSplineSet
Substitution2: "Single Substitution lookup 21 subtable" ordfeminine
Substitution2: "'aalt' Access All Alternates lookup 0 subtable" ordfeminine
EndChar

StartChar: b
Encoding: 66 98 67
Width: 553
Flags: MW
HStem: -12 51<250 262.5> 404 65<303.5 326>
VStem: 66 84<153 308 369 620 620 635> 421 87<233.5 283.5>
LayerCount: 2
Fore
SplineSet
150 718 m 1
 150 369 l 1
 205 425 l 2
 230 451 280 469 327 469 c 0
 433 469 508 387 508 270 c 0
 508 197 473 114 429 82 c 2
 329 10 l 2
 307 -6 282 -12 243 -12 c 0
 190 -12 154 -2 114 24 c 1
 74 -12 l 1
 58 -6 l 1
 65 62 66 91 66 153 c 2
 66 620 l 2
 66 650 59 661 41 661 c 2
 -15 661 l 1
 -15 689 l 1
 64 701 97 709 141 726 c 1
 150 718 l 1
150 308 m 2
 150 93 l 2
 150 71 224 39 276 39 c 0
 362 39 421 117 421 230 c 0
 421 337 368 404 284 404 c 0
 243 404 203 387 176 358 c 0
 160 340 150 322 150 308 c 2
EndSplineSet
EndChar

StartChar: c
Encoding: 67 99 68
Width: 444
Flags: MW
HStem: -20 52<242.5 281> 417 52<272.5 276.5>
VStem: 26 88<184 254.5>
LayerCount: 2
Fore
SplineSet
399 311 m 1
 371 311 l 1
 364 372 l 1
 346 398 299 417 254 417 c 0
 164 417 114 357 114 250 c 0
 114 118 187 32 298 32 c 0
 334 32 365 41 403 61 c 1
 413 46 l 1
 392 14 l 2
 382 -1 307 -20 255 -20 c 0
 120 -20 26 75 26 210 c 0
 26 299 63 368 133 412 c 0
 193 450 248 469 297 469 c 0
 338 469 373 458 413 434 c 1
 404 398 399 357 399 311 c 1
EndSplineSet
EndChar

StartChar: d
Encoding: 68 100 69
Width: 611
Flags: MW
HStem: -12 57<229 267.5> 0 20 422 47<279.5 285>
VStem: 35 87<190 258.5> 412 84<221 350 350 354 437 620 620 635>
LayerCount: 2
Fore
SplineSet
412 437 m 1xb8
 412 620 l 2
 412 650 405 661 387 661 c 2
 331 661 l 1
 331 689 l 1
 410 701 443 709 487 726 c 1
 496 718 l 1
 496 102 l 2
 497 36 498 34 533 30 c 2
 579 27 l 1
 579 -3 l 1
 557 -2 538 -2 531 -1 c 0
 511 0 496 0 488 0 c 0x58
 474 0 456 -1 411 -3 c 1
 416 89 l 1
 305 -4 l 2
 300 -8 278 -12 257 -12 c 0
 192 -12 145 1 110 30 c 0
 62 70 35 136 35 216 c 0
 35 301 71 374 129 404 c 2
 217 450 l 2
 242 463 266 469 293 469 c 0
 328 469 356 462 412 437 c 1xb8
412 221 m 2xb8
 412 350 l 2
 412 358 399 371 379 385 c 0
 344 409 304 422 266 422 c 0
 176 422 122 358 122 250 c 0
 122 130 185 45 273 45 c 0
 320 45 369 76 397 123 c 0
 410 146 412 156 412 221 c 2xb8
EndSplineSet
EndChar

StartChar: e
Encoding: 69 101 70
Width: 479
Flags: MW
HStem: -20 53<261.5 269> 230 34<223.5 265> 436 33<243 266>
LayerCount: 2
Fore
SplineSet
437 70 m 1
 417 36 l 2
 413 30 391 17 365 6 c 0
 324 -12 288 -20 250 -20 c 0
 174 -20 108 11 68 64 c 0
 41 102 26 156 26 218 c 0
 26 323 59 384 141 432 c 0
 182 456 225 469 261 469 c 0
 374 469 448 394 448 279 c 0
 448 267 447 258 446 244 c 1
 383 234 337 230 265 230 c 2
 119 230 l 1
 121 172 128 143 147 111 c 0
 175 62 229 33 294 33 c 0
 337 33 361 42 424 80 c 1
 437 70 l 1
359 267 m 1
 356 334 349 363 327 396 c 0
 309 423 283 436 249 436 c 0
 201 436 159 409 138 366 c 0
 125 339 121 317 121 270 c 1
 175 265 200 264 247 264 c 0
 284 264 308 265 359 267 c 1
EndSplineSet
EndChar

StartChar: f
Encoding: 70 102 71
Width: 333
Flags: MW
HStem: -3 20 0 20 662 66<231.5 301.5>
VStem: 106 84<102 385 102 385 434 476 476 476>
LayerCount: 2
Fore
SplineSet
341 717 m 1xb0
 341 640 l 1
 329 634 l 1
 305 655 287 662 260 662 c 0
 203 662 190 635 190 519 c 2
 190 434 l 1
 321 438 l 1
 314 385 l 1
 190 385 l 1
 190 102 l 2
 191 36 192 34 227 30 c 2
 273 27 l 1
 273 -3 l 1xb0
 203 -1 174 0 148 0 c 0x50
 122 0 93 -1 23 -3 c 1
 23 27 l 1
 69 30 l 2
 103 33 106 37 106 102 c 2
 106 385 l 1
 37 381 l 1
 37 403 l 1
 106 434 l 1
 106 476 l 2
 107 546 119 587 148 620 c 2
 206 686 l 2
 229 712 263 728 294 728 c 0
 309 728 321 725 341 717 c 1xb0
EndSplineSet
EndChar

StartChar: g
Encoding: 71 103 72
Width: 556
Flags: MW
HStem: -283 31<210.5 307 210.5 323.5> -14 70<252.5 343.5> 150 34<230 255.5> 435 34<254 275>
VStem: 32 76<-164 -113> 55 84<274.5 320> 354 84<297.5 334 297.5 336> 439 79<-127.5 -69.5>
LayerCount: 2
Fore
SplineSet
519 378 m 1xf4
 427 378 l 1
 435 358 438 344 438 324 c 0
 438 271 416 231 371 198 c 0
 330 169 277 150 234 150 c 0
 226 150 220 151 210 152 c 1
 206 148 204 147 197 141 c 0
 172 119 164 108 164 95 c 0
 164 68 188 56 240 56 c 2
 400 56 l 2
 470 56 518 6 518 -67 c 0
 518 -188 399 -283 248 -283 c 0
 120 -283 32 -220 32 -129 c 0xfb
 32 -97 45 -61 60 -53 c 2
 147 -6 l 1
 99 8 81 24 81 52 c 0
 81 67 85 80 96 95 c 1
 175 156 l 1
 101 164 55 215 55 289 c 0
 55 351 84 399 140 431 c 0
 181 455 232 469 276 469 c 0
 325 469 361 457 398 427 c 1
 540 431 l 1
 544 419 l 1
 519 378 l 1xf4
241 435 m 0
 176 435 139 391 139 313 c 0xf5
 139 236 184 184 251 184 c 0
 313 184 354 228 354 294 c 0
 354 378 309 435 241 435 c 0
287 -14 m 0
 218 -14 190 -16 174 -24 c 0
 134 -41 108 -82 108 -127 c 0xf8
 108 -201 167 -252 254 -252 c 0
 360 -252 439 -188 439 -102 c 0
 439 -37 400 -14 287 -14 c 0
EndSplineSet
EndChar

StartChar: h
Encoding: 72 104 73
Width: 582
Flags: MW
HStem: -3 20 0 20 408 61<308.5 332.5>
VStem: 88 84<102 314 378 620 620 635> 410 84<102 281 281 295 102 319.5>
LayerCount: 2
Fore
SplineSet
6 27 m 1x98
 51 30 l 2
 86 33 87 37 88 102 c 2
 88 620 l 2
 88 650 81 661 63 661 c 2
 7 661 l 1
 7 689 l 1
 86 701 119 709 163 726 c 1
 172 718 l 1
 172 378 l 1
 248 444 l 2
 269 463 290 469 327 469 c 0
 439 469 494 412 494 295 c 2
 494 102 l 2
 495 37 496 33 531 30 c 2
 572 27 l 1
 572 -3 l 1xb8
 522 -1 504 0 489 0 c 0x58
 472 0 456 -1 410 -3 c 1
 410 281 l 2
 410 358 366 408 299 408 c 0
 238 408 172 359 172 314 c 2
 172 102 l 2
 172 37 174 33 209 30 c 2
 254 27 l 1
 254 -3 l 1xb8
 190 -1 162 0 130 0 c 0x58
 98 0 70 -1 6 -3 c 1
 6 27 l 1x98
EndSplineSet
EndChar

StartChar: i
Encoding: 73 105 74
Width: 291
Flags: MW
HStem: -3 20 0 20 576 111<127 155.5>
VStem: 86 111<616.5 645 616.5 646> 104 84<102 327 327 327>
LayerCount: 2
Fore
SplineSet
188 465 m 1x88
 188 102 l 2
 189 36 190 34 225 30 c 2
 271 27 l 1
 271 -3 l 1xa8
 201 -1 172 0 146 0 c 0x48
 120 0 91 -1 21 -3 c 1
 21 27 l 1
 67 30 l 2
 101 33 104 37 104 102 c 2
 104 327 l 2
 103 395 101 399 60 400 c 2
 23 400 l 1
 23 428 l 1
 75 434 130 448 179 469 c 1
 188 465 l 1x88
142 687 m 0
 170 687 197 659 197 631 c 0
 197 602 170 576 141 576 c 0
 112 576 86 602 86 631 c 0xb0
 86 661 112 687 142 687 c 0
EndSplineSet
EndChar

StartChar: j
Encoding: 74 106 75
Width: 234
Flags: MW
HStem: 577 111<97.5 126>
VStem: 56 111<618.5 647.5> 75 84<-7 327 327 327>
LayerCount: 2
Fore
SplineSet
159 465 m 1xa0
 159 -19 l 2
 161 -169 83 -280 -28 -283 c 1
 -40 -245 l 1
 -31 -247 -18 -248 -10 -248 c 0
 48 -248 75 -173 75 -7 c 2
 75 327 l 2
 74 395 72 399 31 400 c 2
 -6 400 l 1
 -6 428 l 1
 46 434 101 448 150 469 c 1
 159 465 l 1xa0
112 688 m 0xc0
 141 688 167 662 167 633 c 0
 167 603 141 577 111 577 c 0
 83 577 56 604 56 633 c 0
 56 662 83 688 112 688 c 0xc0
EndSplineSet
EndChar

StartChar: k
Encoding: 75 107 76
Width: 556
Flags: MW
HStem: -12 20 0 20
VStem: 104 84<102 240 261 620 620 635>
LayerCount: 2
Fore
SplineSet
21 27 m 1x60
 67 30 l 2
 102 33 103 37 104 102 c 2
 104 620 l 2
 104 650 97 661 79 661 c 2
 23 661 l 1
 23 689 l 1
 102 701 135 709 179 726 c 1
 188 718 l 1
 188 261 l 1
 261 320 l 2
 300 351 347 395 411 459 c 1
 511 459 l 1
 511 429 l 1
 476 429 451 418 403 382 c 2
 274 281 l 1
 291 261 302 248 338 213 c 2
 464 88 l 2
 496 57 525 40 549 40 c 1
 549 17 l 1
 453 -12 l 1xa0
 188 240 l 1
 188 102 l 2
 188 37 190 33 225 30 c 2
 269 27 l 1
 269 -3 l 1
 203 -1 176 0 147 0 c 0
 120 0 91 -1 21 -3 c 1
 21 27 l 1x60
EndSplineSet
EndChar

StartChar: l
Encoding: 76 108 77
Width: 291
Flags: MW
HStem: -3 20 0 20
VStem: 104 84<102 620 620 635>
LayerCount: 2
Fore
SplineSet
21 27 m 1xa0
 67 30 l 2
 102 33 103 37 104 102 c 2
 104 620 l 2
 104 650 97 661 79 661 c 2
 23 661 l 1
 23 689 l 1
 102 701 135 709 179 726 c 1
 188 718 l 1
 188 102 l 2
 189 36 190 34 225 30 c 2
 271 27 l 1
 271 -3 l 1xa0
 201 -1 172 0 146 0 c 0x60
 120 0 91 -1 21 -3 c 1
 21 27 l 1xa0
EndSplineSet
EndChar

StartChar: m
Encoding: 77 109 78
Width: 883
Flags: MW
HStem: -3 20 0 20 408 61<316.5 336 617 637>
VStem: 99 84<102 314> 400 84<102 281 281 314 102 319> 701 84<102 281 281 308 102 319>
CounterMasks: 1 1c
LayerCount: 2
Fore
SplineSet
16 27 m 1x9c
 62 30 l 2
 97 33 98 37 99 102 c 2
 99 327 l 2
 98 395 96 399 55 400 c 2
 18 400 l 1
 18 428 l 1
 70 434 125 448 174 469 c 1
 183 465 l 1
 183 380 l 1
 252 444 l 2
 270 461 298 469 335 469 c 0
 405 469 445 443 477 376 c 1
 553 444 l 2
 571 461 599 469 635 469 c 0
 727 469 785 407 785 308 c 2
 785 102 l 2
 786 36 787 34 822 30 c 2
 869 27 l 1
 869 -3 l 1xbc
 814 -1 795 0 780 0 c 0x5c
 763 0 746 -1 701 -3 c 1
 701 281 l 2
 701 357 664 408 610 408 c 0
 550 408 484 359 484 314 c 2
 484 102 l 2
 485 36 486 34 521 30 c 2
 567 27 l 1
 567 -3 l 1xbc
 496 -1 468 0 442 0 c 0x5c
 416 0 387 -1 317 -3 c 1
 317 27 l 1
 363 30 l 2
 397 33 400 37 400 102 c 2
 400 281 l 2
 400 357 363 408 309 408 c 0
 249 408 183 359 183 314 c 2
 183 102 l 2
 183 37 185 33 220 30 c 2
 262 27 l 1
 262 -3 l 1xbc
 201 -1 174 0 143 0 c 0x5c
 114 0 86 -1 16 -3 c 1
 16 27 l 1x9c
EndSplineSet
EndChar

StartChar: n
Encoding: 78 110 79
Width: 582
Flags: MW
HStem: -3 20 0 20 408 61<308.5 332.5>
VStem: 88 84<102 314> 410 84<102 281 281 295 102 319.5>
LayerCount: 2
Fore
SplineSet
410 -3 m 1x98
 410 281 l 2
 410 358 366 408 299 408 c 0
 238 408 172 359 172 314 c 2
 172 102 l 2
 172 37 174 33 209 30 c 2
 254 27 l 1
 254 -3 l 1xb8
 190 -1 162 0 130 0 c 0x58
 98 0 70 -1 6 -3 c 1
 6 27 l 1
 51 30 l 2
 85 33 88 37 88 102 c 2
 88 327 l 2
 87 395 85 399 44 400 c 2
 7 400 l 1
 7 428 l 1
 59 434 114 448 163 469 c 1
 172 465 l 1
 172 378 l 1
 248 444 l 2
 269 463 290 469 327 469 c 0
 439 469 494 412 494 295 c 2
 494 102 l 2
 495 37 496 33 531 30 c 2
 572 27 l 1
 572 -3 l 1xb8
 522 -1 504 0 489 0 c 0x58
 472 0 456 -1 410 -3 c 1x98
EndSplineSet
Substitution2: "'sups' Superscript lookup 3 subtable" nsuperior
Substitution2: "'aalt' Access All Alternates lookup 0 subtable" nsuperior
EndChar

StartChar: o
Encoding: 79 111 80
Width: 546
Flags: MW
HStem: -20 33<240 327> 436 33<217 307.5>
VStem: 32 93<180 291.5> 421 93<162 268>
LayerCount: 2
Fore
SplineSet
279 469 m 0
 416 469 514 373 514 237 c 0
 514 87 404 -20 250 -20 c 0
 120 -20 32 76 32 217 c 0
 32 366 133 469 279 469 c 0
261 436 m 0
 173 436 125 371 125 251 c 0
 125 109 191 13 289 13 c 0
 371 13 421 84 421 200 c 0
 421 336 354 436 261 436 c 0
EndSplineSet
Substitution2: "Single Substitution lookup 21 subtable" ordmasculine
Substitution2: "'aalt' Access All Alternates lookup 0 subtable" ordmasculine
EndChar

StartChar: p
Encoding: 80 112 81
Width: 601
Flags: MW
HStem: -278 20 -12 51<282.5 297> 404 65<327.5 360>
VStem: 91 84<-176 13 98 306> 467 87<239 286>
LayerCount: 2
Fore
SplineSet
8 -251 m 1
 54 -248 l 2
 89 -244 90 -242 91 -176 c 2
 91 327 l 2
 90 395 88 399 47 400 c 2
 10 400 l 1
 10 428 l 1
 62 434 117 448 166 469 c 1
 175 465 l 1
 175 369 l 1
 257 444 l 2
 273 459 309 469 346 469 c 0
 462 469 554 382 554 271 c 0
 554 207 507 104 467 78 c 2
 353 4 l 2
 337 -6 312 -12 282 -12 c 0
 237 -12 206 -5 175 13 c 1
 175 -176 l 2
 176 -242 177 -244 212 -248 c 2
 258 -251 l 1
 258 -281 l 1
 189 -279 160 -278 133 -278 c 0
 106 -278 77 -279 8 -281 c 1
 8 -251 l 1
175 306 m 2
 175 98 l 1
 214 57 255 39 310 39 c 0
 400 39 467 122 467 234 c 0
 467 338 407 404 313 404 c 0
 264 404 222 385 193 348 c 0
 180 331 175 320 175 306 c 2
EndSplineSet
EndChar

StartChar: q
Encoding: 81 113 82
Width: 560
Flags: MW
HStem: -278 20 -12 57<226.5 249.5> 0 20 422 47<280.5 298.5>
VStem: 35 87<187.5 247.5> 393 84<-176 66 66 66 120 318 -176 381 -176 381>
LayerCount: 2
Fore
SplineSet
298 -251 m 1xdc
 356 -248 l 2
 391 -244 392 -242 393 -176 c 2
 393 66 l 1
 289 0 l 2x2c
 276 -8 260 -12 239 -12 c 0
 114 -12 35 72 35 204 c 0
 35 291 68 357 132 398 c 2
 216 452 l 2
 231 462 266 469 295 469 c 0
 339 469 382 459 432 436 c 1
 481 467 l 1
 500 456 l 1
 485 424 478 382 477 318 c 2
 477 -176 l 2
 478 -242 479 -244 514 -248 c 2
 560 -251 l 1
 560 -281 l 1
 495 -279 466 -278 437 -278 c 0
 410 -278 378 -279 298 -281 c 1
 298 -251 l 1xdc
393 120 m 2x5c
 393 381 l 1
 358 410 323 422 274 422 c 0
 178 422 122 358 122 248 c 0
 122 127 182 45 271 45 c 0
 295 45 318 52 342 65 c 0
 369 80 393 106 393 120 c 2x5c
EndSplineSet
EndChar

StartChar: r
Encoding: 82 114 83
Width: 395
Flags: MW
HStem: -3 20 0 20 384 85<179 292>
VStem: 104 84<102 274>
LayerCount: 2
Fore
SplineSet
21 27 m 1x90
 67 30 l 2
 102 33 103 37 104 102 c 2
 104 327 l 2
 103 395 101 399 60 400 c 2
 23 400 l 1
 23 428 l 1
 75 434 130 448 179 469 c 1
 188 465 l 1
 188 362 l 1
 244 428 l 2
 265 453 297 469 327 469 c 0
 345 469 362 465 374 458 c 1
 365 338 l 1
 344 338 l 1
 328 370 307 384 277 384 c 0
 228 384 188 335 188 274 c 2
 188 102 l 2
 188 34 189 33 235 30 c 2
 287 27 l 1
 287 -3 l 1xb0
 205 -1 168 0 144 0 c 0x50
 116 0 87 -1 21 -3 c 1
 21 27 l 1x90
EndSplineSet
EndChar

StartChar: s
Encoding: 83 115 84
Width: 424
Flags: MW
HStem: -20 37<159.5 231.5 159.5 232.5> 436 33<172 237>
VStem: 37 70<335 369> 317 74<98.5 128.5>
LayerCount: 2
Fore
SplineSet
41 143 m 1
 71 143 l 1
 71 102 l 2
 71 52 123 17 196 17 c 0
 267 17 317 55 317 109 c 0
 317 148 298 168 253 178 c 0
 185 193 132 209 105 221 c 0
 59 243 37 275 37 324 c 0
 37 414 108 469 224 469 c 0
 266 469 300 462 354 444 c 1
 351 413 350 389 349 331 c 1
 321 331 l 1
 321 354 l 2
 321 401 271 436 203 436 c 0
 141 436 107 408 107 358 c 0
 107 312 134 292 216 276 c 0
 305 259 337 247 363 222 c 0
 382 202 391 180 391 148 c 0
 391 49 298 -20 167 -20 c 0
 121 -20 83 -13 30 4 c 1
 38 44 41 74 41 143 c 1
EndSplineSet
Substitution2: "'hist' Historical Forms lookup 18 subtable" longs
Substitution2: "'aalt' Access All Alternates lookup 0 subtable" longs
EndChar

StartChar: t
Encoding: 84 116 85
Width: 326
Flags: MW
HStem: -12 63<217.5 219.5> 0 20
VStem: 98 84<95.5 120 120 382>
LayerCount: 2
Fore
SplineSet
98 382 m 1xa0
 22 378 l 1
 22 399 l 1
 100 434 l 1
 100 504 l 2
 100 535 99 555 96 583 c 1
 127 593 156 606 181 621 c 1
 193 610 l 1
 185 552 182 509 182 468 c 2
 182 430 l 1
 319 436 l 1
 310 382 l 1
 182 382 l 1
 182 120 l 2
 182 71 198 51 237 51 c 0xa0
 257 51 270 55 296 70 c 1
 309 53 l 1
 261 0 l 2x60
 255 -7 231 -12 208 -12 c 0
 131 -12 98 20 98 94 c 2
 98 382 l 1xa0
EndSplineSet
EndChar

StartChar: u
Encoding: 85 117 86
Width: 603
Flags: MW
HStem: -12 61<211.5 302.5> 0 20 449 20<174 174 494 494>
VStem: 99 84<159 170 170 327 327 327> 419 84<74 89 164 327 327 327>
LayerCount: 2
Fore
SplineSet
503 465 m 1xb8
 503 102 l 2
 503 37 505 33 540 30 c 2
 581 27 l 1
 581 -3 l 1
 531 -1 513 0 498 0 c 0x58
 482 0 466 -1 415 -3 c 1
 418 41 419 59 419 89 c 1
 352 27 l 2
 324 2 286 -12 240 -12 c 0
 183 -12 145 3 123 33 c 0
 105 58 99 89 99 159 c 2
 99 327 l 2
 98 395 96 399 55 400 c 2
 18 400 l 1
 18 428 l 1
 70 434 125 448 174 469 c 1
 183 465 l 1
 183 170 l 2
 183 126 190 95 204 79 c 0
 220 60 248 49 283 49 c 0
 322 49 354 63 382 91 c 0
 405 114 419 142 419 164 c 2
 419 327 l 2
 418 395 416 399 375 400 c 2
 338 400 l 1
 338 428 l 1
 390 434 445 448 494 469 c 1
 503 465 l 1xb8
EndSplineSet
EndChar

StartChar: v
Encoding: 86 118 87
Width: 565
Flags: MW
HStem: -7 20
LayerCount: 2
Fore
SplineSet
539 431 m 1
 508 429 l 2
 489 427 474 409 452 362 c 2
 334 102 l 2
 326 82 312 45 293 -7 c 1
 243 -7 l 1
 71 396 l 2
 60 421 55 427 40 429 c 2
 6 431 l 1
 6 459 l 1
 71 457 97 456 121 456 c 0
 145 456 173 457 239 459 c 1
 239 431 l 1
 190 429 l 2
 174 428 165 422 165 410 c 0
 165 399 168 386 174 372 c 2
 293 84 l 1
 331 167 343 195 355 224 c 2
 397 330 l 2
 410 362 416 386 416 403 c 0
 416 420 408 428 392 429 c 2
 351 431 l 1
 351 459 l 1
 404 457 426 456 445 456 c 0
 464 456 486 457 539 459 c 1
 539 431 l 1
EndSplineSet
EndChar

StartChar: w
Encoding: 87 119 88
Width: 834
Flags: MW
HStem: -7 20 449 20<413 436 436 436>
LayerCount: 2
Fore
SplineSet
413 469 m 1
 436 469 l 1
 444 442 451 423 465 388 c 2
 580 98 l 1
 611 177 620 200 628 222 c 2
 678 362 l 2
 683 375 685 387 685 398 c 0
 685 416 671 428 646 429 c 2
 612 431 l 1
 612 459 l 1
 668 457 691 456 710 456 c 0
 729 456 752 457 808 459 c 1
 808 431 l 1
 782 429 l 2
 760 426 748 409 718 342 c 2
 650 186 l 2
 646 179 624 118 604 59 c 0
 597 40 590 19 581 -7 c 1
 535 -7 l 1
 399 335 l 1
 357 245 356 243 347 223 c 2
 249 -7 l 1
 202 -7 l 1
 100 329 l 2
 75 407 62 427 34 429 c 2
 6 431 l 1
 6 459 l 1
 74 457 102 456 125 456 c 0
 148 456 176 457 244 459 c 1
 244 431 l 1
 204 429 l 2
 179 428 166 420 166 405 c 0
 166 397 167 389 170 380 c 2
 254 104 l 1
 318 247 330 275 413 469 c 1
EndSplineSet
EndChar

StartChar: x
Encoding: 88 120 89
Width: 516
Flags: MW
HStem: -3 20 0 20 449 20
LayerCount: 2
Fore
SplineSet
288 254 m 1x60
 436 54 l 2
 447 39 459 31 471 30 c 2
 496 27 l 1
 496 -3 l 1x80
 458 -1 445 0 434 0 c 0x40
 423 0 411 -1 373 -3 c 1x80
 364 4 357 14 347 30 c 2
 240 192 l 1
 166 94 l 2
 159 85 143 61 127 33 c 0
 115 15 113 11 106 0 c 1
 20 0 l 1
 20 27 l 1
 37 27 l 2
 47 27 60 33 67 42 c 2
 216 218 l 1
 96 392 l 2
 87 406 63 420 46 421 c 2
 25 423 l 1
 20 449 l 1
 136 469 l 1
 171 434 181 423 196 400 c 2
 272 284 l 1
 396 459 l 1
 478 459 l 1
 478 431 l 1
 464 431 l 2
 446 431 436 427 430 420 c 2
 288 254 l 1x60
EndSplineSet
EndChar

StartChar: y
Encoding: 89 121 90
Width: 556
Flags: MW
HStem: -283 67<107 114.5>
LayerCount: 2
Fore
SplineSet
297 86 m 1
 416 378 l 2
 420 388 422 397 422 404 c 0
 422 418 408 427 380 429 c 2
 354 431 l 1
 354 459 l 1
 408 457 431 456 449 456 c 0
 467 456 490 457 544 459 c 1
 544 431 l 1
 516 429 l 2
 491 426 472 399 432 308 c 2
 229 -160 l 2
 191 -247 148 -283 81 -283 c 0
 62 -283 46 -279 27 -268 c 1
 51 -193 l 1
 64 -193 l 1
 80 -207 99 -216 115 -216 c 0
 153 -216 192 -170 224 -85 c 2
 247 -24 l 1
 229 26 219 50 191 118 c 2
 82 380 l 2
 67 415 55 427 30 429 c 2
 12 431 l 1
 12 459 l 1
 79 457 105 456 128 456 c 0
 151 456 178 457 244 459 c 1
 244 431 l 1
 206 429 l 2
 184 428 173 420 173 406 c 0
 173 394 176 380 182 364 c 2
 246 196 l 2
 264 147 275 124 297 86 c 1
EndSplineSet
EndChar

StartChar: z
Encoding: 90 122 91
Width: 500
Flags: MW
HStem: -3 20<16 22> 0 35<154 195> 424 35<294 335 294 341>
LayerCount: 2
Fore
SplineSet
455 432 m 1xa0
 141 35 l 1
 276 35 l 2x40
 378 36 413 42 418 60 c 2
 436 139 l 1
 466 139 l 1
 460 92 l 2
 453 45 451 20 451 -3 c 1x80
 305 -1 214 0 176 0 c 0x40
 132 0 97 -1 22 -3 c 1
 16 17 l 1
 67 75 81 92 106 122 c 2
 276 334 l 2
 303 368 320 391 341 424 c 1
 198 424 l 2
 121 423 107 419 102 398 c 2
 90 330 l 1
 60 330 l 1
 66 399 67 411 69 462 c 1
 192 460 274 459 314 459 c 0
 356 459 388 460 455 462 c 1
 455 432 l 1xa0
EndSplineSet
EndChar

StartChar: braceleft
Encoding: 91 123 92
Width: 333
Flags: MW
VStem: 134 72<-17 128 392 409 409 578 578 578>
LayerCount: 2
Fore
SplineSet
206 595 m 2
 206 409 l 2
 206 321 187 291 122 273 c 1
 188 254 206 223 206 128 c 2
 206 -45 l 2
 206 -124 230 -161 289 -175 c 1
 167 -175 136 -143 134 -17 c 2
 134 151 l 2
 134 231 119 254 58 273 c 1
 116 291 134 320 134 392 c 2
 134 578 l 2
 136 691 172 726 289 726 c 1
 228 707 206 673 206 595 c 2
EndSplineSet
EndChar

StartChar: bar
Encoding: 92 124 93
Width: 606
Flags: MW
VStem: 275 56<-244 750 -244 750>
LayerCount: 2
Fore
SplineSet
275 -244 m 1
 275 750 l 1
 331 750 l 1
 331 -244 l 1
 275 -244 l 1
EndSplineSet
EndChar

StartChar: braceright
Encoding: 93 125 94
Width: 333
Flags: MW
VStem: 127 72<-17 128 128 151 -17 176 409 578>
LayerCount: 2
Fore
SplineSet
199 151 m 2
 199 -17 l 2
 197 -143 166 -175 44 -175 c 1
 103 -161 127 -124 127 -45 c 2
 127 128 l 2
 127 224 144 254 211 273 c 1
 146 291 127 322 127 409 c 2
 127 595 l 2
 127 673 105 707 44 726 c 1
 160 726 197 691 199 578 c 2
 199 392 l 2
 199 320 217 291 275 273 c 1
 213 254 199 231 199 151 c 2
EndSplineSet
EndChar

StartChar: asciitilde
Encoding: 94 126 95
Width: 606
Flags: MW
HStem: 201 56<405.5 434 405.5 442> 272 57<171 203>
LayerCount: 2
Fore
SplineSet
521 341 m 1
 555 314 l 1
 512 236 468 201 416 201 c 0
 391 201 366 209 287 243 c 0
 224 269 215 272 191 272 c 0
 151 272 125 250 85 182 c 1
 51 209 l 1
 100 296 138 329 190 329 c 0
 221 329 247 321 318 290 c 0
 380 262 396 257 415 257 c 0
 453 257 489 286 521 341 c 1
EndSplineSet
EndChar

StartChar: exclamdown
Encoding: 96 161 96
Width: 278
Flags: MW
HStem: 353 116<123 153>
VStem: 81 116<395.5 425.5 395 426>
LayerCount: 2
Fore
SplineSet
115 -225 m 1
 81 -225 l 1
 81 -200 l 2
 81 -174 83 -153 88 -105 c 0
 91 -79 92 -68 93 -57 c 2
 117 221 l 1
 117 246 l 1
 145 269 l 1
 155 264 l 1
 155 251 155 249 157 224 c 2
 183 -81 l 2
 185 -109 187 -137 190 -187 c 1
 115 -225 l 1
138 469 m 0
 169 469 197 441 197 410 c 0
 197 380 169 353 137 353 c 0
 108 353 81 380 81 411 c 0
 81 441 108 469 138 469 c 0
EndSplineSet
EndChar

StartChar: cent
Encoding: 97 162 97
Width: 500
Flags: MW
HStem: -14 50<271.5 343.5> 0 20<428 428>
VStem: 61 89<213 269.5>
LayerCount: 2
Fore
SplineSet
347 411 m 1xa0
 241 58 l 1
 270 42 294 36 326 36 c 0xa0
 361 36 390 43 439 64 c 1
 448 53 l 1
 428 20 l 1x60
 377 -5 337 -14 283 -14 c 0
 260 -14 245 -13 221 -9 c 1
 193 -101 l 1
 152 -101 l 1
 184 3 l 1
 142 25 122 42 100 74 c 0
 75 111 61 163 61 222 c 0
 61 317 95 382 163 416 c 2
 243 456 l 2
 261 465 287 470 325 470 c 1
 352 562 l 1
 392 562 l 1
 365 470 l 1
 391 469 418 460 445 444 c 1
 437 395 434 360 434 314 c 1
 406 314 l 1
 397 380 l 1
 384 394 372 401 347 411 c 1xa0
208 84 m 1
 309 419 l 1
 287 423 278 424 270 424 c 0
 194 424 150 361 150 250 c 0
 150 176 168 125 208 84 c 1
EndSplineSet
EndChar

StartChar: sterling
Encoding: 98 163 98
Width: 500
Flags: MW
HStem: -13 20 -10 79<405.5 417.5 405.5 431> 647 47<350.5 353>
VStem: 108 84<286 443 316 443 355 443 354 461 354 493.5>
LayerCount: 2
Fore
SplineSet
374 360 m 1xb0
 370 312 l 1
 274 315 256 316 189 317 c 1
 184 230 157 158 95 69 c 1
 135 74 169 76 228 76 c 2
 385 70 l 2
 395 69 403 69 408 69 c 0
 427 69 433 77 437 106 c 2
 444 158 l 1
 470 158 l 1
 470 10 l 1
 449 -7 442 -10 420 -10 c 0x50
 359 -10 298 -3 241 9 c 0
 185 22 144 28 79 32 c 1
 34 -13 l 1
 12 -13 l 1
 12 36 l 1
 21 45 35 55 50 63 c 1
 81 66 109 175 108 286 c 2
 108 316 l 1
 12 313 l 1
 20 358 l 1
 63 357 69 357 108 355 c 1
 108 461 l 2
 108 526 141 581 207 629 c 0
 270 674 322 694 379 694 c 0
 420 694 445 687 478 668 c 1
 471 632 468 600 468 566 c 0
 468 559 468 547 469 532 c 1
 436 532 l 1
 435 590 429 611 409 627 c 0
 392 640 367 647 339 647 c 0
 277 647 241 625 216 573 c 0
 200 539 192 495 192 443 c 2
 192 354 l 1
 374 360 l 1xb0
EndSplineSet
EndChar

StartChar: fraction
Encoding: 589 8260 99
Width: 167
Flags: MW
HStem: 0 20
LayerCount: 2
Fore
SplineSet
-114 0 m 1
 -166 0 l 1
 285 689 l 1
 337 689 l 1
 -114 0 l 1
EndSplineSet
EndChar

StartChar: yen
Encoding: 100 165 100
Width: 500
Flags: MW
HStem: -3 20 0 20 207 39<71 227 71 227 300 456> 343 39<71 182 71 200 71 182 334 456> 681 20<104.5 119.5>
VStem: 227 73<120 207 120 207 246 262 262 269.5>
LayerCount: 2
Fore
SplineSet
334 382 m 1xbc
 456 382 l 1
 456 343 l 1
 317 343 l 1
 305 316 300 297 300 278 c 2
 300 246 l 1
 456 246 l 1
 456 207 l 1
 300 207 l 1
 300 120 l 2
 301 40 305 32 344 30 c 2
 385 27 l 1
 385 -3 l 1xb4
 334 -1 303 0 255 0 c 0x44
 209 0 183 -1 142 -3 c 1
 142 27 l 1
 183 30 l 2
 222 32 226 40 227 120 c 2
 227 207 l 1
 71 207 l 1
 71 246 l 1
 227 246 l 1
 227 262 l 2
 227 277 226 282 221 293 c 2
 200 343 l 1
 71 343 l 1
 71 382 l 1
 182 382 l 1
 107 542 l 2
 65 633 47 652 5 650 c 1
 5 679 l 1
 97 700 l 2
 100 701 103 701 106 701 c 0
 133 701 146 685 167 625 c 0
 172 611 173 606 175 602 c 2
 279 341 l 1
 349 504 l 2
 387 592 391 602 426 694 c 1
 496 694 l 1
 496 679 l 1
 452 617 410 543 366 450 c 2
 334 382 l 1xbc
EndSplineSet
EndChar

StartChar: florin
Encoding: 319 402 101
Width: 500
Flags: MW
HStem: 686 20
LayerCount: 2
Fore
SplineSet
311 364 m 1
 239 16 l 2
 201 -167 120 -261 0 -262 c 1
 8 -227 11 -205 15 -173 c 1
 26 -166 l 1
 40 -180 54 -186 72 -186 c 0
 109 -186 125 -156 145 -52 c 2
 225 364 l 1
 171 361 153 360 117 359 c 1
 127 412 l 1
 234 408 l 1
 276 602 355 701 473 706 c 1
 465 677 462 655 459 614 c 1
 449 606 l 2
 446 607 445 608 441 613 c 0
 427 625 416 630 400 630 c 0
 369 630 357 613 347 558 c 2
 320 408 l 1
 425 412 l 1
 420 383 418 373 416 358 c 1
 383 361 358 363 311 364 c 1
EndSplineSet
EndChar

StartChar: section
Encoding: 102 167 102
Width: 500
Flags: MW
HStem: -219 52<200 263.5> 657 52<220.5 269.5>
VStem: 26 66<255.5 269.5> 51 58<521.5 546> 384 63<-50.5 -29.5> 399 66<226 242.5>
LayerCount: 2
Fore
SplineSet
403 521 m 1xd0
 372 521 l 1
 367 608 l 1
 325 644 293 657 246 657 c 0
 166 657 109 607 109 537 c 0
 109 506 121 484 150 465 c 0
 173 448 196 439 287 410 c 0
 420 367 465 328 465 253 c 0xd4
 465 199 443 159 387 111 c 1
 429 88 447 57 447 7 c 0
 447 -108 326 -219 201 -219 c 0
 149 -219 96 -204 44 -175 c 1
 51 -111 54 -74 56 -18 c 1
 88 -18 l 1
 93 -108 l 1
 134 -152 169 -167 231 -167 c 0
 325 -167 384 -121 384 -47 c 0
 384 -12 370 14 338 36 c 0
 314 53 289 63 205 90 c 0
 69 134 26 171 26 243 c 0xe8
 26 296 53 341 109 382 c 1
 70 412 51 445 51 485 c 0
 51 607 157 709 284 709 c 0
 333 709 371 699 416 673 c 1
 408 616 405 578 403 521 c 1xd0
135 369 m 1
 104 341 92 316 92 282 c 0xe0
 92 229 141 195 281 153 c 0
 329 138 340 134 365 123 c 1
 390 162 399 186 399 213 c 0
 399 272 359 301 225 339 c 0
 173 354 163 358 135 369 c 1
EndSplineSet
EndChar

StartChar: currency
Encoding: 99 164 103
Width: 500
Flags: MW
HStem: 102 59<223 276.5> 465 59<226 274 226 293.5>
VStem: 37 59<288 339> 404 59<288 339 288 354>
LayerCount: 2
Fore
SplineSet
77 531 m 1
 125 483 l 1
 162 511 202 524 250 524 c 0
 298 524 338 511 375 483 c 1
 423 531 l 1
 470 484 l 1
 421 435 l 1
 451 400 463 365 463 313 c 0
 463 263 451 228 421 190 c 1
 470 141 l 1
 425 96 l 1
 377 144 l 1
 339 114 303 102 250 102 c 0
 196 102 161 114 123 144 c 1
 75 96 l 1
 30 141 l 1
 79 190 l 1
 49 228 37 263 37 313 c 0
 37 365 49 401 79 435 c 1
 30 484 l 1
 77 531 l 1
253 465 m 0
 166 465 96 398 96 314 c 0
 96 229 165 161 250 161 c 0
 335 161 404 229 404 313 c 0
 404 395 334 465 253 465 c 0
EndSplineSet
EndChar

StartChar: quotesingle
Encoding: 7 39 104
Width: 208
Flags: MW
HStem: 689 20<93 114.5>
LayerCount: 2
Fore
SplineSet
114 469 m 1
 94 469 l 1
 61 665 l 1
 61 670 l 2
 61 690 82 709 104 709 c 0
 125 709 147 690 147 670 c 0
 147 669 147 667 146 665 c 2
 114 469 l 1
EndSplineSet
EndChar

StartChar: quotedblleft
Encoding: 575 8220 105
Width: 500
Flags: MW
HStem: 689 20<224 224 434 434>
LayerCount: 2
Fore
SplineSet
180 685 m 1
 224 709 l 1
 239 699 l 1
 191 623 167 555 161 476 c 1
 110 461 100 458 64 446 c 1
 51 459 l 1
 84 544 123 613 180 685 c 1
390 685 m 1
 434 709 l 1
 449 699 l 1
 401 623 377 555 371 476 c 1
 320 461 310 458 274 446 c 1
 261 459 l 1
 294 544 333 613 390 685 c 1
EndSplineSet
EndChar

StartChar: guillemotleft
Encoding: 106 171 106
Width: 500
Flags: W
LayerCount: 2
Fore
SplineSet
130 248 m 1
 249 86 l 1
 226 71 l 1
 50 242 l 1
 50 254 l 1
 226 428 l 1
 249 415 l 1
 130 248 l 1
331 248 m 1
 450 86 l 1
 427 71 l 1
 251 242 l 1
 251 254 l 1
 427 428 l 1
 450 415 l 1
 331 248 l 1
EndSplineSet
EndChar

StartChar: guilsinglleft
Encoding: 585 8249 107
Width: 331
Flags: W
LayerCount: 2
Fore
SplineSet
146 248 m 1
 265 86 l 1
 242 71 l 1
 66 242 l 1
 66 254 l 1
 242 428 l 1
 265 415 l 1
 146 248 l 1
EndSplineSet
EndChar

StartChar: guilsinglright
Encoding: 586 8250 108
Width: 331
Flags: W
LayerCount: 2
Fore
SplineSet
66 86 m 1
 185 248 l 1
 66 415 l 1
 89 428 l 1
 265 254 l 1
 265 242 l 1
 89 71 l 1
 66 86 l 1
EndSplineSet
EndChar

StartChar: fi
Encoding: 850 64257 109
Width: 605
Flags: MW
HStem: -3 20 0 20 576 111<452 480.5> 662 66<231.5 301.5>
VStem: 106 84<102 385 102 385 434 476 476 476> 411 111<616.5 645 616.5 646> 420 84<102 325 325 325>
LayerCount: 2
Fore
SplineSet
341 717 m 1x9a
 341 640 l 1
 329 634 l 1
 305 655 287 662 260 662 c 0
 203 662 190 635 190 519 c 2
 190 434 l 1
 311 438 l 1
 304 385 l 1
 190 385 l 1
 190 102 l 2
 191 37 192 34 227 30 c 2
 279 27 l 1
 279 -3 l 1x9a
 207 -1 176 0 149 0 c 0x4a
 122 0 93 -1 23 -3 c 1
 23 27 l 1
 69 30 l 2
 103 33 106 37 106 102 c 2
 106 385 l 1
 37 381 l 1
 37 403 l 1
 106 434 l 1
 106 476 l 2
 107 546 119 587 148 620 c 2
 206 686 l 2
 229 712 263 728 294 728 c 0
 309 728 321 725 341 717 c 1x9a
504 462 m 1
 504 102 l 2
 505 36 506 34 541 30 c 2
 587 27 l 1
 587 -3 l 1xaa
 516 -1 488 0 462 0 c 0x4a
 436 0 407 -1 337 -3 c 1
 337 27 l 1
 383 30 l 2
 417 33 420 37 420 102 c 2
 420 325 l 2
 419 393 417 397 376 398 c 2
 339 398 l 1
 339 426 l 1
 396 432 451 447 495 469 c 1
 504 462 l 1
467 687 m 0
 495 687 522 659 522 631 c 0
 522 602 495 576 466 576 c 0
 437 576 411 602 411 631 c 0xa4
 411 661 437 687 467 687 c 0
EndSplineSet
Ligature2: "'liga' Standard Ligatures in Latin lookup 15 subtable" f i
EndChar

StartChar: fl
Encoding: 851 64258 110
Width: 608
Flags: MW
HStem: -3 20 0 20 662 66<231.5 299>
VStem: 106 84<102 385 102 385 434 476 476 476> 423 84<102 606 606 624.5>
LayerCount: 2
Fore
SplineSet
340 27 m 1x98
 386 30 l 2
 421 33 422 37 423 102 c 2
 423 606 l 2
 423 643 415 661 398 661 c 2
 356 661 l 1
 356 640 l 1
 334 634 l 1
 304 655 286 662 260 662 c 0
 203 662 190 634 190 519 c 2
 190 434 l 1
 321 438 l 1
 314 385 l 1
 190 385 l 1
 190 102 l 2
 191 37 192 34 227 30 c 2
 279 27 l 1
 279 -3 l 1xb8
 207 -1 176 0 149 0 c 0x58
 122 0 93 -1 23 -3 c 1
 23 27 l 1
 69 30 l 2
 103 33 106 37 106 102 c 2
 106 385 l 1
 37 381 l 1
 37 403 l 1
 106 434 l 1
 106 476 l 2
 107 546 119 587 148 620 c 2
 206 686 l 2
 229 712 263 728 294 728 c 0
 304 728 313 727 334 722 c 0
 343 720 345 719 356 717 c 1
 356 689 l 1
 424 703 456 711 498 726 c 1
 507 716 l 1
 507 102 l 2
 508 36 509 34 544 30 c 2
 590 27 l 1
 590 -3 l 1xb8
 520 -1 491 0 465 0 c 0x58
 439 0 410 -1 340 -3 c 1
 340 27 l 1x98
EndSplineSet
Ligature2: "'liga' Standard Ligatures in Latin lookup 16 subtable" f l
EndChar

StartChar: endash
Encoding: 567 8211 111
Width: 500
Flags: MW
HStem: 219 58<0 500 0 500>
LayerCount: 2
Fore
SplineSet
500 219 m 1
 0 219 l 1
 0 277 l 1
 500 277 l 1
 500 219 l 1
EndSplineSet
EndChar

StartChar: dagger
Encoding: 578 8224 112
Width: 500
Flags: MW
HStem: -5 20 -1 20 0 20 397 63<154 213 154 213 287 346> 674 20<205 205 295 295>
VStem: 213 74<319 397 460 512>
LayerCount: 2
Fore
SplineSet
39 467 m 1x34
 58 466 l 2
 66 466 81 465 98 463 c 0
 130 460 138 460 154 460 c 2
 213 460 l 1
 213 512 l 2
 213 553 211 570 202 667 c 2
 200 689 l 1
 205 694 l 1
 243 691 243 691 250 691 c 0
 257 691 257 691 295 694 c 1
 300 689 l 1
 298 667 l 2
 290 587 287 546 287 512 c 2
 287 460 l 1
 346 460 l 1
 461 467 l 1
 466 462 l 1
 464 447 463 440 463 428 c 0
 463 416 464 410 466 395 c 1
 461 390 l 1
 442 391 l 2
 432 392 416 393 397 394 c 0
 368 397 361 397 346 397 c 2
 287 397 l 1
 287 319 l 2
 287 164 289 100 294 26 c 2
 296 0 l 1x3c
 291 -5 l 1x84
 269 -2 260 -1 250 -1 c 0x44
 240 -1 231 -2 209 -5 c 1x84
 204 0 l 1
 206 26 l 2
 211 97 213 168 213 319 c 2
 213 397 l 1
 154 397 l 1
 39 390 l 1
 34 395 l 1
 36 410 37 416 37 428 c 0
 37 440 36 447 34 462 c 1
 39 467 l 1x34
EndSplineSet
EndChar

StartChar: daggerdbl
Encoding: 579 8225 113
Width: 500
Flags: MW
HStem: -38 63<129 213 138 213 287 362> 420 63<130 213 138 213 287 362> 674 20<205 205 295 295>
VStem: 213 74<-85 -38 -104 -38 25 47.5 397.5 420 483 530>
LayerCount: 2
Fore
SplineSet
34 485 m 1
 39 490 l 1
 63 488 72 487 86 486 c 0
 113 484 120 483 138 483 c 2
 213 483 l 1
 213 530 l 2
 213 553 210 590 202 670 c 2
 200 689 l 1
 205 694 l 1
 243 691 243 691 250 691 c 0
 257 691 257 691 295 694 c 1
 300 689 l 1
 298 670 l 1
 296 653 l 2
 290 597 287 562 287 530 c 2
 287 483 l 1
 362 483 l 2
 378 483 385 484 414 486 c 0
 429 488 438 488 461 490 c 1
 466 485 l 1
 464 471 463 465 463 453 c 0
 463 441 464 433 466 418 c 1
 461 413 l 1
 440 415 431 415 414 417 c 0
 388 419 380 420 362 420 c 2
 287 420 l 1
 287 375 289 307 292 272 c 0
 294 246 295 228 295 223 c 0
 295 218 294 200 292 173 c 0
 289 139 287 70 287 25 c 1
 362 25 l 2
 379 25 385 25 414 28 c 0
 429 29 437 30 461 32 c 1
 466 27 l 1
 464 13 463 7 463 -5 c 0
 463 -17 464 -25 466 -40 c 1
 461 -45 l 1
 438 -43 428 -42 414 -41 c 0
 386 -39 379 -38 362 -38 c 2
 287 -38 l 1
 287 -85 l 2
 287 -123 289 -150 298 -225 c 2
 300 -244 l 1
 295 -249 l 1
 257 -246 257 -246 250 -246 c 0
 243 -246 243 -246 205 -249 c 1
 200 -244 l 1
 202 -225 l 2
 210 -145 213 -112 213 -85 c 2
 213 -38 l 1
 138 -38 l 2
 120 -38 115 -38 86 -41 c 0
 72 -42 62 -43 39 -45 c 1
 34 -40 l 1
 36 -25 37 -17 37 -5 c 0
 37 7 36 13 34 27 c 1
 39 32 l 1
 63 30 72 29 86 28 c 0
 114 25 121 25 138 25 c 2
 213 25 l 1
 213 72 211 141 208 173 c 0
 206 200 205 218 205 223 c 0
 205 228 206 246 208 272 c 0
 211 305 213 373 213 420 c 1
 138 420 l 2
 122 420 115 419 86 417 c 0
 68 415 60 415 39 413 c 1
 34 418 l 1
 36 433 37 441 37 453 c 0
 37 465 36 471 34 485 c 1
EndSplineSet
EndChar

StartChar: periodcentered
Encoding: 118 183 114
Width: 250
Flags: MW
HStem: 203 116<109 139>
VStem: 67 116<245.5 275.5 245 276>
LayerCount: 2
Fore
SplineSet
124 319 m 0
 155 319 183 291 183 260 c 0
 183 230 155 203 123 203 c 0
 94 203 67 230 67 261 c 0
 67 291 94 319 124 319 c 0
EndSplineSet
EndChar

StartChar: paragraph
Encoding: 117 182 115
Width: 628
Flags: MW
HStem: -147 27<357.5 416.5> 655 34<394 421> 656 39<164.5 267>
VStem: 39 111<514.5 563.5 489 587> 280 73<-27 345 345 345 382 655 -120 655> 421 73<-27 574 -27 655>
LayerCount: 2
Fore
SplineSet
589 694 m 1x5c
 589 664 l 1
 557 661 l 2
 504 655 496 643 494 574 c 2
 494 -27 l 2
 495 -103 501 -113 547 -117 c 2
 589 -120 l 1
 589 -150 l 1
 492 -148 446 -147 387 -147 c 0
 328 -147 282 -148 185 -150 c 1
 185 -120 l 1
 227 -117 l 2
 273 -113 279 -103 280 -27 c 2
 280 345 l 1
 206 350 163 365 114 402 c 0
 65 439 39 487 39 542 c 0
 39 632 112 695 217 695 c 0xbc
 228 695 250 694 276 693 c 0
 312 690 370 689 418 689 c 0
 474 689 518 690 589 694 c 1x5c
280 382 m 1
 280 655 l 1xdc
 274 656 268 656 266 656 c 0
 199 656 150 601 150 526 c 0
 150 452 196 401 280 382 c 1
421 655 m 1
 353 655 l 1
 353 -120 l 1
 421 -120 l 1
 421 655 l 1
EndSplineSet
EndChar

StartChar: bullet
Encoding: 580 8226 116
Width: 606
Flags: MW
HStem: 205 284<266.5 344.5 266 345>
VStem: 163 284<308 386>
LayerCount: 2
Fore
SplineSet
305 489 m 0
 384 489 447 426 447 347 c 0
 447 269 384 205 306 205 c 0
 227 205 163 268 163 347 c 0
 163 425 227 489 305 489 c 0
EndSplineSet
EndChar

StartChar: quotesinglbase
Encoding: 573 8218 117
Width: 278
Flags: W
LayerCount: 2
Fore
SplineSet
197 110 m 1
 210 97 l 1
 176 11 138 -56 81 -129 c 1
 37 -153 l 1
 22 -143 l 1
 70 -66 94 1 100 80 c 1
 151 95 161 98 197 110 c 1
EndSplineSet
EndChar

StartChar: quotedblbase
Encoding: 577 8222 118
Width: 500
Flags: W
LayerCount: 2
Fore
SplineSet
226 110 m 1
 239 97 l 1
 205 11 167 -56 110 -129 c 1
 66 -153 l 1
 51 -143 l 1
 99 -66 123 1 129 80 c 1
 180 95 190 98 226 110 c 1
436 110 m 1
 449 97 l 1
 415 11 377 -56 320 -129 c 1
 276 -153 l 1
 261 -143 l 1
 309 -66 332 0 339 80 c 1
 390 95 400 98 436 110 c 1
EndSplineSet
EndChar

StartChar: quotedblright
Encoding: 576 8221 119
Width: 500
Flags: MW
HStem: 689 20<226 226 436 436>
LayerCount: 2
Fore
SplineSet
110 470 m 1
 66 446 l 1
 51 456 l 1
 99 533 123 599 129 679 c 1
 180 694 190 697 226 709 c 1
 239 696 l 1
 205 610 167 543 110 470 c 1
320 470 m 1
 276 446 l 1
 261 456 l 1
 309 533 332 598 339 679 c 1
 390 694 400 697 436 709 c 1
 449 696 l 1
 415 610 377 543 320 470 c 1
EndSplineSet
EndChar

StartChar: guillemotright
Encoding: 122 187 120
Width: 500
Flags: W
LayerCount: 2
Fore
SplineSet
251 86 m 1
 370 248 l 1
 251 415 l 1
 274 428 l 1
 450 254 l 1
 450 242 l 1
 274 71 l 1
 251 86 l 1
50 86 m 1
 169 248 l 1
 50 415 l 1
 73 428 l 1
 249 254 l 1
 249 242 l 1
 73 71 l 1
 50 86 l 1
EndSplineSet
EndChar

StartChar: ellipsis
Encoding: 581 8230 121
Width: 1000
Flags: MW
HStem: -5 116<151 181 484 514 817 847>
VStem: 109 116<37.5 68> 442 116<37.5 68> 775 116<38 68>
CounterMasks: 1 70
LayerCount: 2
Fore
SplineSet
499 111 m 0
 530 111 558 83 558 53 c 0
 558 22 530 -5 498 -5 c 0
 469 -5 442 22 442 53 c 0
 442 83 469 111 499 111 c 0
166 111 m 0
 197 111 225 83 225 53 c 0
 225 22 197 -5 165 -5 c 0
 136 -5 109 22 109 53 c 0
 109 83 136 111 166 111 c 0
832 111 m 0
 863 111 891 83 891 53 c 0
 891 22 863 -5 831 -5 c 0
 802 -5 775 23 775 53 c 0
 775 83 802 111 832 111 c 0
EndSplineSet
EndChar

StartChar: perthousand
Encoding: 582 8240 122
Width: 1144
Flags: MW
HStem: 0 23<533 580 533 595.5 856 903> 286 23<537.5 584.5 860.5 907.5> 380 23<235 282 235 297.5> 666 23<239.5 286.5> 689 20
VStem: 123 64<488.5 573 488.5 575> 336 64<496 577.5> 421 64<108.5 193 108.5 195> 634 64<116 197.5> 744 64<108.5 193 108.5 195> 957 64<115.5 197.5>
LayerCount: 2
Fore
SplineSet
266 689 m 0xf7e0
 342 689 400 625 400 541 c 0
 400 449 338 380 257 380 c 0
 179 380 123 442 123 528 c 0
 123 622 183 689 266 689 c 0xf7e0
264 666 m 0
 215 666 187 617 187 529 c 0
 187 448 212 403 258 403 c 0
 306 403 336 455 336 537 c 0
 336 618 309 666 264 666 c 0
564 309 m 0
 640 309 698 245 698 161 c 0
 698 69 636 0 555 0 c 0
 477 0 421 62 421 148 c 0
 421 242 481 309 564 309 c 0
562 286 m 0
 513 286 485 237 485 149 c 0
 485 68 510 23 556 23 c 0
 604 23 634 75 634 157 c 0
 634 238 607 286 562 286 c 0
887 309 m 0
 963 309 1021 245 1021 161 c 0
 1021 69 959 0 878 0 c 0
 800 0 744 62 744 148 c 0
 744 242 804 309 887 309 c 0
885 286 m 0
 836 286 808 237 808 149 c 0
 808 68 833 23 879 23 c 0
 927 23 957 74 957 157 c 0
 957 238 930 286 885 286 c 0
238 -20 m 1
 198 -20 l 1
 589 709 l 1
 629 709 l 1xefe0
 238 -20 l 1
EndSplineSet
Ligature2: "'frac' Diagonal Fractions lookup 7 subtable" percent zerosuperior
Ligature2: "'frac' Diagonal Fractions lookup 7 subtable" percent zero
EndChar

StartChar: questiondown
Encoding: 126 191 123
Width: 444
Flags: MW
HStem: -231 66<223 246.5> 353 116<226 256>
VStem: 43 93<-88 -48.5> 184 116<395.5 425.5 395 426> 247 43<203.5 224 192 228>
LayerCount: 2
Fore
SplineSet
395 -83 m 1xe8
 357 -196 l 1
 304 -222 269 -231 224 -231 c 0
 121 -231 43 -165 43 -77 c 0
 43 -20 67 18 153 96 c 0
 234 170 247 187 247 220 c 0
 247 236 241 248 225 268 c 1
 246 282 l 1
 276 263 290 239 290 209 c 0
 290 175 274 148 213 81 c 0
 154 16 136 -16 136 -56 c 0
 136 -120 187 -165 259 -165 c 0
 304 -165 335 -150 346 -123 c 2
 366 -75 l 1
 395 -83 l 1xe8
241 469 m 0xd0
 272 469 300 441 300 410 c 0
 300 380 272 353 240 353 c 0
 211 353 184 380 184 411 c 0
 184 441 211 469 241 469 c 0xd0
EndSplineSet
EndChar

StartChar: grave
Encoding: 64 96 124
Width: 333
Flags: W
LayerCount: 2
Fore
SplineSet
215 506 m 1
 71 596 l 2
 38 617 31 625 31 643 c 0
 31 662 45 677 62 677 c 0
 77 677 95 666 117 644 c 2
 255 506 l 1
 215 506 l 1
EndSplineSet
EndChar

StartChar: acute
Encoding: 115 180 125
Width: 333
Flags: W
LayerCount: 2
Fore
SplineSet
78 506 m 1
 216 644 l 2
 238 666 256 677 271 677 c 0
 288 677 302 662 302 643 c 0
 302 625 295 617 262 596 c 2
 118 506 l 1
 78 506 l 1
EndSplineSet
EndChar

StartChar: circumflex
Encoding: 330 710 126
Width: 333
Flags: W
LayerCount: 2
Fore
SplineSet
136 677 m 1
 198 677 l 1
 323 510 l 1
 288 510 l 1
 167 613 l 1
 46 510 l 1
 11 510 l 1
 136 677 l 1
EndSplineSet
EndChar

StartChar: tilde
Encoding: 337 732 127
Width: 333
Flags: MW
HStem: 535 55<238 252> 580 55<80.5 91>
LayerCount: 2
Fore
SplineSet
303 640 m 1x80
 332 640 l 1
 328 582 280 535 224 535 c 0x80
 201 535 185 540 155 554 c 0
 119 573 98 580 84 580 c 0x40
 60 580 44 566 31 535 c 1
 2 535 l 1x80
 16 600 53 635 108 635 c 0x40
 132 635 143 632 197 605 c 0
 220 594 232 590 244 590 c 0
 272 590 288 603 303 640 c 1x80
EndSplineSet
EndChar

StartChar: macron
Encoding: 110 175 128
Width: 333
Flags: MW
HStem: 538 53<11 323 11 323>
LayerCount: 2
Fore
SplineSet
323 538 m 1
 11 538 l 1
 11 591 l 1
 323 591 l 1
 323 538 l 1
EndSplineSet
EndChar

StartChar: breve
Encoding: 333 728 129
Width: 333
Flags: MW
HStem: 506 60<140 192.5>
LayerCount: 2
Fore
SplineSet
26 664 m 1
 56 664 l 1
 59 607 105 566 167 566 c 0
 229 566 275 607 278 664 c 1
 308 664 l 1
 306 620 300 598 284 571 c 0
 260 529 218 506 167 506 c 0
 113 506 70 531 46 577 c 0
 33 603 28 623 26 664 c 1
EndSplineSet
EndChar

StartChar: dotaccent
Encoding: 334 729 130
Width: 250
Flags: MW
HStem: 537 100<110.5 140>
VStem: 75 100<572 602>
LayerCount: 2
Fore
SplineSet
126 637 m 0
 155 637 175 617 175 587 c 0
 175 557 155 537 125 537 c 0
 95 537 75 557 75 587 c 0
 75 617 95 637 126 637 c 0
EndSplineSet
EndChar

StartChar: dieresis
Encoding: 103 168 131
Width: 333
Flags: MW
HStem: 537 100<52.5 82 251.5 281>
VStem: 17 100<572 602> 216 100<572 602>
LayerCount: 2
Fore
SplineSet
68 637 m 0
 97 637 117 617 117 587 c 0
 117 557 97 537 67 537 c 0
 37 537 17 557 17 587 c 0
 17 617 37 637 68 637 c 0
267 637 m 0
 296 637 316 617 316 587 c 0
 316 557 296 537 266 537 c 0
 236 537 216 557 216 587 c 0
 216 617 236 637 267 637 c 0
EndSplineSet
EndChar

StartChar: ring
Encoding: 335 730 132
Width: 333
Flags: MW
HStem: 512 36<148 185.5 148 195> 676 36<149 186>
VStem: 67 38<593 632 593 640.5> 229 38<592.5 631>
LayerCount: 2
Fore
SplineSet
169 712 m 0
 223 712 267 667 267 612 c 0
 267 556 223 512 167 512 c 0
 111 512 67 556 67 613 c 0
 67 668 112 712 169 712 c 0
168 676 m 0
 130 676 105 651 105 613 c 0
 105 573 129 548 167 548 c 0
 204 548 229 573 229 612 c 0
 229 650 204 676 168 676 c 0
EndSplineSet
EndChar

StartChar: cedilla
Encoding: 119 184 133
Width: 333
Flags: MW
HStem: -225 36<166 192.5 166 218.5> -107 36<182.5 244.5>
VStem: 229 75<-160 -134.5>
LayerCount: 2
Fore
SplineSet
141 -108 m 1
 183 -10 l 1
 217 -10 l 1
 192 -75 l 1
 202 -72 208 -71 218 -71 c 0
 271 -71 304 -98 304 -141 c 0
 304 -193 257 -225 180 -225 c 0
 152 -225 140 -223 96 -209 c 1
 110 -178 l 1
 142 -186 157 -189 175 -189 c 0
 210 -189 229 -174 229 -146 c 0
 229 -123 213 -107 189 -107 c 0
 176 -107 167 -109 148 -114 c 1
 141 -108 l 1
EndSplineSet
EndChar

StartChar: hungarumlaut
Encoding: 338 733 134
Width: 380
Flags: W
LayerCount: 2
Fore
SplineSet
3 506 m 1
 131 654 l 2
 148 674 170 687 186 687 c 0
 203 687 217 672 217 654 c 0
 217 638 207 625 178 604 c 2
 43 506 l 1
 3 506 l 1
163 506 m 1
 291 654 l 2
 308 674 330 687 346 687 c 0
 363 687 377 672 377 654 c 0
 377 638 367 625 338 604 c 2
 203 506 l 1
 163 506 l 1
EndSplineSet
EndChar

StartChar: ogonek
Encoding: 336 731 135
Width: 313
Flags: MW
HStem: -145 41<144 150.5> 0 20
VStem: 68 47<-75 -65.5>
LayerCount: 2
Fore
SplineSet
229 -68 m 1
 245 -89 l 1
 199 -130 168 -145 133 -145 c 0
 96 -145 68 -117 68 -81 c 0
 68 -50 85 -22 118 0 c 1
 155 0 l 1
 127 -23 115 -43 115 -64 c 0
 115 -86 133 -104 155 -104 c 0
 178 -104 202 -92 229 -68 c 1
EndSplineSet
EndChar

StartChar: caron
Encoding: 331 711 136
Width: 333
Flags: W
LayerCount: 2
Fore
SplineSet
167 574 m 1
 289 677 l 1
 323 677 l 1
 198 510 l 1
 136 510 l 1
 11 677 l 1
 46 677 l 1
 167 574 l 1
EndSplineSet
EndChar

StartChar: emdash
Encoding: 568 8212 137
Width: 1000
Flags: MW
HStem: 219 58<0 1000 0 1000>
LayerCount: 2
Fore
SplineSet
1000 219 m 1
 0 219 l 1
 0 277 l 1
 1000 277 l 1
 1000 219 l 1
EndSplineSet
EndChar

StartChar: AE
Encoding: 133 198 138
Width: 944
Flags: MW
HStem: -3 42<623 741.5> 0 20 245 38<329.5 349> 330 42<638 691.5> 672 20<286 286 756.5 792.5>
VStem: 462 90<120 242 242 242 283 327 375 642>
LayerCount: 2
Fore
SplineSet
-10 27 m 1x84
 24 32 l 2
 38 34 56 53 76 87 c 2
 365 599 l 2
 377 621 384 638 384 646 c 0
 384 653 371 656 330 659 c 2
 286 662 l 1
 286 692 l 1
 409 690 510 689 543 689 c 0
 568 689 597 689 650 690 c 0
 713 692 742 692 771 692 c 0
 814 692 844 691 892 689 c 1
 881 644 876 597 876 537 c 1
 841 537 l 1
 841 602 l 2
 841 625 838 630 814 636 c 0
 782 644 725 650 671 650 c 0
 603 650 583 649 552 642 c 1
 552 375 l 1
 587 373 614 372 662 372 c 0
 728 372 756 375 774 383 c 1
 778 391 781 400 782 409 c 2
 787 461 l 1
 817 461 l 1
 814 361 814 361 814 344 c 0
 814 327 814 327 817 234 c 1
 787 234 l 1
 782 293 l 1
 774 318 l 1
 756 327 728 330 655 330 c 0
 606 330 578 329 552 327 c 1
 552 47 l 1
 581 40 597 39 649 39 c 0xbc
 746 39 822 44 837 52 c 0
 846 56 855 73 862 101 c 0
 864 109 868 130 873 164 c 1
 908 164 l 1
 898 112 892 57 892 0 c 1x44
 799 -2 759 -3 724 -3 c 2x84
 612 -2 l 2
 583 -1 534 -1 477 0 c 2x44
 408 -3 l 1x84
 408 20 l 1x44
 436 36 l 2
 456 48 462 67 462 120 c 2
 462 242 l 1
 391 244 359 245 339 245 c 0
 320 245 292 244 218 242 c 1
 154 128 l 2
 130 86 126 75 126 59 c 0
 126 43 144 33 179 30 c 2
 215 27 l 1
 215 -3 l 1xa4
 160 -1 138 0 117 0 c 0x44
 98 0 63 -1 -10 -3 c 1
 -10 27 l 1x84
450 655 m 1
 242 283 l 1
 462 283 l 1
 462 655 l 1
 450 655 l 1
EndSplineSet
EndChar

StartChar: ordfeminine
Encoding: 105 170 139
Width: 333
Flags: MW
HStem: 422 34<77 139.5> 677 32<147.5 157>
VStem: 24 56<489.5 519.5> 214 52<477 477 502 581 581 581>
LayerCount: 2
Fore
SplineSet
214 477 m 1
 133 425 l 1
 119 423 111 422 101 422 c 0
 53 422 24 449 24 493 c 0
 24 546 63 577 150 590 c 2
 214 600 l 1
 213 654 187 677 127 677 c 0
 97 677 93 675 82 656 c 0
 78 649 78 648 76 645 c 2
 67 626 l 1
 50 630 l 1
 50 669 l 1
 85 689 l 2
 108 702 134 709 161 709 c 0
 205 709 236 696 253 670 c 0
 264 655 266 642 266 590 c 2
 266 488 l 2
 266 449 267 446 290 444 c 2
 310 443 l 1
 310 426 l 1
 285 427 l 2
 273 428 265 428 261 428 c 2
 234 427 l 2
 225 426 218 426 217 426 c 2
 211 426 l 1
 214 477 l 1
214 502 m 1
 214 581 l 1
 115 569 80 548 80 503 c 0
 80 476 102 456 131 456 c 0
 148 456 179 469 193 482 c 2
 214 502 l 1
EndSplineSet
EndChar

StartChar: Lslash
Encoding: 256 321 140
Width: 611
Flags: MW
HStem: -3 42<280.5 414.5> 0 20 672 20<22 22 315 315>
VStem: 121 95<95 288 288 288 330 346 47 388 388 569>
LayerCount: 2
Fore
SplineSet
216 346 m 1x70
 216 47 l 1
 241 41 263 39 298 39 c 0x90
 421 39 507 46 520 57 c 0
 526 62 533 82 539 111 c 0
 540 112 541 118 542 122 c 2
 554 172 l 1
 586 172 l 1
 576 75 572 43 565 0 c 1x50
 472 -2 432 -3 397 -3 c 0x90
 368 -3 304 -2 211 -1 c 0
 190 0 175 0 164 0 c 0x50
 138 0 114 -1 65 -3 c 1x90
 65 20 l 1
 96 36 l 2
 112 44 121 65 121 95 c 2
 121 288 l 1
 22 228 l 1
 6 260 l 1
 121 330 l 1
 121 569 l 2
 120 650 116 656 70 659 c 2
 22 662 l 1
 22 692 l 1
 82 690 118 689 168 689 c 0
 219 689 255 690 315 692 c 1
 315 662 l 1
 267 659 l 2
 221 656 217 650 216 569 c 2
 216 388 l 1
 354 472 l 1
 370 440 l 1
 216 346 l 1x70
EndSplineSet
EndChar

StartChar: Oslash
Encoding: 151 216 141
Width: 833
Flags: MW
HStem: -20 42<405.5 507> 667 42<323 421.5>
VStem: 45 107<333.5 452.5> 680 107<259.5 380>
LayerCount: 2
Fore
SplineSet
154 67 m 1
 63 -18 l 1
 30 11 l 1
 124 99 l 1
 95 137 85 154 73 186 c 0
 55 232 45 287 45 342 c 0
 45 563 196 709 424 709 c 0
 488 709 553 696 604 673 c 0
 628 662 645 652 679 626 c 1
 765 709 l 1
 797 679 l 1
 709 596 l 1
 765 526 787 461 787 371 c 0
 787 148 619 -20 395 -20 c 0
 336 -20 277 -7 229 15 c 0
 205 27 188 39 154 67 c 1
641 531 m 1
 219 131 l 1
 248 93 265 77 292 60 c 0
 331 35 380 22 431 22 c 0
 589 22 680 137 680 340 c 0
 680 420 670 469 641 531 c 1
196 167 m 1
 616 570 l 1
 577 614 554 631 507 648 c 0
 473 661 440 667 403 667 c 0
 243 667 152 561 152 375 c 0
 152 292 164 233 196 167 c 1
EndSplineSet
EndChar

StartChar: OE
Encoding: 273 338 142
Width: 998
Flags: MW
HStem: -20 44<308 404.5> -3 20 -2 41<649 754.5> 0 20 330 42<694 747> 650 42 665 44<299 409>
VStem: 22 100<268.5 450> 519 95<139 327 375 538 538 558.5>
LayerCount: 2
Fore
SplineSet
927 164 m 1x2d80
 962 164 l 1
 952 113 946 60 946 0 c 1x1180
 852 -2 814 -3 786 -3 c 2x4180
 735 -3 l 2
 710 -2 689 -2 678 -2 c 0x2180
 620 -2 560 -5 509 -11 c 0
 457 -18 423 -20 386 -20 c 0
 170 -20 22 126 22 340 c 0
 22 560 174 709 399 709 c 0x8380
 423 709 513 699 543 694 c 0
 565 690 570 689 587 689 c 2
 707 690 l 2
 762 691 802 692 824 692 c 0
 868 692 898 691 946 689 c 1
 935 644 930 599 930 537 c 1
 895 537 l 1
 895 602 l 2
 895 625 892 630 868 636 c 0
 837 644 780 650 729 650 c 0
 662 650 644 649 614 642 c 1
 614 375 l 1
 650 373 673 372 715 372 c 0
 782 372 810 375 828 383 c 1
 833 391 835 400 836 409 c 2
 841 461 l 1
 871 461 l 1
 869 395 868 365 868 345 c 0
 868 324 869 300 871 234 c 1
 841 234 l 1
 836 293 l 1
 828 318 l 1
 810 327 783 330 711 330 c 0
 665 330 642 329 614 327 c 1
 614 47 l 1
 642 40 659 39 708 39 c 0
 801 39 876 44 891 52 c 0
 900 56 909 73 916 101 c 0
 919 110 922 131 927 164 c 1x2d80
519 139 m 2x8380
 519 538 l 2
 519 579 518 596 514 621 c 1
 479 651 438 665 380 665 c 0
 218 665 122 555 122 370 c 0
 122 167 231 24 385 24 c 0
 431 24 488 38 514 56 c 1
 518 81 519 97 519 139 c 2x8380
EndSplineSet
EndChar

StartChar: ordmasculine
Encoding: 121 186 143
Width: 333
Flags: MW
HStem: 416 20<142.5 200 142.5 203.5> 689 20<130 188.5>
VStem: 10 60<536.5 603> 263 60<524.5 590>
LayerCount: 2
Fore
SplineSet
173 709 m 0
 261 709 323 651 323 567 c 0
 323 482 250 416 157 416 c 0
 69 416 10 473 10 558 c 0
 10 648 76 709 173 709 c 0
159 689 m 0
 101 689 70 650 70 579 c 0
 70 494 112 436 173 436 c 0
 227 436 263 482 263 551 c 0
 263 629 218 689 159 689 c 0
EndSplineSet
EndChar

StartChar: ae
Encoding: 165 230 144
Width: 758
Flags: MW
HStem: -20 53<546 555> -20 65<173.5 178> 230 34<508 549> 416 53<223.5 228.5> 436 33<518.5 558>
VStem: 30 86<97.5 128.5> 69 255<117 399 117 399>
LayerCount: 2
Fore
SplineSet
69 399 m 1x52
 167 452 l 2
 190 464 209 469 238 469 c 0x72
 303 469 344 449 384 398 c 1
 449 452 488 469 545 469 c 0
 615 469 676 436 708 382 c 0
 723 356 732 318 732 278 c 0
 732 266 731 258 730 244 c 1
 667 234 621 230 549 230 c 2
 403 230 l 1
 405 172 412 143 430 111 c 0
 459 61 513 33 579 33 c 0
 624 33 650 42 710 80 c 1
 724 70 l 1
 704 36 l 2
 700 30 679 18 654 7 c 0
 612 -11 574 -20 536 -20 c 0
 480 -20 425 -1 387 33 c 0xaa
 371 47 361 60 344 89 c 1
 221 -7 l 2
 211 -15 190 -20 166 -20 c 0
 83 -20 30 29 30 106 c 0x54
 30 151 44 184 71 205 c 0
 101 227 183 250 268 259 c 2
 324 265 l 1
 321 323 315 347 297 374 c 0
 279 400 246 416 211 416 c 0
 177 416 132 403 120 389 c 0
 113 381 102 357 95 331 c 1
 69 337 l 1
 69 399 l 1x52
324 117 m 1
 324 233 l 1x72
 238 223 233 222 190 210 c 0
 156 200 143 193 134 181 c 0
 123 165 116 143 116 122 c 0x74
 116 73 147 45 200 45 c 0
 247 45 280 64 324 117 c 1
649 267 m 1
 649 319 643 345 626 377 c 0
 604 418 577 436 539 436 c 0x0a
 498 436 457 416 435 385 c 0
 415 357 407 327 405 270 c 1
 459 265 484 264 532 264 c 0
 569 264 595 265 649 267 c 1
EndSplineSet
EndChar

StartChar: dotlessi
Encoding: 240 305 145
Width: 287
Flags: MW
HStem: -3 20 0 20 449 20<179 179>
VStem: 104 84<102 327 327 327>
LayerCount: 2
Fore
SplineSet
188 465 m 1xb0
 188 102 l 2
 189 36 190 34 225 30 c 2
 271 27 l 1
 271 -3 l 1x90
 201 -1 172 0 146 0 c 0x50
 120 0 91 -1 21 -3 c 1
 21 27 l 1
 67 30 l 2
 101 33 104 37 104 102 c 2
 104 327 l 2
 103 395 101 399 60 400 c 2
 23 400 l 1
 23 428 l 1
 75 434 130 448 179 469 c 1
 188 465 l 1xb0
EndSplineSet
EndChar

StartChar: lslash
Encoding: 257 322 146
Width: 291
Flags: MW
HStem: -3 20 0 20
VStem: 104 84<102 348 348 348 390 400 441 620 620 635>
LayerCount: 2
Fore
SplineSet
104 390 m 1xa0
 104 620 l 2
 104 650 97 661 79 661 c 2
 23 661 l 1
 23 689 l 1
 102 701 135 709 179 726 c 1
 188 718 l 1
 188 441 l 1
 291 504 l 1
 306 472 l 1
 188 400 l 1
 188 102 l 2
 189 36 190 34 225 30 c 2
 271 27 l 1
 271 -3 l 1xa0
 201 -1 172 0 146 0 c 0x60
 120 0 91 -1 21 -3 c 1
 21 27 l 1
 67 30 l 2
 101 33 104 37 104 102 c 2
 104 348 l 1
 2 286 l 1
 -14 318 l 1
 104 390 l 1xa0
EndSplineSet
EndChar

StartChar: oslash
Encoding: 183 248 147
Width: 556
Flags: MW
HStem: -20 33<266 333 266 333.5> 0 20 436 33<222 290.5> 454 20<503 503>
VStem: 37 93<233.5 289.5> 426 93<163.5 218>
LayerCount: 2
Fore
SplineSet
16 0 m 1x4c
 83 64 l 1
 50 114 37 156 37 215 c 0
 37 364 141 469 288 469 c 0x6c
 349 469 391 454 441 414 c 1
 503 474 l 1
 530 449 l 1
 467 388 l 1
 505 337 519 296 519 238 c 0
 519 89 409 -20 258 -20 c 0x9c
 195 -20 155 -5 106 37 c 1
 44 -23 l 1
 16 0 l 1x4c
404 327 m 1xac
 166 95 l 1
 201 38 239 13 293 13 c 0
 373 13 426 86 426 196 c 0
 426 240 420 278 404 327 c 1xac
150 130 m 1
 388 362 l 1
 355 413 316 436 265 436 c 0
 179 436 130 370 130 256 c 0
 130 211 136 176 150 130 c 1
EndSplineSet
EndChar

StartChar: oe
Encoding: 274 339 148
Width: 827
Flags: MW
HStem: -20 33<233.5 292.5> -20 53<614 624.5> 230 34<576 617> 436 33<210.5 299.5 586.5 626.5>
VStem: 32 93<187 301.5>
LayerCount: 2
Fore
SplineSet
792 70 m 1x78
 772 36 l 2
 768 30 747 17 722 7 c 0
 681 -11 642 -20 607 -20 c 0x58
 539 -20 493 3 435 67 c 1
 374 3 327 -20 258 -20 c 0x88
 126 -20 32 84 32 230 c 0
 32 373 128 469 272 469 c 0
 343 469 388 449 445 393 c 1
 510 451 549 469 611 469 c 0
 726 469 800 395 800 279 c 0
 800 267 799 258 798 244 c 1
 735 234 689 230 617 230 c 2
 471 230 l 1
 473 172 480 143 498 111 c 0
 527 61 581 33 647 33 c 0
 692 33 719 43 778 80 c 1
 792 70 l 1x78
253 436 m 0
 168 436 125 377 125 260 c 0
 125 114 188 13 279 13 c 0xb8
 358 13 403 81 403 203 c 0
 403 348 346 436 253 436 c 0
717 267 m 1
 717 319 711 345 694 377 c 0
 672 418 645 436 608 436 c 0
 565 436 526 416 503 385 c 0
 483 356 475 327 473 270 c 1
 527 265 552 264 600 264 c 0
 637 264 663 265 717 267 c 1
EndSplineSet
EndChar

StartChar: germandbls
Encoding: 158 223 149
Width: 556
Flags: MW
HStem: -9 43<328.5 396.5> 0 20 686 45<318 349.5>
VStem: 96 84<102 107 107 385 385 385 434 466> 268 60<304.5 384> 440 56<558.5 587> 454 65<88 189>
LayerCount: 2
Fore
SplineSet
23 27 m 1x4a
 59 30 l 2
 94 33 95 37 96 102 c 2
 96 385 l 1
 27 385 l 1
 27 399 l 1
 96 434 l 1
 96 500 l 2
 96 551 130 617 180 662 c 0
 228 704 291 731 345 731 c 0
 434 731 496 672 496 587 c 0xbc
 496 530 483 470 452 391 c 1
 422 409 405 414 381 414 c 0
 349 414 328 397 328 371 c 0
 328 343 352 321 414 289 c 0
 488 252 519 215 519 163 c 0
 519 122 503 78 482 62 c 2
 424 18 l 2
 400 0 374 -9 345 -9 c 0xaa
 312 -9 284 -3 252 11 c 1
 251 -3 l 1
 169 0 151 0 137 0 c 2
 23 -3 l 1
 23 27 l 1x4a
429 461 m 1
 430 466 l 1
 431 470 l 2
 437 503 440 524 440 543 c 0xa4
 440 631 390 686 309 686 c 0
 216 686 180 625 180 466 c 2
 180 107 l 2
 180 47 192 27 226 27 c 2
 254 27 l 1
 275 112 l 1
 302 112 l 1
 302 66 l 1
 329 42 346 34 373 34 c 0
 420 34 454 66 454 110 c 0xb2
 454 157 430 186 361 222 c 0
 286 261 268 282 268 327 c 0
 268 351 274 369 287 383 c 2
 326 426 l 2
 346 448 383 461 429 461 c 1
EndSplineSet
EndChar

StartChar: onesuperior
Encoding: 120 185 150
Width: 300
Flags: MW
HStem: 271 20
VStem: 127 57<333 619 619 619>
LayerCount: 2
Fore
SplineSet
37 601 m 1
 32 631 l 1
 90 651 127 666 172 689 c 1
 184 685 l 1
 184 333 l 2
 184 304 189 299 219 297 c 2
 254 295 l 1
 254 271 l 1
 235 272 l 2
 182 273 156 273 155 273 c 0
 141 273 123 273 54 271 c 1
 54 295 l 1
 91 297 l 2
 122 299 127 304 127 333 c 2
 127 619 l 2
 126 630 126 632 125 635 c 2
 47 601 l 1
 37 601 l 1
EndSplineSet
EndChar

StartChar: logicalnot
Encoding: 107 172 151
Width: 606
Flags: MW
HStem: 356 52<48 515 48 567>
VStem: 515 52<122 356 356 356>
LayerCount: 2
Fore
SplineSet
48 408 m 1
 567 408 l 1
 567 122 l 1
 515 122 l 1
 515 356 l 1
 48 356 l 1
 48 408 l 1
EndSplineSet
EndChar

StartChar: mu
Encoding: 116 181 152
Width: 603
Flags: MW
HStem: -12 61<221.5 302.5> 0 20 449 20<174 174 494 494>
VStem: 99 84<148 170 170 327 327 327> 419 84<74 89 164 327 327 327>
LayerCount: 2
Fore
SplineSet
99 -236 m 1x98
 99 327 l 2
 98 395 96 399 55 400 c 2
 18 400 l 1
 18 428 l 1
 72 434 123 448 174 469 c 1
 183 465 l 1
 183 170 l 2
 183 126 190 95 204 79 c 0
 220 60 249 49 283 49 c 0xb8
 322 49 354 63 382 91 c 0
 405 114 419 142 419 164 c 2
 419 327 l 2
 418 395 416 399 375 400 c 2
 338 400 l 1
 338 428 l 1
 392 434 444 448 494 469 c 1
 503 465 l 1
 503 102 l 2
 503 37 505 33 540 30 c 2
 581 27 l 1
 581 -3 l 1
 531 -1 513 0 497 0 c 0x78
 481 0 466 -1 415 -3 c 1
 418 42 419 59 419 89 c 1
 352 27 l 2
 324 1 286 -12 239 -12 c 0
 204 -12 182 -7 150 8 c 1
 170 -189 l 1
 170 -192 l 2
 170 -206 127 -232 99 -236 c 1x98
EndSplineSet
EndChar

StartChar: trademark
Encoding: 614 8482 153
Width: 979
Flags: MW
HStem: 665 24<140 181 140 140 237 237 237 278>
VStem: 181 56<340 665 331 665> 494 25<338 634 634 634> 832 56<351 651>
LayerCount: 2
Fore
SplineSet
781 305 m 1
 792 305 l 2
 826 306 832 313 832 351 c 2
 832 654 l 1
 680 285 l 1
 672 285 l 1
 519 651 l 1
 519 338 l 2
 520 313 527 308 567 305 c 1
 567 285 l 1
 446 285 l 1
 446 305 l 1
 486 308 493 313 494 338 c 2
 494 634 l 2
 493 664 488 671 468 671 c 2
 454 671 l 1
 454 689 l 1
 563 689 l 1
 692 381 l 1
 824 689 l 1
 936 689 l 1
 936 671 l 1
 915 671 l 2
 895 670 888 665 888 651 c 2
 888 351 l 2
 888 313 894 306 928 305 c 2
 939 305 l 1
 939 285 l 1
 781 285 l 1
 781 305 l 1
118 305 m 1
 130 305 l 2
 173 305 181 311 181 340 c 2
 181 665 l 1
 140 665 l 2
 78 664 64 651 63 593 c 1
 40 593 l 1
 40 689 l 1
 378 689 l 1
 378 593 l 1
 355 593 l 1
 354 651 339 664 278 665 c 2
 237 665 l 1
 237 331 l 2
 239 320 241 315 248 311 c 0
 259 306 270 305 300 305 c 1
 300 285 l 1
 118 285 l 1
 118 305 l 1
EndSplineSet
EndChar

StartChar: Eth
Encoding: 143 208 154
Width: 774
Flags: MW
HStem: -3 44<343.5 369 286.5 399> 0 20 346 36<14 113 14 113 208 392> 652 37 672 20<22 22 379 404 404 508>
VStem: 113 95<95 346 49 346 382 569 569 569> 644 107<323 418>
LayerCount: 2
Fore
SplineSet
57 20 m 1x46
 88 36 l 2
 104 44 113 65 113 95 c 2
 113 346 l 1
 14 346 l 1
 14 382 l 1
 113 382 l 1
 113 569 l 2
 112 650 109 655 62 659 c 2
 22 662 l 1
 22 692 l 1x6e
 127 690 177 689 221 689 c 0x16
 262 689 334 690 379 692 c 2
 404 692 l 2
 612 692 751 570 751 387 c 0
 751 259 689 129 596 65 c 0
 531 20 448 -3 350 -3 c 0x8e
 337 -3 337 -3 287 -2 c 0
 249 -1 212 0 193 0 c 0x46
 168 0 134 -1 57 -3 c 1x86
 57 20 l 1x46
208 644 m 1xb6
 208 382 l 1
 392 382 l 1
 392 346 l 1
 208 346 l 1
 208 49 l 1
 233 43 263 41 310 41 c 0
 428 41 483 57 543 107 c 0
 611 165 644 248 644 362 c 0
 644 474 612 553 549 600 c 0
 504 633 421 652 318 652 c 0
 267 652 233 650 208 644 c 1xb6
EndSplineSet
EndChar

StartChar: onehalf
Encoding: 124 189 155
Width: 750
Flags: MW
HStem: -3 20<434 434> 0 53<565.5 591> 364 49<548 584> 672 20<176 176>
VStem: 114 64<379 485 379 617> 642 68<277.5 307.5>
LayerCount: 2
Fore
SplineSet
174 0 m 1x7c
 122 0 l 1
 573 689 l 1
 625 689 l 1
 174 0 l 1x7c
35 299 m 1
 71 299 l 2
 107 299 114 311 114 379 c 2
 114 617 l 2
 114 631 113 636 109 636 c 2
 106 636 l 1
 26 602 l 1
 19 602 l 1
 15 634 l 1
 176 692 l 1
 186 689 l 1
 180 607 178 551 178 485 c 2
 178 379 l 2
 179 309 184 300 220 299 c 2
 253 299 l 1
 253 273 l 1
 222 274 194 275 185 275 c 0
 163 276 148 276 141 276 c 0
 133 276 117 276 96 275 c 0
 82 274 62 274 35 273 c 1
 35 299 l 1
449 282 m 1
 461 371 l 1
 493 402 524 413 572 413 c 0
 655 413 710 369 710 301 c 0
 710 254 687 212 634 162 c 2
 519 53 l 1
 641 53 l 2x6c
 680 53 704 54 735 58 c 1
 733 42 733 34 733 25 c 0
 733 15 733 9 735 -3 c 1x8c
 648 -1 604 0 578 0 c 0x4c
 553 0 520 -1 434 -3 c 1
 434 17 l 1x8c
 542 121 l 2
 616 193 642 234 642 281 c 0
 642 334 611 364 557 364 c 0
 520 364 498 350 486 317 c 2
 473 282 l 1
 449 282 l 1
EndSplineSet
Ligature2: "'frac' Diagonal Fractions lookup 8 subtable" onesuperior fraction twosuperior
Ligature2: "'frac' Diagonal Fractions lookup 8 subtable" onesuperior slash twosuperior
Ligature2: "'frac' Diagonal Fractions lookup 8 subtable" one fraction two
Ligature2: "'frac' Diagonal Fractions lookup 8 subtable" one slash two
EndChar

StartChar: plusminus
Encoding: 112 177 156
Width: 606
Flags: MW
HStem: 0 56<51 555 51 555> 233 56<51 275 51 275 331 555>
VStem: 275 56<97 233 97 233 289 512>
LayerCount: 2
Fore
SplineSet
275 289 m 1
 275 512 l 1
 331 512 l 1
 331 289 l 1
 555 289 l 1
 555 233 l 1
 331 233 l 1
 331 97 l 1
 275 97 l 1
 275 233 l 1
 51 233 l 1
 51 289 l 1
 275 289 l 1
555 0 m 1
 51 0 l 1
 51 56 l 1
 555 56 l 1
 555 0 l 1
EndSplineSet
EndChar

StartChar: Thorn
Encoding: 157 222 157
Width: 604
Flags: MW
HStem: -3 20 0 20 176 34<343.5 382.5 338 415.5> 499 41<259 361.5> 672 20<32 32 325 325>
VStem: 131 95<120 491 120 542 542 569 120 569> 474 100<328.5 404.5>
LayerCount: 2
Fore
SplineSet
226 491 m 1xbe
 226 120 l 2
 227 39 231 32 277 30 c 2
 325 27 l 1
 325 -3 l 1x86
 266 -1 230 0 178 0 c 0x46
 126 0 91 -1 32 -3 c 1
 32 27 l 1
 80 30 l 2
 126 32 130 40 131 120 c 2
 131 569 l 2
 130 650 126 656 80 659 c 2
 32 662 l 1
 32 692 l 1
 92 690 128 689 178 689 c 0
 229 689 265 690 325 692 c 1
 325 662 l 1
 277 659 l 2
 231 657 227 649 226 569 c 2
 226 542 l 1
 242 540 250 540 268 540 c 0
 306 540 326 540 353 541 c 2
 372 541 l 2
 495 541 574 481 574 387 c 0
 574 270 476 176 355 176 c 0
 332 176 310 178 296 182 c 1
 285 219 l 1
 308 213 329 210 347 210 c 0
 418 210 474 275 474 357 c 0
 474 452 418 499 305 499 c 0
 274 499 252 497 226 491 c 1xbe
EndSplineSet
EndChar

StartChar: onequarter
Encoding: 123 188 158
Width: 750
Flags: MW
HStem: -3 20 0 20 107 46<466 595 466 595 422 595 657 672 672 674 674 676.5> 672 20<191 191>
VStem: 129 64<379 485 379 617> 595 60<71 230 107 230 153 230 153 345>
LayerCount: 2
Fore
SplineSet
595 107 m 1xac
 422 107 l 1
 417 122 l 1
 426 140 429 146 444 172 c 2
 602 400 l 1
 651 416 l 1
 660 413 l 1
 656 347 655 303 655 230 c 2
 655 153 l 1
 672 153 l 1
 674 153 l 2
 694 153 707 153 727 155 c 1
 727 104 l 1
 709 106 696 107 657 107 c 1
 657 71 l 2
 658 37 671 22 701 22 c 2
 722 22 l 1
 722 -3 l 1xac
 679 -1 654 0 622 0 c 0x4c
 592 0 567 -1 515 -3 c 1
 515 22 l 1
 536 22 l 2
 581 23 594 33 595 71 c 2
 595 107 l 1xac
595 153 m 1
 595 345 l 1
 466 153 l 1
 595 153 l 1
208 0 m 1x5c
 156 0 l 1
 607 689 l 1
 659 689 l 1
 208 0 l 1x5c
50 299 m 1
 86 299 l 2
 122 299 129 311 129 379 c 2
 129 617 l 2
 129 631 128 636 124 636 c 2
 121 636 l 1
 41 602 l 1
 34 602 l 1
 30 634 l 1
 191 692 l 1
 201 689 l 1
 195 607 193 551 193 485 c 2
 193 379 l 2
 194 309 199 300 235 299 c 2
 268 299 l 1
 268 273 l 1
 237 274 209 275 200 275 c 0
 178 276 163 276 156 276 c 0
 148 276 132 276 111 275 c 0
 97 274 77 274 50 273 c 1
 50 299 l 1
EndSplineSet
Ligature2: "'frac' Diagonal Fractions lookup 9 subtable" onesuperior fraction foursuperior
Ligature2: "'frac' Diagonal Fractions lookup 9 subtable" onesuperior slash foursuperior
Ligature2: "'frac' Diagonal Fractions lookup 9 subtable" one fraction four
Ligature2: "'frac' Diagonal Fractions lookup 9 subtable" one slash four
EndChar

StartChar: divide
Encoding: 182 247 159
Width: 606
Flags: MW
HStem: 10 116<288.5 319> 233 56<51 555 51 555> 396 116<288.5 319>
VStem: 246 116<52.5 82.5 51.5 83 438.5 468.5>
CounterMasks: 1 e0
LayerCount: 2
Fore
SplineSet
51 233 m 1
 51 289 l 1
 555 289 l 1
 555 233 l 1
 51 233 l 1
304 512 m 0
 335 512 362 484 362 453 c 0
 362 422 335 396 303 396 c 0
 273 396 246 423 246 454 c 0
 246 484 273 512 304 512 c 0
304 126 m 0
 335 126 362 98 362 67 c 0
 362 36 335 10 303 10 c 0
 273 10 246 37 246 68 c 0
 246 98 273 126 304 126 c 0
EndSplineSet
EndChar

StartChar: brokenbar
Encoding: 101 166 160
Width: 606
Flags: MW
HStem: 0 20
VStem: 275 56<0 292 0 292 439 726>
LayerCount: 2
Fore
SplineSet
275 0 m 1
 275 292 l 1
 331 292 l 1
 331 0 l 1
 275 0 l 1
275 726 m 1
 331 726 l 1
 331 439 l 1
 275 439 l 1
 275 726 l 1
EndSplineSet
EndChar

StartChar: degree
Encoding: 111 176 161
Width: 400
Flags: MW
HStem: 389 40<169.5 230 169.5 241> 649 40<169 230>
VStem: 50 40<508.5 569.5 508.5 580.5> 310 40<507.5 568>
LayerCount: 2
Fore
SplineSet
199 689 m 0
 283 689 350 622 350 537 c 0
 350 456 282 389 200 389 c 0
 117 389 50 456 50 539 c 0
 50 622 117 689 199 689 c 0
199 649 m 0
 139 649 90 600 90 539 c 0
 90 478 139 429 200 429 c 0
 260 429 310 478 310 537 c 0
 310 599 261 649 199 649 c 0
EndSplineSet
EndChar

StartChar: thorn
Encoding: 189 254 162
Width: 601
Flags: MW
HStem: -278 20 -12 51<271.5 300.5> 404 65<318.5 351.5>
VStem: 81 84<-176 13 98 306 369 620 620 635> 457 87<231.5 284>
LayerCount: 2
Fore
SplineSet
-2 -251 m 1
 44 -248 l 2
 79 -244 80 -242 81 -176 c 2
 81 620 l 2
 81 650 74 661 56 661 c 2
 0 661 l 1
 0 689 l 1
 79 701 112 709 156 726 c 1
 165 718 l 1
 165 369 l 1
 220 425 l 2
 246 451 295 469 342 469 c 0
 454 469 544 379 544 267 c 0
 544 196 509 113 465 82 c 2
 365 10 l 2
 344 -5 318 -12 283 -12 c 0
 241 -12 210 -6 165 13 c 1
 165 -176 l 2
 166 -242 167 -244 202 -248 c 2
 248 -251 l 1
 248 -281 l 1
 179 -279 150 -278 123 -278 c 0
 96 -278 67 -279 -2 -281 c 1
 -2 -251 l 1
165 306 m 2
 165 98 l 1
 206 55 243 39 300 39 c 0
 397 39 457 112 457 230 c 0
 457 338 399 404 304 404 c 0
 254 404 212 385 183 348 c 0
 170 331 165 320 165 306 c 2
EndSplineSet
EndChar

StartChar: threequarters
Encoding: 125 190 163
Width: 750
Flags: MW
HStem: -3 20 0 20 107 46<474 603 474 603 430 603 665 680 680 682 682 684.5> 266 32<124.5 180.5 124.5 184.5> 471 33<151.5 166.5 131 190> 643 46<142 172>
VStem: 225 60<583 598> 247 66<371 417> 603 60<71 230 107 230 153 230 153 345>
LayerCount: 2
Fore
SplineSet
41 578 m 1x7e
 60 649 l 1
 91 678 120 689 164 689 c 0
 237 689 285 654 285 601 c 0x7e80
 285 565 266 538 213 501 c 1
 283 490 313 463 313 410 c 0
 313 332 232 266 137 266 c 0
 107 266 84 270 41 282 c 1
 39 300 36 310 24 347 c 0
 21 356 19 362 15 376 c 1
 46 384 l 1
 67 322 97 298 152 298 c 0
 209 298 247 335 247 391 c 0x7d
 247 443 218 471 162 471 c 0
 141 471 128 468 113 458 c 1
 103 462 l 1
 113 505 l 1
 121 505 129 505 131 504 c 2
 145 504 l 2
 188 504 225 540 225 580 c 0
 225 616 193 643 151 643 c 0
 108 643 76 619 66 578 c 1
 41 578 l 1x7e
217 0 m 1
 165 0 l 1
 616 689 l 1
 668 689 l 1
 217 0 l 1
603 107 m 1
 430 107 l 1
 425 122 l 1
 434 140 437 146 452 172 c 2
 610 400 l 1
 659 416 l 1
 668 413 l 1
 664 347 663 303 663 230 c 2
 663 153 l 1
 680 153 l 1
 682 153 l 2
 702 153 715 153 735 155 c 1
 735 104 l 1
 717 106 704 107 665 107 c 1
 665 71 l 2
 666 37 679 22 709 22 c 2
 730 22 l 1
 730 -3 l 1xa280
 687 -1 662 0 630 0 c 0x4280
 600 0 575 -1 523 -3 c 1x8280
 523 22 l 1
 544 22 l 2
 589 23 602 33 603 71 c 2
 603 107 l 1
603 153 m 1
 603 345 l 1
 474 153 l 1
 603 153 l 1
EndSplineSet
Ligature2: "'frac' Diagonal Fractions lookup 11 subtable" threesuperior fraction foursuperior
Ligature2: "'frac' Diagonal Fractions lookup 11 subtable" threesuperior slash foursuperior
Ligature2: "'frac' Diagonal Fractions lookup 11 subtable" three fraction four
Ligature2: "'frac' Diagonal Fractions lookup 11 subtable" three slash four
EndChar

StartChar: twosuperior
Encoding: 113 178 164
Width: 300
Flags: MW
HStem: 271 20<6 6> 634 52<113.5 145>
VStem: 201 61<550.5 580>
LayerCount: 2
Fore
SplineSet
6 291 m 1
 109 399 l 2
 176 469 201 512 201 556 c 0
 201 604 170 634 120 634 c 0
 81 634 61 621 52 588 c 2
 43 558 l 1
 19 558 l 1
 30 643 l 1
 61 674 91 686 136 686 c 0
 214 686 262 643 262 573 c 0
 262 528 244 495 185 433 c 2
 81 325 l 1
 186 327 199 328 265 330 c 2
 284 331 l 1
 284 324 l 1
 283 317 l 1
 283 301 l 2
 283 296 283 286 284 271 c 1
 202 273 173 273 143 273 c 0
 118 273 118 273 36 272 c 2
 6 271 l 1
 6 291 l 1
EndSplineSet
EndChar

StartChar: registered
Encoding: 109 174 165
Width: 747
Flags: MW
HStem: -18 44<285.5 460.5 285.5 473> 662 44<287 462.5>
VStem: 11 44<255.5 432 255.5 443.5> 254 55<204 211 211 340 360 506> 460 56<426.5 477.5> 692 44<256.5 430.5>
LayerCount: 2
Fore
SplineSet
205 554 m 1
 361 554 l 2
 468 554 516 524 516 456 c 0
 516 397 479 363 401 350 c 1
 441 343 465 315 497 234 c 0
 519 183 530 173 563 173 c 1
 563 157 l 1
 510 157 l 2
 471 160 458 175 428 255 c 0
 401 326 389 339 350 340 c 2
 309 340 l 1
 309 211 l 2
 309 181 313 176 337 174 c 2
 358 173 l 1
 358 157 l 1
 206 157 l 1
 206 173 l 1
 222 173 l 2
 249 173 253 178 254 204 c 2
 254 507 l 2
 253 529 247 535 222 536 c 2
 205 537 l 1
 205 554 l 1
309 360 m 1
 336 360 l 2
 422 360 460 388 460 451 c 0
 460 504 426 535 366 535 c 2
 337 535 l 2
 316 534 310 528 309 506 c 2
 309 360 l 1
377 706 m 0
 573 706 736 542 736 345 c 0
 736 145 573 -18 373 -18 c 0
 174 -18 11 144 11 342 c 0
 11 545 173 706 377 706 c 0
377 662 m 0
 197 662 55 521 55 343 c 0
 55 168 198 26 373 26 c 0
 548 26 692 169 692 344 c 0
 692 517 548 662 377 662 c 0
EndSplineSet
EndChar

StartChar: minus
Encoding: 659 8722 166
Width: 606
Flags: MW
HStem: 232 59<48 534 48 534>
LayerCount: 2
Fore
SplineSet
48 291 m 1
 534 291 l 1
 534 232 l 1
 48 232 l 1
 48 291 l 1
EndSplineSet
EndChar

StartChar: eth
Encoding: 175 240 167
Width: 546
Flags: MW
HStem: -20 33<229 288 229 328> 436 33<217.5 283.5>
VStem: 32 93<182.5 291> 416 88<198.5 271>
LayerCount: 2
Fore
SplineSet
124 550 m 1
 260 616 l 1
 228 645 194 667 138 696 c 1
 172 728 l 1
 245 685 272 666 305 638 c 1
 448 708 l 1
 466 678 l 1
 335 614 l 1
 389 560 412 532 438 489 c 0
 482 417 504 342 504 262 c 0
 504 94 402 -20 254 -20 c 0
 121 -20 32 76 32 217 c 0
 32 365 131 469 271 469 c 0
 309 469 345 461 378 444 c 1
 380 446 l 1
 351 508 321 552 282 588 c 1
 142 520 l 1
 124 550 l 1
261 436 m 0
 174 436 125 370 125 253 c 0
 125 112 186 13 272 13 c 0
 304 13 331 24 352 45 c 0
 393 86 416 157 416 240 c 0
 416 302 403 349 377 381 c 0
 348 416 306 436 261 436 c 0
EndSplineSet
EndChar

StartChar: multiply
Encoding: 150 215 168
Width: 606
Flags: MW
HStem: 454 20<124 124 482 482>
LayerCount: 2
Fore
SplineSet
263 255 m 1
 83 435 l 1
 124 474 l 1
 303 295 l 1
 482 474 l 1
 523 435 l 1
 342 255 l 1
 523 75 l 1
 482 36 l 1
 303 215 l 1
 124 36 l 1
 83 75 l 1
 263 255 l 1
EndSplineSet
EndChar

StartChar: threesuperior
Encoding: 114 179 169
Width: 300
Flags: MW
HStem: 261 31<102.5 154> 470 27<135 144 121.5 167> 640 46<118.5 149.5>
VStem: 198 56<578.5 593> 219 62<370.5 414>
LayerCount: 2
Fore
SplineSet
22 567 m 1xf0
 40 645 l 1
 72 676 97 686 140 686 c 0
 208 686 254 650 254 596 c 0xf0
 254 561 237 533 193 499 c 1
 253 487 281 459 281 408 c 0
 281 333 197 261 111 261 c 0
 85 261 71 264 27 277 c 1
 24 308 18 330 5 369 c 1
 27 377 l 1
 50 314 76 292 129 292 c 0
 184 292 219 330 219 388 c 0xe8
 219 440 191 470 143 470 c 0
 127 470 116 467 92 457 c 1
 85 463 l 1
 93 499 l 1
 102 498 119 497 124 497 c 0
 164 497 198 533 198 575 c 0
 198 611 168 640 131 640 c 0
 101 640 65 621 59 602 c 2
 47 567 l 1
 22 567 l 1xf0
EndSplineSet
EndChar

StartChar: copyright
Encoding: 104 169 170
Width: 747
Flags: MW
HStem: -18 44<285.5 460.5 285.5 473> 135 31<351.5 398.5> 522 26<348.5 406.5 322 427> 662 44<287 462.5>
VStem: 11 44<255.5 432 255.5 443.5> 178 68<297 401.5 297 402.5> 692 44<256.5 430.5>
LayerCount: 2
Fore
SplineSet
527 522 m 1
 527 415 l 1
 501 415 l 1
 496 489 462 522 392 522 c 0
 305 522 246 453 246 350 c 0
 246 244 309 166 394 166 c 0
 449 166 488 190 516 243 c 1
 537 234 l 1
 526 211 520 201 507 188 c 0
 474 154 425 135 372 135 c 0
 258 135 178 220 178 341 c 0
 178 464 261 548 383 548 c 0
 430 548 466 542 527 522 c 1
377 706 m 0
 573 706 736 542 736 345 c 0
 736 145 573 -18 373 -18 c 0
 174 -18 11 144 11 342 c 0
 11 545 173 706 377 706 c 0
377 662 m 0
 197 662 55 521 55 343 c 0
 55 168 198 26 373 26 c 0
 548 26 692 169 692 344 c 0
 692 517 548 662 377 662 c 0
EndSplineSet
EndChar

StartChar: Aacute
Encoding: 128 193 171
Width: 778
Flags: MW
HStem: -3 20 0 20 229 40<240 493 240 511 223 493>
LayerCount: 2
Fore
SplineSet
408 700 m 1x80
 650 132 l 2
 685 50 696 34 722 30 c 2
 756 27 l 1
 756 -3 l 1xa0
 678 -1 651 0 629 0 c 0x40
 608 0 572 -1 490 -3 c 1
 490 27 l 1
 537 30 l 2
 563 32 578 39 578 50 c 0
 578 60 575 69 557 114 c 2
 511 229 l 1
 223 229 l 1
 195 162 l 2
 174 111 160 70 160 56 c 0
 160 40 173 33 208 30 c 2
 245 27 l 1
 245 -3 l 1xa0
 172 -1 141 0 124 0 c 0x40
 105 0 83 -1 15 -3 c 1
 15 27 l 1
 52 30 l 2
 74 32 94 50 106 79 c 2
 284 484 l 2
 301 522 321 569 337 605 c 0
 344 621 360 660 376 700 c 1
 408 700 l 1x80
240 269 m 1
 493 269 l 1
 367 567 l 1
 240 269 l 1
307 737 m 1
 445 875 l 2
 467 897 485 908 500 908 c 0
 517 908 531 893 531 874 c 0
 531 856 525 848 491 827 c 2
 347 737 l 1
 307 737 l 1
EndSplineSet
EndChar

StartChar: Acircumflex
Encoding: 129 194 172
Width: 778
Flags: MW
HStem: -3 20 0 20 229 40<240 493 240 511 223 493>
LayerCount: 2
Fore
SplineSet
408 700 m 1x80
 650 132 l 2
 685 50 696 34 722 30 c 2
 756 27 l 1
 756 -3 l 1xa0
 678 -1 651 0 629 0 c 0x40
 608 0 572 -1 490 -3 c 1
 490 27 l 1
 537 30 l 2
 563 32 578 39 578 50 c 0
 578 60 575 69 557 114 c 2
 511 229 l 1
 223 229 l 1
 195 162 l 2
 174 111 160 70 160 56 c 0
 160 40 173 33 208 30 c 2
 245 27 l 1
 245 -3 l 1xa0
 172 -1 141 0 124 0 c 0x40
 105 0 83 -1 15 -3 c 1
 15 27 l 1
 52 30 l 2
 74 32 94 50 106 79 c 2
 284 484 l 2
 301 522 321 569 337 605 c 0
 344 621 360 660 376 700 c 1
 408 700 l 1x80
240 269 m 1
 493 269 l 1
 367 567 l 1
 240 269 l 1
359 908 m 1
 421 908 l 1
 546 741 l 1
 511 741 l 1
 390 844 l 1
 269 741 l 1
 234 741 l 1
 359 908 l 1
EndSplineSet
EndChar

StartChar: Adieresis
Encoding: 131 196 173
Width: 778
Flags: MW
HStem: -3 20 0 20 229 40<240 493 240 511 223 493> 768 100<275.5 305 474.5 504>
VStem: 240 100<803 833> 439 100<803 833>
LayerCount: 2
Fore
SplineSet
408 700 m 1x8c
 650 132 l 2
 685 50 696 34 722 30 c 2
 756 27 l 1
 756 -3 l 1xbc
 678 -1 651 0 629 0 c 0x4c
 608 0 572 -1 490 -3 c 1
 490 27 l 1
 537 30 l 2
 563 32 578 39 578 50 c 0
 578 60 575 69 557 114 c 2
 511 229 l 1
 223 229 l 1
 195 162 l 2
 174 111 160 70 160 56 c 0
 160 40 173 33 208 30 c 2
 245 27 l 1
 245 -3 l 1xac
 172 -1 141 0 124 0 c 0x4c
 105 0 83 -1 15 -3 c 1
 15 27 l 1
 52 30 l 2
 74 32 94 50 106 79 c 2
 284 484 l 2
 301 522 321 569 337 605 c 0
 344 621 360 660 376 700 c 1
 408 700 l 1x8c
240 269 m 1
 493 269 l 1
 367 567 l 1
 240 269 l 1
291 868 m 0
 320 868 340 848 340 818 c 0
 340 788 320 768 290 768 c 0
 260 768 240 788 240 818 c 0
 240 848 260 868 291 868 c 0
490 868 m 0
 519 868 539 848 539 818 c 0
 539 788 519 768 489 768 c 0
 459 768 439 788 439 818 c 0
 439 848 459 868 490 868 c 0
EndSplineSet
EndChar

StartChar: Agrave
Encoding: 127 192 174
Width: 778
Flags: MW
HStem: -3 20 0 20 229 40<240 493 240 511 223 493>
LayerCount: 2
Fore
SplineSet
408 700 m 1x80
 650 132 l 2
 685 50 696 34 722 30 c 2
 756 27 l 1
 756 -3 l 1xa0
 678 -1 651 0 629 0 c 0x40
 608 0 572 -1 490 -3 c 1
 490 27 l 1
 537 30 l 2
 563 32 578 39 578 50 c 0
 578 60 575 69 557 114 c 2
 511 229 l 1
 223 229 l 1
 195 162 l 2
 174 111 160 70 160 56 c 0
 160 40 173 33 208 30 c 2
 245 27 l 1
 245 -3 l 1xa0
 172 -1 141 0 124 0 c 0x40
 105 0 83 -1 15 -3 c 1
 15 27 l 1
 52 30 l 2
 74 32 94 50 106 79 c 2
 284 484 l 2
 301 522 321 569 337 605 c 0
 344 621 360 660 376 700 c 1
 408 700 l 1x80
240 269 m 1
 493 269 l 1
 367 567 l 1
 240 269 l 1
430 737 m 1
 286 827 l 2
 253 848 246 856 246 874 c 0
 246 893 260 908 277 908 c 0
 292 908 310 897 332 875 c 2
 470 737 l 1
 430 737 l 1
EndSplineSet
EndChar

StartChar: Aring
Encoding: 132 197 175
Width: 778
Flags: MW
HStem: -3 20 0 20 229 40<240 493 240 511 223 493> 743 36<371 408.5 371 418> 907 36<372 409>
VStem: 290 38<824 863 824 871.5> 452 38<823.5 862>
LayerCount: 2
Fore
SplineSet
408 700 m 1x86
 650 132 l 2
 685 50 696 34 722 30 c 2
 756 27 l 1
 756 -3 l 1xbe
 678 -1 651 0 629 0 c 0x46
 608 0 572 -1 490 -3 c 1
 490 27 l 1
 537 30 l 2
 563 32 578 39 578 50 c 0
 578 60 575 69 557 114 c 2
 511 229 l 1
 223 229 l 1
 195 162 l 2
 174 111 160 70 160 56 c 0
 160 40 173 33 208 30 c 2
 245 27 l 1
 245 -3 l 1xa6
 172 -1 141 0 124 0 c 0x46
 105 0 83 -1 15 -3 c 1
 15 27 l 1
 52 30 l 2
 74 32 94 50 106 79 c 2
 284 484 l 2
 301 522 321 569 337 605 c 0
 344 621 360 660 376 700 c 1
 408 700 l 1x86
240 269 m 1
 493 269 l 1
 367 567 l 1
 240 269 l 1
392 943 m 0
 446 943 490 898 490 843 c 0
 490 787 446 743 390 743 c 0
 334 743 290 787 290 844 c 0
 290 899 335 943 392 943 c 0
391 907 m 0
 353 907 328 882 328 844 c 0
 328 804 352 779 390 779 c 0
 427 779 452 804 452 843 c 0
 452 881 427 907 391 907 c 0
EndSplineSet
EndChar

StartChar: Atilde
Encoding: 130 195 176
Width: 778
Flags: MW
HStem: -3 20 0 20 229 40<240 493 240 511 223 493> 766 55<461 474.5> 811 55<303.5 314.5>
LayerCount: 2
Fore
SplineSet
408 700 m 1x80
 650 132 l 2
 685 50 696 34 722 30 c 2
 756 27 l 1
 756 -3 l 1xb0
 678 -1 651 0 629 0 c 0x40
 608 0 572 -1 490 -3 c 1
 490 27 l 1
 537 30 l 2
 563 32 578 39 578 50 c 0
 578 60 575 69 557 114 c 2
 511 229 l 1
 223 229 l 1
 195 162 l 2
 174 111 160 70 160 56 c 0
 160 40 173 33 208 30 c 2
 245 27 l 1
 245 -3 l 1xa0
 172 -1 141 0 124 0 c 0x40
 105 0 83 -1 15 -3 c 1
 15 27 l 1
 52 30 l 2
 74 32 94 50 106 79 c 2
 284 484 l 2
 301 522 321 569 337 605 c 0
 344 621 360 660 376 700 c 1
 408 700 l 1x80
240 269 m 1
 493 269 l 1
 367 567 l 1
 240 269 l 1
526 871 m 1
 555 871 l 1
 551 813 503 766 446 766 c 0x10
 424 766 408 771 378 785 c 0
 342 804 322 811 307 811 c 0x08
 283 811 267 797 254 766 c 1
 225 766 l 1x10
 239 831 276 866 331 866 c 0x08
 356 866 364 863 423 835 c 0
 444 825 455 821 467 821 c 0
 496 821 511 834 526 871 c 1
EndSplineSet
EndChar

StartChar: Ccedilla
Encoding: 134 199 177
Width: 709
Flags: MW
HStem: -225 36<354 380.5 354 406.5> -107 36<370.5 432.5> -20 54<401 401 401 416> 667 42<389 464>
VStem: 22 107<262.5 409.5> 417 75<-160 -134.5>
LayerCount: 2
Fore
SplineSet
401 -20 m 1
 380 -75 l 1
 390 -72 396 -71 406 -71 c 0
 459 -71 492 -98 492 -141 c 0
 492 -193 445 -225 368 -225 c 0
 340 -225 329 -223 284 -209 c 1
 298 -178 l 1
 331 -187 345 -189 363 -189 c 0
 398 -189 417 -174 417 -146 c 0
 417 -123 401 -107 377 -107 c 0
 364 -107 355 -109 336 -114 c 1
 329 -108 l 1
 368 -18 l 1
 150 6 22 140 22 342 c 0
 22 477 82 583 196 649 c 0
 264 688 345 709 433 709 c 0
 506 709 578 696 664 668 c 1
 650 602 645 566 645 516 c 1
 614 516 l 1
 614 588 l 2
 614 627 513 667 415 667 c 0
 242 667 129 546 129 361 c 0
 129 164 258 34 454 34 c 0
 531 34 599 54 661 94 c 1
 670 84 l 1
 642 34 l 1
 573 -2 498 -20 416 -20 c 2
 401 -20 l 1
EndSplineSet
EndChar

StartChar: Eacute
Encoding: 136 201 178
Width: 611
Flags: MW
HStem: -3 42<287 406> 0 20 330 42<302 356> 650 42
VStem: 121 95<120 327 375 569 569 569>
LayerCount: 2
Fore
SplineSet
34 27 m 1x88
 70 30 l 2
 117 34 120 39 121 120 c 2
 121 569 l 2
 120 650 116 656 70 659 c 2
 22 662 l 1
 22 692 l 1
 117 690 159 689 200 689 c 0
 222 689 268 690 333 691 c 0
 373 692 406 692 432 692 c 0
 478 692 508 691 556 689 c 1
 545 645 540 597 540 537 c 1
 505 537 l 1
 505 602 l 2
 505 625 502 630 478 636 c 0
 447 644 388 650 335 650 c 0
 267 650 247 649 216 642 c 1
 216 375 l 1
 251 373 278 372 326 372 c 0
 392 372 420 375 438 383 c 1
 443 391 445 400 446 409 c 2
 451 461 l 1
 481 461 l 1
 479 395 478 365 478 345 c 0
 478 324 479 300 481 234 c 1
 451 234 l 1
 446 293 l 1
 438 318 l 1
 420 327 393 330 319 330 c 0
 270 330 242 329 216 327 c 1
 216 47 l 1
 245 40 261 39 313 39 c 0xb8
 410 39 486 44 501 52 c 0
 510 56 519 73 526 101 c 0
 529 110 532 131 537 164 c 1
 572 164 l 1
 562 112 556 58 556 0 c 1x48
 464 -2 423 -3 389 -3 c 0x88
 359 -3 304 -2 228 -1 c 0
 196 0 174 0 158 0 c 0x48
 129 0 99 -1 34 -3 c 1
 34 27 l 1x88
224 737 m 1
 362 875 l 2
 383 897 402 908 417 908 c 0
 434 908 448 893 448 874 c 0
 448 856 442 849 408 827 c 2
 264 737 l 1
 224 737 l 1
EndSplineSet
EndChar

StartChar: Ecircumflex
Encoding: 137 202 179
Width: 611
Flags: MW
HStem: -3 42<287 406> 0 20 330 42<302 356> 650 42
VStem: 121 95<120 327 375 569 569 569>
LayerCount: 2
Fore
SplineSet
34 27 m 1x88
 70 30 l 2
 117 34 120 39 121 120 c 2
 121 569 l 2
 120 650 116 656 70 659 c 2
 22 662 l 1
 22 692 l 1
 117 690 159 689 200 689 c 0
 222 689 268 690 333 691 c 0
 373 692 406 692 432 692 c 0
 478 692 508 691 556 689 c 1
 545 645 540 597 540 537 c 1
 505 537 l 1
 505 602 l 2
 505 625 502 630 478 636 c 0
 447 644 388 650 335 650 c 0
 267 650 247 649 216 642 c 1
 216 375 l 1
 251 373 278 372 326 372 c 0
 392 372 420 375 438 383 c 1
 443 391 445 400 446 409 c 2
 451 461 l 1
 481 461 l 1
 479 395 478 365 478 345 c 0
 478 324 479 300 481 234 c 1
 451 234 l 1
 446 293 l 1
 438 318 l 1
 420 327 393 330 319 330 c 0
 270 330 242 329 216 327 c 1
 216 47 l 1
 245 40 261 39 313 39 c 0xb8
 410 39 486 44 501 52 c 0
 510 56 519 73 526 101 c 0
 529 110 532 131 537 164 c 1
 572 164 l 1
 562 112 556 58 556 0 c 1x48
 464 -2 423 -3 389 -3 c 0x88
 359 -3 304 -2 228 -1 c 0
 196 0 174 0 158 0 c 0x48
 129 0 99 -1 34 -3 c 1
 34 27 l 1x88
276 908 m 1
 338 908 l 1
 463 741 l 1
 428 741 l 1
 307 844 l 1
 186 741 l 1
 151 741 l 1
 276 908 l 1
EndSplineSet
EndChar

StartChar: Edieresis
Encoding: 138 203 180
Width: 611
Flags: MW
HStem: -3 42<287 406> 0 20 330 42<302 356> 650 42 768 100<192.5 222 391.5 421>
VStem: 121 95<120 327 375 569 569 569> 157 100<803 833> 356 100<803 833>
LayerCount: 2
Fore
SplineSet
34 27 m 1x84
 70 30 l 2
 117 34 120 39 121 120 c 2
 121 569 l 2
 120 650 116 656 70 659 c 2
 22 662 l 1
 22 692 l 1
 117 690 159 689 200 689 c 0
 222 689 268 690 333 691 c 0
 373 692 406 692 432 692 c 0
 478 692 508 691 556 689 c 1
 545 645 540 597 540 537 c 1
 505 537 l 1
 505 602 l 2
 505 625 502 630 478 636 c 0
 447 644 388 650 335 650 c 0
 267 650 247 649 216 642 c 1
 216 375 l 1
 251 373 278 372 326 372 c 0
 392 372 420 375 438 383 c 1
 443 391 445 400 446 409 c 2
 451 461 l 1
 481 461 l 1
 479 395 478 365 478 345 c 0
 478 324 479 300 481 234 c 1
 451 234 l 1
 446 293 l 1
 438 318 l 1
 420 327 393 330 319 330 c 0
 270 330 242 329 216 327 c 1
 216 47 l 1
 245 40 261 39 313 39 c 0xbc
 410 39 486 44 501 52 c 0
 510 56 519 73 526 101 c 0
 529 110 532 131 537 164 c 1
 572 164 l 1
 562 112 556 58 556 0 c 1x44
 464 -2 423 -3 389 -3 c 0x84
 359 -3 304 -2 228 -1 c 0
 196 0 174 0 158 0 c 0x44
 129 0 99 -1 34 -3 c 1
 34 27 l 1x84
208 868 m 0
 237 868 257 848 257 818 c 0
 257 788 237 768 207 768 c 0
 177 768 157 788 157 818 c 0xbb
 157 848 177 868 208 868 c 0
407 868 m 0
 436 868 456 848 456 818 c 0
 456 788 436 768 406 768 c 0
 376 768 356 788 356 818 c 0
 356 848 376 868 407 868 c 0
EndSplineSet
EndChar

StartChar: Egrave
Encoding: 135 200 181
Width: 611
Flags: MW
HStem: -3 42<287 406> 0 20 330 42<302 356> 650 42
VStem: 121 95<120 327 375 569 569 569>
LayerCount: 2
Fore
SplineSet
34 27 m 1x88
 70 30 l 2
 117 34 120 39 121 120 c 2
 121 569 l 2
 120 650 116 656 70 659 c 2
 22 662 l 1
 22 692 l 1
 117 690 159 689 200 689 c 0
 222 689 268 690 333 691 c 0
 373 692 406 692 432 692 c 0
 478 692 508 691 556 689 c 1
 545 645 540 597 540 537 c 1
 505 537 l 1
 505 602 l 2
 505 625 502 630 478 636 c 0
 447 644 388 650 335 650 c 0
 267 650 247 649 216 642 c 1
 216 375 l 1
 251 373 278 372 326 372 c 0
 392 372 420 375 438 383 c 1
 443 391 445 400 446 409 c 2
 451 461 l 1
 481 461 l 1
 479 395 478 365 478 345 c 0
 478 324 479 300 481 234 c 1
 451 234 l 1
 446 293 l 1
 438 318 l 1
 420 327 393 330 319 330 c 0
 270 330 242 329 216 327 c 1
 216 47 l 1
 245 40 261 39 313 39 c 0xb8
 410 39 486 44 501 52 c 0
 510 56 519 73 526 101 c 0
 529 110 532 131 537 164 c 1
 572 164 l 1
 562 112 556 58 556 0 c 1x48
 464 -2 423 -3 389 -3 c 0x88
 359 -3 304 -2 228 -1 c 0
 196 0 174 0 158 0 c 0x48
 129 0 99 -1 34 -3 c 1
 34 27 l 1x88
347 737 m 1
 203 827 l 2
 170 847 163 856 163 874 c 0
 163 893 177 908 194 908 c 0
 208 908 227 897 249 875 c 2
 387 737 l 1
 347 737 l 1
EndSplineSet
EndChar

StartChar: Iacute
Encoding: 140 205 182
Width: 337
Flags: MW
HStem: -3 20 0 20
VStem: 121 95<120 569 120 569>
LayerCount: 2
Fore
SplineSet
315 662 m 1xa0
 267 659 l 2
 221 656 217 650 216 569 c 2
 216 120 l 2
 217 39 221 32 267 30 c 2
 315 27 l 1
 315 -3 l 1xa0
 256 -1 220 0 168 0 c 0x60
 116 0 81 -1 22 -3 c 1
 22 27 l 1
 70 30 l 2
 116 32 120 40 121 120 c 2
 121 569 l 2
 120 650 116 656 70 659 c 2
 22 662 l 1
 22 692 l 1
 82 690 118 689 168 689 c 0
 219 689 255 690 315 692 c 1
 315 662 l 1xa0
80 737 m 1
 218 875 l 2
 240 897 258 908 273 908 c 0
 290 908 304 893 304 874 c 0
 304 856 298 848 264 827 c 2
 120 737 l 1
 80 737 l 1
EndSplineSet
EndChar

StartChar: Icircumflex
Encoding: 141 206 183
Width: 337
Flags: MW
HStem: -3 20 0 20
VStem: 121 95<120 569 120 569>
LayerCount: 2
Fore
SplineSet
315 662 m 1xa0
 267 659 l 2
 221 656 217 650 216 569 c 2
 216 120 l 2
 217 40 221 32 267 30 c 2
 315 27 l 1
 315 -3 l 1xa0
 256 -1 220 0 168 0 c 0x60
 116 0 81 -1 22 -3 c 1
 22 27 l 1
 70 30 l 2
 116 32 120 40 121 120 c 2
 121 569 l 2
 120 650 116 656 70 659 c 2
 22 662 l 1
 22 692 l 1
 82 690 118 689 168 689 c 0
 219 689 255 690 315 692 c 1
 315 662 l 1xa0
138 908 m 1
 200 908 l 1
 325 741 l 1
 290 741 l 1
 169 844 l 1
 48 741 l 1
 13 741 l 1
 138 908 l 1
EndSplineSet
EndChar

StartChar: Idieresis
Encoding: 142 207 184
Width: 337
Flags: MW
HStem: -3 20 0 20 768 100<54.5 84 253.5 283>
VStem: 19 100<803 833> 121 95<120 569 120 569> 218 100<803 833>
CounterMasks: 1 1c
LayerCount: 2
Fore
SplineSet
315 662 m 1x9c
 267 659 l 2
 221 656 217 650 216 569 c 2
 216 120 l 2
 217 40 221 32 267 30 c 2
 315 27 l 1
 315 -3 l 1xbc
 256 -1 220 0 168 0 c 0x5c
 116 0 81 -1 22 -3 c 1
 22 27 l 1
 70 30 l 2
 116 32 120 40 121 120 c 2
 121 569 l 2
 120 650 116 656 70 659 c 2
 22 662 l 1
 22 692 l 1
 82 690 118 689 168 689 c 0
 219 689 255 690 315 692 c 1
 315 662 l 1x9c
70 868 m 0
 99 868 119 848 119 818 c 0
 119 788 99 768 69 768 c 0
 39 768 19 788 19 818 c 0
 19 848 39 868 70 868 c 0
269 868 m 0
 298 868 318 848 318 818 c 0
 318 788 298 768 268 768 c 0
 238 768 218 788 218 818 c 0
 218 848 238 868 269 868 c 0
EndSplineSet
EndChar

StartChar: Igrave
Encoding: 139 204 185
Width: 337
Flags: MW
HStem: -3 20 0 20
VStem: 121 95<120 569 120 569>
LayerCount: 2
Fore
SplineSet
315 662 m 1xa0
 267 659 l 2
 221 656 217 650 216 569 c 2
 216 120 l 2
 217 39 221 32 267 30 c 2
 315 27 l 1
 315 -3 l 1xa0
 256 -1 220 0 168 0 c 0x60
 116 0 81 -1 22 -3 c 1
 22 27 l 1
 70 30 l 2
 116 32 120 40 121 120 c 2
 121 569 l 2
 120 650 116 656 70 659 c 2
 22 662 l 1
 22 692 l 1
 82 690 118 689 168 689 c 0
 219 689 255 690 315 692 c 1
 315 662 l 1xa0
210 737 m 1
 66 827 l 2
 33 847 26 856 26 874 c 0
 26 893 40 908 57 908 c 0
 71 908 90 897 112 875 c 2
 250 737 l 1
 210 737 l 1
EndSplineSet
EndChar

StartChar: Ntilde
Encoding: 144 209 186
Width: 831
Flags: MW
HStem: 0 20 766 55<488 501> 811 55<329.5 340.5>
VStem: 112 46<120 569 569 569> 672 46<98 569>
LayerCount: 2
Fore
SplineSet
17 27 m 1xd8
 61 30 l 2
 108 34 111 39 112 120 c 2
 112 569 l 2
 111 650 108 655 61 659 c 2
 17 662 l 1
 17 692 l 1
 73 690 80 690 137 689 c 1
 191 692 l 1
 672 98 l 1
 672 569 l 2
 671 650 668 655 621 659 c 2
 577 662 l 1
 577 692 l 1
 645 690 672 689 694 689 c 0
 716 689 748 690 813 692 c 1
 813 662 l 1
 769 659 l 2
 722 655 719 650 718 569 c 2
 718 17 l 2
 718 12 719 2 720 -8 c 0
 721 -15 721 -16 721 -20 c 2
 631 -4 l 1
 158 584 l 1
 158 120 l 2
 159 39 162 34 209 30 c 2
 253 27 l 1
 253 -3 l 1
 182 -1 152 0 133 0 c 0
 113 0 89 -1 17 -3 c 1
 17 27 l 1xd8
553 871 m 1
 582 871 l 1
 578 813 529 766 473 766 c 0x58
 450 766 434 771 405 785 c 0
 368 804 348 811 333 811 c 0x38
 310 811 294 797 281 766 c 1
 252 766 l 1x58
 265 831 302 866 357 866 c 0x38
 383 866 389 864 449 835 c 0
 470 825 482 821 494 821 c 0
 522 821 537 834 553 871 c 1
EndSplineSet
EndChar

StartChar: Oacute
Encoding: 146 211 187
Width: 786
Flags: MW
HStem: -20 42<325.5 482> 667 42<303 471>
VStem: 22 107<271 451.5> 657 107<257 441>
LayerCount: 2
Fore
SplineSet
402 709 m 0
 624 709 764 577 764 367 c 0
 764 147 594 -20 370 -20 c 0
 168 -20 22 131 22 341 c 0
 22 562 174 709 402 709 c 0
385 667 m 0
 221 667 129 563 129 378 c 0
 129 164 241 22 410 22 c 0
 566 22 657 139 657 337 c 0
 657 545 557 667 385 667 c 0
311 737 m 1
 449 875 l 2
 471 897 489 908 504 908 c 0
 521 908 535 893 535 874 c 0
 535 856 529 848 495 827 c 2
 351 737 l 1
 311 737 l 1
EndSplineSet
EndChar

StartChar: Ocircumflex
Encoding: 147 212 188
Width: 786
Flags: MW
HStem: -20 42<325.5 482> 667 42<303 471>
VStem: 22 107<271 451.5> 657 107<257 441>
LayerCount: 2
Fore
SplineSet
402 709 m 0
 624 709 764 577 764 367 c 0
 764 147 594 -20 370 -20 c 0
 168 -20 22 131 22 341 c 0
 22 562 174 709 402 709 c 0
385 667 m 0
 221 667 129 563 129 378 c 0
 129 164 241 22 410 22 c 0
 566 22 657 139 657 337 c 0
 657 545 557 667 385 667 c 0
363 908 m 1
 425 908 l 1
 550 741 l 1
 515 741 l 1
 394 844 l 1
 273 741 l 1
 238 741 l 1
 363 908 l 1
EndSplineSet
EndChar

StartChar: Odieresis
Encoding: 149 214 189
Width: 786
Flags: MW
HStem: -20 42<325.5 482> 667 42<303 471> 768 100<279.5 309 478.5 508>
VStem: 22 107<271 451.5> 244 100<803 833> 443 100<803 833> 657 107<257 441>
LayerCount: 2
Fore
SplineSet
402 709 m 0
 624 709 764 577 764 367 c 0
 764 147 594 -20 370 -20 c 0
 168 -20 22 131 22 341 c 0
 22 562 174 709 402 709 c 0
385 667 m 0
 221 667 129 563 129 378 c 0
 129 164 241 22 410 22 c 0
 566 22 657 139 657 337 c 0
 657 545 557 667 385 667 c 0
295 868 m 0
 324 868 344 848 344 818 c 0
 344 788 324 768 294 768 c 0
 264 768 244 788 244 818 c 0
 244 848 264 868 295 868 c 0
494 868 m 0
 523 868 543 848 543 818 c 0
 543 788 523 768 493 768 c 0
 463 768 443 788 443 818 c 0
 443 848 463 868 494 868 c 0
EndSplineSet
EndChar

StartChar: Ograve
Encoding: 145 210 190
Width: 786
Flags: MW
HStem: -20 42<325.5 482> 667 42<303 471>
VStem: 22 107<271 451.5> 657 107<257 441>
LayerCount: 2
Fore
SplineSet
402 709 m 0
 624 709 764 577 764 367 c 0
 764 147 594 -20 370 -20 c 0
 168 -20 22 131 22 341 c 0
 22 562 174 709 402 709 c 0
385 667 m 0
 221 667 129 563 129 378 c 0
 129 164 241 22 410 22 c 0
 566 22 657 139 657 337 c 0
 657 545 557 667 385 667 c 0
434 737 m 1
 290 827 l 2
 257 848 250 856 250 874 c 0
 250 893 264 908 281 908 c 0
 296 908 314 897 336 875 c 2
 474 737 l 1
 434 737 l 1
EndSplineSet
EndChar

StartChar: Otilde
Encoding: 148 213 191
Width: 786
Flags: MW
HStem: -20 42<325.5 482> 667 42<303 471> 766 55<465 478.5> 811 55<307.5 318.5>
VStem: 22 107<271 451.5> 657 107<257 441>
LayerCount: 2
Fore
SplineSet
402 709 m 0xec
 624 709 764 577 764 367 c 0
 764 147 594 -20 370 -20 c 0
 168 -20 22 131 22 341 c 0
 22 562 174 709 402 709 c 0xec
385 667 m 0
 221 667 129 563 129 378 c 0
 129 164 241 22 410 22 c 0
 566 22 657 139 657 337 c 0
 657 545 557 667 385 667 c 0
530 871 m 1
 559 871 l 1
 555 813 507 766 450 766 c 0x2c
 428 766 411 771 382 785 c 0
 346 804 326 811 311 811 c 0x1c
 287 811 271 797 258 766 c 1
 229 766 l 1x2c
 243 831 280 866 335 866 c 0x1c
 360 866 366 864 427 835 c 0
 448 824 459 821 471 821 c 0
 499 821 515 834 530 871 c 1
EndSplineSet
EndChar

StartChar: Scaron
Encoding: 287 352 192
Width: 525
Flags: MW
HStem: -20 44<199.5 290> 667 42<215 278.5>
VStem: 24 84<484.5 549.5> 419 84<157.5 198>
LayerCount: 2
Fore
SplineSet
447 526 m 1
 415 526 l 1
 409 583 l 2
 406 612 395 627 362 644 c 0
 335 659 298 667 259 667 c 0
 171 667 108 607 108 523 c 0
 108 446 151 413 273 397 c 0
 354 386 380 380 411 367 c 0
 476 340 503 299 503 230 c 0
 503 85 377 -20 203 -20 c 0
 144 -20 87 -8 30 18 c 1
 36 62 37 94 37 171 c 1
 69 171 l 1
 77 104 l 2
 82 62 160 24 239 24 c 0
 344 24 419 89 419 179 c 0
 419 217 407 246 381 267 c 0
 354 290 319 301 243 312 c 0
 146 325 100 341 66 372 c 0
 37 399 24 434 24 484 c 0
 24 615 132 709 281 709 c 0
 337 709 381 699 461 667 c 1
 451 615 447 580 447 526 c 1
263 805 m 1
 385 908 l 1
 419 908 l 1
 294 741 l 1
 232 741 l 1
 107 908 l 1
 142 908 l 1
 263 805 l 1
EndSplineSet
EndChar

StartChar: Uacute
Encoding: 153 218 193
Width: 778
Flags: MW
HStem: -20 62<335.5 429.5>
VStem: 111 95<214 225 225 569> 618 46<249 280 280 569>
LayerCount: 2
Fore
SplineSet
759 662 m 1
 715 659 l 2
 668 655 665 650 664 569 c 2
 664 280 l 2
 664 169 642 94 595 46 c 0
 550 1 481 -20 378 -20 c 0
 278 -20 207 1 167 42 c 0
 129 81 111 136 111 214 c 2
 111 569 l 2
 110 650 106 656 60 659 c 2
 12 662 l 1
 12 692 l 1
 72 690 108 689 158 689 c 0
 209 689 245 690 305 692 c 1
 305 662 l 1
 257 659 l 2
 211 657 207 649 206 569 c 2
 206 225 l 2
 206 97 266 42 405 42 c 0
 550 42 618 108 618 249 c 2
 618 569 l 2
 617 650 614 655 567 659 c 2
 523 662 l 1
 523 692 l 1
 592 690 619 689 640 689 c 0
 662 689 694 690 759 692 c 1
 759 662 l 1
328 737 m 1
 466 875 l 2
 488 897 506 908 521 908 c 0
 538 908 552 893 552 874 c 0
 552 855 546 848 512 827 c 2
 368 737 l 1
 328 737 l 1
EndSplineSet
EndChar

StartChar: Ucircumflex
Encoding: 154 219 194
Width: 778
Flags: MW
HStem: -20 62<335.5 429.5>
VStem: 111 95<214 225 225 569> 618 46<249 280 280 569>
LayerCount: 2
Fore
SplineSet
759 662 m 1
 715 659 l 2
 668 655 665 650 664 569 c 2
 664 280 l 2
 664 169 642 94 595 46 c 0
 550 1 481 -20 378 -20 c 0
 278 -20 207 1 167 42 c 0
 129 81 111 136 111 214 c 2
 111 569 l 2
 110 650 106 656 60 659 c 2
 12 662 l 1
 12 692 l 1
 72 690 108 689 158 689 c 0
 209 689 245 690 305 692 c 1
 305 662 l 1
 257 659 l 2
 211 657 207 649 206 569 c 2
 206 225 l 2
 206 97 266 42 405 42 c 0
 550 42 618 108 618 249 c 2
 618 569 l 2
 617 650 614 655 567 659 c 2
 523 662 l 1
 523 692 l 1
 592 690 619 689 640 689 c 0
 662 689 694 690 759 692 c 1
 759 662 l 1
384 908 m 1
 446 908 l 1
 571 741 l 1
 536 741 l 1
 415 844 l 1
 294 741 l 1
 259 741 l 1
 384 908 l 1
EndSplineSet
EndChar

StartChar: Udieresis
Encoding: 155 220 195
Width: 778
Flags: MW
HStem: -20 62<335.5 429.5> 768 100<289.5 319 488.5 518>
VStem: 111 95<214 225 225 569> 254 100<803 833> 453 100<803 833> 618 46<249 280 280 569>
LayerCount: 2
Fore
SplineSet
759 662 m 1
 715 659 l 2
 668 655 665 650 664 569 c 2
 664 280 l 2
 664 169 642 94 595 46 c 0
 550 1 481 -20 378 -20 c 0
 278 -20 207 1 167 42 c 0
 129 81 111 136 111 214 c 2
 111 569 l 2
 110 650 106 656 60 659 c 2
 12 662 l 1
 12 692 l 1
 72 690 108 689 158 689 c 0
 209 689 245 690 305 692 c 1
 305 662 l 1
 257 659 l 2
 211 657 207 649 206 569 c 2
 206 225 l 2
 206 97 266 42 405 42 c 0
 550 42 618 108 618 249 c 2
 618 569 l 2
 617 650 614 655 567 659 c 2
 523 662 l 1
 523 692 l 1
 592 690 619 689 640 689 c 0
 662 689 694 690 759 692 c 1
 759 662 l 1
305 868 m 0
 334 868 354 848 354 818 c 0
 354 788 334 768 304 768 c 0
 274 768 254 788 254 818 c 0
 254 848 274 868 305 868 c 0
504 868 m 0
 533 868 553 848 553 818 c 0
 553 788 533 768 503 768 c 0
 473 768 453 788 453 818 c 0
 453 848 473 868 504 868 c 0
EndSplineSet
EndChar

StartChar: Ugrave
Encoding: 152 217 196
Width: 778
Flags: MW
HStem: -20 62<335.5 429.5>
VStem: 111 95<214 225 225 569> 618 46<249 280 280 569>
LayerCount: 2
Fore
SplineSet
759 662 m 1
 715 659 l 2
 668 655 665 650 664 569 c 2
 664 280 l 2
 664 169 642 94 595 46 c 0
 550 1 481 -20 378 -20 c 0
 278 -20 207 1 167 42 c 0
 129 81 111 136 111 214 c 2
 111 569 l 2
 110 650 106 656 60 659 c 2
 12 662 l 1
 12 692 l 1
 72 690 108 689 158 689 c 0
 209 689 245 690 305 692 c 1
 305 662 l 1
 257 659 l 2
 211 657 207 649 206 569 c 2
 206 225 l 2
 206 97 266 42 405 42 c 0
 550 42 618 108 618 249 c 2
 618 569 l 2
 617 650 614 655 567 659 c 2
 523 662 l 1
 523 692 l 1
 592 690 619 689 640 689 c 0
 662 689 694 690 759 692 c 1
 759 662 l 1
454 737 m 1
 311 827 l 2
 278 847 271 856 271 874 c 0
 271 893 285 908 302 908 c 0
 316 908 335 897 357 875 c 2
 495 737 l 1
 454 737 l 1
EndSplineSet
EndChar

StartChar: Yacute
Encoding: 156 221 197
Width: 667
Flags: MW
HStem: -3 20 0 20 685 20<129 129>
VStem: 299 95<120 249 120 262 120 270.5>
LayerCount: 2
Fore
SplineSet
9 680 m 1x90
 124 704 l 2
 127 705 129 705 129 705 c 2
 147 707 188 660 220 602 c 2
 363 341 l 1
 466 504 l 2
 506 567 536 621 574 694 c 1
 654 694 l 1
 654 679 l 1
 576 586 541 539 466 426 c 0
 405 330 393 303 394 249 c 2
 394 120 l 2
 395 40 399 32 445 30 c 2
 493 27 l 1
 493 -3 l 1xb0
 434 -1 398 0 346 0 c 0x50
 294 0 258 -1 200 -3 c 1
 200 27 l 1
 248 30 l 2
 294 32 298 40 299 120 c 2
 299 262 l 2
 299 279 296 292 290 302 c 2
 166 518 l 2
 124 591 73 643 38 648 c 2
 9 651 l 1
 9 680 l 1x90
276 737 m 1
 414 875 l 2
 436 897 454 908 469 908 c 0
 486 908 500 893 500 874 c 0
 500 856 494 848 460 827 c 2
 316 737 l 1
 276 737 l 1
EndSplineSet
EndChar

StartChar: Ydieresis
Encoding: 311 376 198
Width: 667
Flags: MW
HStem: -3 20 0 20 685 20<129 129> 768 100<237.5 267 436.5 466>
VStem: 202 100<803 833> 299 95<120 249 120 262 120 270.5> 401 100<803 833>
LayerCount: 2
Fore
SplineSet
9 680 m 1x84
 124 704 l 2
 127 705 129 705 129 705 c 2
 147 707 188 660 220 602 c 2
 363 341 l 1
 466 504 l 2
 506 567 536 621 574 694 c 1
 654 694 l 1
 654 679 l 1
 576 586 541 539 466 426 c 0
 405 330 393 303 394 249 c 2
 394 120 l 2
 395 40 399 32 445 30 c 2
 493 27 l 1
 493 -3 l 1xb4
 434 -1 398 0 346 0 c 0x44
 294 0 258 -1 200 -3 c 1
 200 27 l 1
 248 30 l 2
 294 32 298 40 299 120 c 2
 299 262 l 2
 299 279 296 292 290 302 c 2
 166 518 l 2
 124 591 73 643 38 648 c 2
 9 651 l 1
 9 680 l 1x84
253 868 m 0
 282 868 302 848 302 818 c 0
 302 788 282 768 252 768 c 0
 222 768 202 788 202 818 c 0xba
 202 848 222 868 253 868 c 0
452 868 m 0
 481 868 501 848 501 818 c 0
 501 788 481 768 451 768 c 0
 421 768 401 788 401 818 c 0
 401 848 421 868 452 868 c 0
EndSplineSet
EndChar

StartChar: Zcaron
Encoding: 316 381 199
Width: 667
Flags: MW
HStem: -3 20 0 44<327 355 327 327> 648 41<427 477 427 500>
LayerCount: 2
Fore
SplineSet
637 663 m 1xa0
 151 44 l 1
 424 44 l 2x40
 580 45 590 49 598 116 c 2
 604 173 l 1
 638 173 l 1
 633 119 632 83 632 -3 c 1x80
 484 -1 392 0 355 0 c 2
 327 0 l 1x40
 15 -3 l 1
 15 25 l 1
 79 101 98 123 112 142 c 2
 414 530 l 2
 428 548 442 565 455 583 c 0
 475 608 485 623 500 648 c 1
 272 648 l 2
 145 646 122 639 120 601 c 2
 114 530 l 1
 80 530 l 1
 82 567 83 585 83 611 c 0
 83 637 82 655 80 692 c 1
 245 691 l 1
 427 689 l 1
 477 689 l 1
 633 692 l 1
 637 663 l 1xa0
345 805 m 1
 467 908 l 1
 501 908 l 1
 376 741 l 1
 314 741 l 1
 189 908 l 1
 224 908 l 1
 345 805 l 1
EndSplineSet
EndChar

StartChar: aacute
Encoding: 160 225 200
Width: 500
Flags: MW
HStem: -12 57<118 212.5> 0 20 416 53<224 235>
VStem: 32 86<103 143.5 103 154> 324 80<82 270 124 256 256 256 87 288>
LayerCount: 2
Fore
SplineSet
324 82 m 1x78
 200 -4 l 2
 193 -9 177 -12 158 -12 c 0x98
 78 -12 32 33 32 110 c 0
 32 198 89 245 225 270 c 2
 324 288 l 1
 321 379 282 416 188 416 c 0
 142 416 132 409 111 362 c 2
 98 331 l 1
 72 338 l 1
 72 403 l 1
 125 435 l 2
 163 458 202 469 246 469 c 0
 362 469 404 416 404 270 c 2
 404 87 l 2
 405 35 406 32 432 29 c 2
 471 27 l 1
 471 -3 l 1
 450 -2 l 2
 416 0 410 0 397 0 c 0
 383 0 368 -1 319 -3 c 1
 324 82 l 1x78
324 124 m 1
 324 256 l 1
 248 245 193 231 167 216 c 0
 138 197 118 162 118 125 c 0
 118 81 152 45 193 45 c 0
 232 45 295 83 324 124 c 1
162 506 m 1
 300 644 l 2
 321 666 340 677 355 677 c 0
 372 677 386 662 386 643 c 0
 386 625 380 617 346 596 c 2
 202 506 l 1
 162 506 l 1
EndSplineSet
EndChar

StartChar: acircumflex
Encoding: 161 226 201
Width: 500
Flags: MW
HStem: -12 57<118 212.5> 0 20 416 53<224 235>
VStem: 32 86<103 143.5 103 154> 324 80<82 270 124 256 256 256 87 288>
LayerCount: 2
Fore
SplineSet
324 82 m 1x78
 200 -4 l 2
 193 -9 177 -12 158 -12 c 0x98
 78 -12 32 33 32 110 c 0
 32 198 89 245 225 270 c 2
 324 288 l 1
 321 379 282 416 188 416 c 0
 142 416 132 409 111 362 c 2
 98 331 l 1
 72 338 l 1
 72 403 l 1
 125 435 l 2
 163 458 202 469 246 469 c 0
 362 469 404 416 404 270 c 2
 404 87 l 2
 405 35 406 32 432 29 c 2
 471 27 l 1
 471 -3 l 1
 450 -2 l 2
 416 0 410 0 397 0 c 0
 383 0 368 -1 319 -3 c 1
 324 82 l 1x78
324 124 m 1
 324 256 l 1
 248 245 193 231 167 216 c 0
 138 197 118 162 118 125 c 0
 118 81 152 45 193 45 c 0
 232 45 295 83 324 124 c 1
207 677 m 1
 269 677 l 1
 394 510 l 1
 359 510 l 1
 238 613 l 1
 117 510 l 1
 82 510 l 1
 207 677 l 1
EndSplineSet
EndChar

StartChar: adieresis
Encoding: 163 228 202
Width: 500
Flags: MW
HStem: -12 57<118 212.5> 0 20 416 53<224 235> 537 100<127.5 157 326.5 356>
VStem: 32 86<103 143.5 103 154> 92 100<572 602> 291 100<572 602> 324 80<82 270 124 256 256 256 87 288>
LayerCount: 2
Fore
SplineSet
324 82 m 1x69
 200 -4 l 2
 193 -9 177 -12 158 -12 c 0x99
 78 -12 32 33 32 110 c 0
 32 198 89 245 225 270 c 2
 324 288 l 1
 321 379 282 416 188 416 c 0
 142 416 132 409 111 362 c 2
 98 331 l 1
 72 338 l 1
 72 403 l 1
 125 435 l 2
 163 458 202 469 246 469 c 0
 362 469 404 416 404 270 c 2
 404 87 l 2
 405 35 406 32 432 29 c 2
 471 27 l 1
 471 -3 l 1
 450 -2 l 2
 416 0 410 0 397 0 c 0
 383 0 368 -1 319 -3 c 1
 324 82 l 1x69
324 124 m 1
 324 256 l 1
 248 245 193 231 167 216 c 0
 138 197 118 162 118 125 c 0
 118 81 152 45 193 45 c 0
 232 45 295 83 324 124 c 1
143 637 m 0
 172 637 192 617 192 587 c 0
 192 557 172 537 142 537 c 0
 112 537 92 557 92 587 c 0x96
 92 617 112 637 143 637 c 0
342 637 m 0
 371 637 391 617 391 587 c 0
 391 557 371 537 341 537 c 0
 311 537 291 557 291 587 c 0
 291 617 311 637 342 637 c 0
EndSplineSet
EndChar

StartChar: agrave
Encoding: 159 224 203
Width: 500
Flags: MW
HStem: -12 57<118 212.5> 0 20 416 53<224 235>
VStem: 32 86<103 143.5 103 154> 324 80<82 270 124 256 256 256 87 288>
LayerCount: 2
Fore
SplineSet
324 82 m 1x78
 200 -4 l 2
 193 -9 177 -12 158 -12 c 0x98
 78 -12 32 33 32 110 c 0
 32 198 89 245 225 270 c 2
 324 288 l 1
 321 379 282 416 188 416 c 0
 142 416 132 409 111 362 c 2
 98 331 l 1
 72 338 l 1
 72 403 l 1
 125 435 l 2
 163 458 202 469 246 469 c 0
 362 469 404 416 404 270 c 2
 404 87 l 2
 405 35 406 32 432 29 c 2
 471 27 l 1
 471 -3 l 1
 450 -2 l 2
 416 0 410 0 397 0 c 0
 383 0 368 -1 319 -3 c 1
 324 82 l 1x78
324 124 m 1
 324 256 l 1
 248 245 193 231 167 216 c 0
 138 197 118 162 118 125 c 0
 118 81 152 45 193 45 c 0
 232 45 295 83 324 124 c 1
299 506 m 1
 155 596 l 2
 122 616 115 625 115 643 c 0
 115 662 129 677 146 677 c 0
 160 677 179 666 201 644 c 2
 339 506 l 1
 299 506 l 1
EndSplineSet
EndChar

StartChar: aring
Encoding: 164 229 204
Width: 500
Flags: MW
HStem: -12 57<118 212.5> 0 20 416 53<224 235> 512 36<232 269.5 232 279> 676 36<233 270>
VStem: 32 86<103 143.5 103 154> 151 38<593 632 593 640.5> 313 38<592.5 631> 324 80<82 270 124 256 256 256 87 288>
LayerCount: 2
Fore
SplineSet
324 82 m 1x6680
 200 -4 l 2
 193 -9 177 -12 158 -12 c 0x9e80
 78 -12 32 33 32 110 c 0
 32 198 89 245 225 270 c 2
 324 288 l 1
 321 379 282 416 188 416 c 0
 142 416 132 409 111 362 c 2
 98 331 l 1
 72 338 l 1
 72 403 l 1
 125 435 l 2
 163 458 202 469 246 469 c 0
 362 469 404 416 404 270 c 2
 404 87 l 2
 405 35 406 32 432 29 c 2
 471 27 l 1
 471 -3 l 1
 450 -2 l 2
 416 0 410 0 397 0 c 0
 383 0 368 -1 319 -3 c 1
 324 82 l 1x6680
324 124 m 1
 324 256 l 1
 248 245 193 231 167 216 c 0
 138 197 118 162 118 125 c 0
 118 81 152 45 193 45 c 0
 232 45 295 83 324 124 c 1
253 712 m 0
 307 712 351 667 351 612 c 0x9b
 351 556 307 512 251 512 c 0
 195 512 151 556 151 613 c 0
 151 668 196 712 253 712 c 0
252 676 m 0
 214 676 189 651 189 613 c 0
 189 573 213 548 251 548 c 0
 288 548 313 573 313 612 c 0
 313 650 288 676 252 676 c 0
EndSplineSet
EndChar

StartChar: atilde
Encoding: 162 227 205
Width: 500
Flags: MW
HStem: -12 57<118 212.5> 0 20 416 53<224 235> 535 55<315 328> 580 55<156.5 167.5>
VStem: 32 86<103 143.5 103 154> 324 80<82 270 124 256 256 256 87 288>
LayerCount: 2
Fore
SplineSet
324 82 m 1x66
 200 -4 l 2
 193 -9 177 -12 158 -12 c 0x96
 78 -12 32 33 32 110 c 0
 32 198 89 245 225 270 c 2
 324 288 l 1
 321 379 282 416 188 416 c 0
 142 416 132 409 111 362 c 2
 98 331 l 1
 72 338 l 1
 72 403 l 1
 125 435 l 2
 163 458 202 469 246 469 c 0
 362 469 404 416 404 270 c 2
 404 87 l 2
 405 35 406 32 432 29 c 2
 471 27 l 1
 471 -3 l 1
 450 -2 l 2
 416 0 410 0 397 0 c 0
 383 0 368 -1 319 -3 c 1
 324 82 l 1x66
324 124 m 1
 324 256 l 1
 248 245 193 231 167 216 c 0
 138 197 118 162 118 125 c 0
 118 81 152 45 193 45 c 0
 232 45 295 83 324 124 c 1
380 640 m 1
 409 640 l 1
 404 582 356 535 300 535 c 0x16
 278 535 262 540 232 554 c 0
 195 573 175 580 160 580 c 0x0e
 137 580 120 566 108 535 c 1
 79 535 l 1x16
 92 600 129 635 184 635 c 0x0e
 209 635 219 632 274 605 c 0
 297 594 309 590 321 590 c 0
 349 590 364 603 380 640 c 1
EndSplineSet
EndChar

StartChar: ccedilla
Encoding: 166 231 206
Width: 444
Flags: MW
HStem: -225 36<222 248.5 222 274.5> -107 36<238.5 300.5> 417 52<272.5 276.5>
VStem: 26 88<184 254.5> 285 75<-160 -134.5>
LayerCount: 2
Fore
SplineSet
269 -20 m 1
 248 -75 l 1
 258 -72 264 -71 274 -71 c 0
 327 -71 360 -98 360 -141 c 0
 360 -193 313 -225 236 -225 c 0
 208 -225 197 -223 152 -209 c 1
 166 -178 l 1
 199 -187 213 -189 231 -189 c 0
 266 -189 285 -174 285 -146 c 0
 285 -123 269 -107 245 -107 c 0
 232 -107 223 -109 204 -114 c 1
 197 -108 l 1
 235 -19 l 1
 110 -9 26 82 26 210 c 0
 26 299 63 368 133 412 c 0
 193 450 248 469 297 469 c 0
 338 469 373 458 413 434 c 1
 404 398 399 357 399 311 c 1
 371 311 l 1
 364 372 l 1
 346 398 299 417 254 417 c 0
 164 417 114 357 114 250 c 0
 114 118 187 32 298 32 c 0
 334 32 365 40 403 61 c 1
 413 46 l 1
 392 14 l 2
 380 0 313 -19 269 -20 c 1
EndSplineSet
EndChar

StartChar: eacute
Encoding: 168 233 207
Width: 479
Flags: MW
HStem: -20 53<261.5 269> 230 34<223.5 265> 436 33<243 266>
LayerCount: 2
Fore
SplineSet
437 70 m 1
 417 36 l 2
 413 30 391 17 365 6 c 0
 324 -12 288 -20 250 -20 c 0
 174 -20 108 11 68 64 c 0
 41 102 26 156 26 218 c 0
 26 323 59 384 141 432 c 0
 182 456 225 469 261 469 c 0
 374 469 448 394 448 279 c 0
 448 267 447 258 446 244 c 1
 383 234 337 230 265 230 c 2
 119 230 l 1
 121 172 128 143 147 111 c 0
 175 62 229 33 294 33 c 0
 337 33 361 42 424 80 c 1
 437 70 l 1
359 267 m 1
 356 334 349 363 327 396 c 0
 309 423 283 436 249 436 c 0
 201 436 159 409 138 366 c 0
 125 339 121 317 121 270 c 1
 175 265 200 264 247 264 c 0
 284 264 308 265 359 267 c 1
151 506 m 1
 289 644 l 2
 311 666 329 677 344 677 c 0
 361 677 375 662 375 643 c 0
 375 625 368 617 335 596 c 2
 191 506 l 1
 151 506 l 1
EndSplineSet
EndChar

StartChar: ecircumflex
Encoding: 169 234 208
Width: 479
Flags: MW
HStem: -20 53<261.5 269> 230 34<223.5 265> 436 33<243 266>
LayerCount: 2
Fore
SplineSet
437 70 m 1
 417 36 l 2
 413 30 391 17 365 6 c 0
 324 -12 288 -20 250 -20 c 0
 174 -20 108 11 68 64 c 0
 41 102 26 156 26 218 c 0
 26 323 59 384 141 432 c 0
 182 456 225 469 261 469 c 0
 374 469 448 394 448 279 c 0
 448 267 447 258 446 244 c 1
 383 234 337 230 265 230 c 2
 119 230 l 1
 121 172 128 143 147 111 c 0
 175 62 229 33 294 33 c 0
 337 33 361 42 424 80 c 1
 437 70 l 1
359 267 m 1
 356 334 349 363 327 396 c 0
 309 423 283 436 249 436 c 0
 201 436 159 409 138 366 c 0
 125 339 121 317 121 270 c 1
 175 265 200 264 247 264 c 0
 284 264 308 265 359 267 c 1
209 677 m 1
 271 677 l 1
 396 510 l 1
 361 510 l 1
 240 613 l 1
 119 510 l 1
 84 510 l 1
 209 677 l 1
EndSplineSet
EndChar

StartChar: edieresis
Encoding: 170 235 209
Width: 479
Flags: MW
HStem: -20 53<261.5 269> 230 34<223.5 265> 436 33<243 266> 537 100<125.5 155 324.5 354>
VStem: 90 100<572 602> 289 100<572 602>
LayerCount: 2
Fore
SplineSet
437 70 m 1
 417 36 l 2
 413 30 391 17 365 6 c 0
 324 -12 288 -20 250 -20 c 0
 174 -20 108 11 68 64 c 0
 41 102 26 156 26 218 c 0
 26 323 59 384 141 432 c 0
 182 456 225 469 261 469 c 0
 374 469 448 394 448 279 c 0
 448 267 447 258 446 244 c 1
 383 234 337 230 265 230 c 2
 119 230 l 1
 121 172 128 143 147 111 c 0
 175 62 229 33 294 33 c 0
 337 33 361 42 424 80 c 1
 437 70 l 1
359 267 m 1
 356 334 349 363 327 396 c 0
 309 423 283 436 249 436 c 0
 201 436 159 409 138 366 c 0
 125 339 121 317 121 270 c 1
 175 265 200 264 247 264 c 0
 284 264 308 265 359 267 c 1
141 637 m 0
 170 637 190 617 190 587 c 0
 190 557 170 537 140 537 c 0
 110 537 90 557 90 587 c 0
 90 617 110 637 141 637 c 0
340 637 m 0
 369 637 389 617 389 587 c 0
 389 557 369 537 339 537 c 0
 309 537 289 557 289 587 c 0
 289 617 309 637 340 637 c 0
EndSplineSet
EndChar

StartChar: egrave
Encoding: 167 232 210
Width: 479
Flags: MW
HStem: -20 53<261.5 269> 230 34<223.5 265> 436 33<243 266>
LayerCount: 2
Fore
SplineSet
437 70 m 1
 417 36 l 2
 413 30 391 17 365 6 c 0
 324 -12 288 -20 250 -20 c 0
 174 -20 108 11 68 64 c 0
 41 102 26 156 26 218 c 0
 26 323 59 384 141 432 c 0
 182 456 225 469 261 469 c 0
 374 469 448 394 448 279 c 0
 448 267 447 258 446 244 c 1
 383 234 337 230 265 230 c 2
 119 230 l 1
 121 172 128 143 147 111 c 0
 175 62 229 33 294 33 c 0
 337 33 361 42 424 80 c 1
 437 70 l 1
359 267 m 1
 356 334 349 363 327 396 c 0
 309 423 283 436 249 436 c 0
 201 436 159 409 138 366 c 0
 125 339 121 317 121 270 c 1
 175 265 200 264 247 264 c 0
 284 264 308 265 359 267 c 1
288 506 m 1
 144 596 l 2
 111 617 104 625 104 643 c 0
 104 662 118 677 135 677 c 0
 150 677 168 666 190 644 c 2
 328 506 l 1
 288 506 l 1
EndSplineSet
EndChar

StartChar: iacute
Encoding: 172 237 211
Width: 287
Flags: MW
HStem: -3 20 0 20
VStem: 104 84<102 327 327 327>
LayerCount: 2
Fore
SplineSet
188 465 m 1xa0
 188 102 l 2
 189 36 190 34 225 30 c 2
 271 27 l 1
 271 -3 l 1xa0
 201 -1 172 0 146 0 c 0x60
 120 0 91 -1 21 -3 c 1
 21 27 l 1
 67 30 l 2
 101 33 104 37 104 102 c 2
 104 327 l 2
 103 395 101 399 60 400 c 2
 23 400 l 1
 23 428 l 1
 75 434 130 448 179 469 c 1
 188 465 l 1xa0
55 506 m 1
 193 644 l 2
 215 666 233 677 248 677 c 0
 265 677 279 662 279 643 c 0
 279 625 272 617 239 596 c 2
 95 506 l 1
 55 506 l 1
EndSplineSet
EndChar

StartChar: icircumflex
Encoding: 173 238 212
Width: 287
Flags: MW
HStem: -3 20 0 20
VStem: 104 84<102 327 327 327>
LayerCount: 2
Fore
SplineSet
188 465 m 1xa0
 188 102 l 2
 189 36 190 34 225 30 c 2
 271 27 l 1
 271 -3 l 1xa0
 201 -1 172 0 146 0 c 0x60
 120 0 91 -1 21 -3 c 1
 21 27 l 1
 67 30 l 2
 101 33 104 37 104 102 c 2
 104 327 l 2
 103 395 101 399 60 400 c 2
 23 400 l 1
 23 428 l 1
 75 434 130 448 179 469 c 1
 188 465 l 1xa0
113 677 m 1
 175 677 l 1
 300 510 l 1
 265 510 l 1
 144 613 l 1
 23 510 l 1
 -12 510 l 1
 113 677 l 1
EndSplineSet
EndChar

StartChar: idieresis
Encoding: 174 239 213
Width: 287
Flags: MW
HStem: -3 20 0 20 557 100<29.5 59 228.5 258>
VStem: -6 100<592 622> 104 84<102 327 327 327> 193 100<592 622>
LayerCount: 2
Fore
SplineSet
188 465 m 1x9c
 188 102 l 2
 189 36 190 34 225 30 c 2
 271 27 l 1
 271 -3 l 1xbc
 201 -1 172 0 146 0 c 0x5c
 120 0 91 -1 21 -3 c 1
 21 27 l 1
 67 30 l 2
 101 33 104 37 104 102 c 2
 104 327 l 2
 103 395 101 399 60 400 c 2
 23 400 l 1
 23 428 l 1
 75 434 130 448 179 469 c 1
 188 465 l 1x9c
45 657 m 0
 74 657 94 637 94 607 c 0
 94 577 74 557 44 557 c 0
 14 557 -6 577 -6 607 c 0
 -6 637 14 657 45 657 c 0
244 657 m 0
 273 657 293 637 293 607 c 0
 293 577 273 557 243 557 c 0
 213 557 193 577 193 607 c 0
 193 637 213 657 244 657 c 0
EndSplineSet
EndChar

StartChar: igrave
Encoding: 171 236 214
Width: 287
Flags: MW
HStem: -3 20 0 20
VStem: 104 84<102 327 327 327>
LayerCount: 2
Fore
SplineSet
188 465 m 1xa0
 188 102 l 2
 189 36 190 34 225 30 c 2
 271 27 l 1
 271 -3 l 1xa0
 201 -1 172 0 146 0 c 0x60
 120 0 91 -1 21 -3 c 1
 21 27 l 1
 67 30 l 2
 101 33 104 37 104 102 c 2
 104 327 l 2
 103 395 101 399 60 400 c 2
 23 400 l 1
 23 428 l 1
 75 434 130 448 179 469 c 1
 188 465 l 1xa0
192 506 m 1
 48 596 l 2
 15 617 8 625 8 643 c 0
 8 662 22 677 39 677 c 0
 54 677 72 666 94 644 c 2
 232 506 l 1
 192 506 l 1
EndSplineSet
EndChar

StartChar: ntilde
Encoding: 176 241 215
Width: 582
Flags: MW
HStem: -3 20 0 20 408 61<308.5 332.5> 535 55<358 371> 580 55<199.5 210.5>
VStem: 88 84<102 314> 410 84<102 281 281 295 102 319.5>
LayerCount: 2
Fore
SplineSet
410 -3 m 1x86
 410 281 l 2
 410 358 366 408 299 408 c 0
 238 408 172 359 172 314 c 2
 172 102 l 2
 172 37 174 33 209 30 c 2
 254 27 l 1
 254 -3 l 1xb6
 190 -1 162 0 130 0 c 0x46
 98 0 70 -1 6 -3 c 1
 6 27 l 1
 51 30 l 2
 85 33 88 37 88 102 c 2
 88 327 l 2
 87 395 85 399 44 400 c 2
 7 400 l 1
 7 428 l 1
 59 434 114 448 163 469 c 1
 172 465 l 1
 172 378 l 1
 248 444 l 2
 269 463 290 469 327 469 c 0
 439 469 494 412 494 295 c 2
 494 102 l 2
 495 37 496 33 531 30 c 2
 572 27 l 1
 572 -3 l 1xa6
 522 -1 504 0 489 0 c 0x46
 472 0 456 -1 410 -3 c 1x86
422 640 m 1
 451 640 l 1
 447 582 399 535 343 535 c 0x16
 320 535 304 540 274 554 c 0
 238 573 218 580 203 580 c 0x0e
 180 580 163 566 150 535 c 1
 121 535 l 1x16
 135 600 172 635 227 635 c 0x0e
 252 635 262 632 316 605 c 0
 339 594 352 590 364 590 c 0
 392 590 407 603 422 640 c 1
EndSplineSet
EndChar

StartChar: oacute
Encoding: 178 243 216
Width: 546
Flags: MW
HStem: -20 33<240 327> 436 33<217 307.5>
VStem: 32 93<180 291.5> 421 93<162 268>
LayerCount: 2
Fore
SplineSet
279 469 m 0
 416 469 514 373 514 237 c 0
 514 87 404 -20 250 -20 c 0
 120 -20 32 76 32 217 c 0
 32 366 133 469 279 469 c 0
261 436 m 0
 173 436 125 371 125 251 c 0
 125 109 191 13 289 13 c 0
 371 13 421 84 421 200 c 0
 421 336 354 436 261 436 c 0
179 506 m 1
 317 644 l 2
 339 666 358 677 372 677 c 0
 389 677 403 662 403 643 c 0
 403 625 396 617 363 596 c 2
 219 506 l 1
 179 506 l 1
EndSplineSet
EndChar

StartChar: ocircumflex
Encoding: 179 244 217
Width: 546
Flags: MW
HStem: -20 33<240 327> 436 33<217 307.5>
VStem: 32 93<180 291.5> 421 93<162 268>
LayerCount: 2
Fore
SplineSet
279 469 m 0
 416 469 514 373 514 237 c 0
 514 87 404 -20 250 -20 c 0
 120 -20 32 76 32 217 c 0
 32 366 133 469 279 469 c 0
261 436 m 0
 173 436 125 371 125 251 c 0
 125 109 191 13 289 13 c 0
 371 13 421 84 421 200 c 0
 421 336 354 436 261 436 c 0
236 677 m 1
 298 677 l 1
 423 510 l 1
 388 510 l 1
 267 613 l 1
 146 510 l 1
 111 510 l 1
 236 677 l 1
EndSplineSet
EndChar

StartChar: odieresis
Encoding: 181 246 218
Width: 546
Flags: MW
HStem: -20 33<240 327> 436 33<217 307.5> 537 100<152.5 182 351.5 381>
VStem: 32 93<180 291.5> 117 100<572 602> 316 100<572 602> 421 93<162 268>
LayerCount: 2
Fore
SplineSet
279 469 m 0xf2
 416 469 514 373 514 237 c 0
 514 87 404 -20 250 -20 c 0
 120 -20 32 76 32 217 c 0
 32 366 133 469 279 469 c 0xf2
261 436 m 0
 173 436 125 371 125 251 c 0
 125 109 191 13 289 13 c 0
 371 13 421 84 421 200 c 0
 421 336 354 436 261 436 c 0
168 637 m 0xec
 197 637 217 617 217 587 c 0
 217 557 197 537 167 537 c 0
 137 537 117 557 117 587 c 0
 117 617 137 637 168 637 c 0xec
367 637 m 0
 396 637 416 617 416 587 c 0
 416 557 396 537 366 537 c 0
 336 537 316 557 316 587 c 0
 316 617 336 637 367 637 c 0
EndSplineSet
EndChar

StartChar: ograve
Encoding: 177 242 219
Width: 546
Flags: MW
HStem: -20 33<240 327> 436 33<217 307.5>
VStem: 32 93<180 291.5> 421 93<162 268>
LayerCount: 2
Fore
SplineSet
279 469 m 0
 416 469 514 373 514 237 c 0
 514 87 404 -20 250 -20 c 0
 120 -20 32 76 32 217 c 0
 32 366 133 469 279 469 c 0
261 436 m 0
 173 436 125 371 125 251 c 0
 125 109 191 13 289 13 c 0
 371 13 421 84 421 200 c 0
 421 336 354 436 261 436 c 0
322 506 m 1
 178 596 l 2
 145 616 138 625 138 643 c 0
 138 662 152 677 169 677 c 0
 183 677 202 666 224 644 c 2
 362 506 l 1
 322 506 l 1
EndSplineSet
EndChar

StartChar: otilde
Encoding: 180 245 220
Width: 546
Flags: MW
HStem: -20 33<240 327> 436 33<217 307.5> 535 55<340 353> 580 55<181.5 192.5>
VStem: 32 93<180 291.5> 421 93<162 268>
LayerCount: 2
Fore
SplineSet
279 469 m 0xec
 416 469 514 373 514 237 c 0
 514 87 404 -20 250 -20 c 0
 120 -20 32 76 32 217 c 0
 32 366 133 469 279 469 c 0xec
261 436 m 0
 173 436 125 371 125 251 c 0
 125 109 191 13 289 13 c 0
 371 13 421 84 421 200 c 0
 421 336 354 436 261 436 c 0
404 640 m 1
 433 640 l 1
 429 582 381 535 325 535 c 0x2c
 302 535 286 540 256 554 c 0
 220 573 200 580 185 580 c 0x1c
 162 580 145 566 132 535 c 1
 103 535 l 1x2c
 117 600 154 635 209 635 c 0x1c
 234 635 244 632 298 605 c 0
 321 594 334 590 346 590 c 0
 374 590 389 603 404 640 c 1
EndSplineSet
EndChar

StartChar: scaron
Encoding: 288 353 221
Width: 424
Flags: MW
HStem: -20 37<159.5 231.5 159.5 232.5> 436 33<172 237>
VStem: 37 70<335 369> 317 74<98.5 128.5>
LayerCount: 2
Fore
SplineSet
41 143 m 1
 71 143 l 1
 71 102 l 2
 71 52 123 17 196 17 c 0
 267 17 317 55 317 109 c 0
 317 148 298 168 253 178 c 0
 185 193 132 209 105 221 c 0
 59 243 37 275 37 324 c 0
 37 414 108 469 224 469 c 0
 266 469 300 462 354 444 c 1
 351 413 350 389 349 331 c 1
 321 331 l 1
 321 354 l 2
 321 401 271 436 203 436 c 0
 141 436 107 408 107 358 c 0
 107 312 134 292 216 276 c 0
 305 259 337 247 363 222 c 0
 382 202 391 180 391 148 c 0
 391 49 298 -20 167 -20 c 0
 121 -20 83 -13 30 4 c 1
 38 44 41 74 41 143 c 1
213 574 m 1
 334 677 l 1
 369 677 l 1
 244 510 l 1
 182 510 l 1
 57 677 l 1
 92 677 l 1
 213 574 l 1
EndSplineSet
EndChar

StartChar: uacute
Encoding: 185 250 222
Width: 603
Flags: MW
HStem: -12 61<211.5 302.5> 0 20
VStem: 99 84<159 170 170 327 327 327> 419 84<74 89 164 327 327 327>
LayerCount: 2
Fore
SplineSet
503 465 m 1xb0
 503 102 l 2
 503 37 505 33 540 30 c 2
 581 27 l 1
 581 -3 l 1
 531 -1 513 0 498 0 c 0x70
 482 0 466 -1 415 -3 c 1
 418 41 419 59 419 89 c 1
 352 27 l 2
 324 2 286 -12 240 -12 c 0
 183 -12 145 3 123 33 c 0
 105 58 99 89 99 159 c 2
 99 327 l 2
 98 395 96 399 55 400 c 2
 18 400 l 1
 18 428 l 1
 70 434 125 448 174 469 c 1
 183 465 l 1
 183 170 l 2
 183 126 190 95 204 79 c 0
 220 60 248 49 283 49 c 0
 322 49 354 63 382 91 c 0
 405 114 419 142 419 164 c 2
 419 327 l 2
 418 395 416 399 375 400 c 2
 338 400 l 1
 338 428 l 1
 390 434 445 448 494 469 c 1
 503 465 l 1xb0
213 506 m 1
 351 644 l 2
 373 666 391 677 406 677 c 0
 423 677 437 662 437 643 c 0
 437 625 430 617 397 596 c 2
 253 506 l 1
 213 506 l 1
EndSplineSet
EndChar

StartChar: ucircumflex
Encoding: 186 251 223
Width: 603
Flags: MW
HStem: -12 61<211.5 302.5> 0 20
VStem: 99 84<159 170 170 327 327 327> 419 84<74 89 164 327 327 327>
LayerCount: 2
Fore
SplineSet
503 465 m 1xb0
 503 102 l 2
 503 37 505 33 540 30 c 2
 581 27 l 1
 581 -3 l 1
 531 -1 513 0 498 0 c 0x70
 482 0 466 -1 415 -3 c 1
 418 41 419 59 419 89 c 1
 352 27 l 2
 324 2 286 -12 240 -12 c 0
 183 -12 145 3 123 33 c 0
 105 58 99 89 99 159 c 2
 99 327 l 2
 98 395 96 399 55 400 c 2
 18 400 l 1
 18 428 l 1
 70 434 125 448 174 469 c 1
 183 465 l 1
 183 170 l 2
 183 126 190 95 204 79 c 0
 220 60 248 49 283 49 c 0
 322 49 354 63 382 91 c 0
 405 114 419 142 419 164 c 2
 419 327 l 2
 418 395 416 399 375 400 c 2
 338 400 l 1
 338 428 l 1
 390 434 445 448 494 469 c 1
 503 465 l 1xb0
271 677 m 1
 333 677 l 1
 458 510 l 1
 423 510 l 1
 302 613 l 1
 181 510 l 1
 146 510 l 1
 271 677 l 1
EndSplineSet
EndChar

StartChar: udieresis
Encoding: 187 252 224
Width: 603
Flags: MW
HStem: -12 61<211.5 302.5> 0 20 537 100<187.5 217 386.5 416>
VStem: 99 84<159 170 170 327 327 327> 152 100<572 602> 351 100<572 602> 419 84<74 89 164 327 327 327>
LayerCount: 2
Fore
SplineSet
503 465 m 1x92
 503 102 l 2
 503 37 505 33 540 30 c 2
 581 27 l 1
 581 -3 l 1
 531 -1 513 0 498 0 c 0x72
 482 0 466 -1 415 -3 c 1
 418 41 419 59 419 89 c 1
 352 27 l 2
 324 2 286 -12 240 -12 c 0
 183 -12 145 3 123 33 c 0
 105 58 99 89 99 159 c 2
 99 327 l 2
 98 395 96 399 55 400 c 2
 18 400 l 1
 18 428 l 1
 70 434 125 448 174 469 c 1
 183 465 l 1
 183 170 l 2
 183 126 190 95 204 79 c 0
 220 60 248 49 283 49 c 0
 322 49 354 63 382 91 c 0
 405 114 419 142 419 164 c 2
 419 327 l 2
 418 395 416 399 375 400 c 2
 338 400 l 1
 338 428 l 1
 390 434 445 448 494 469 c 1
 503 465 l 1x92
203 637 m 0
 232 637 252 617 252 587 c 0
 252 557 232 537 202 537 c 0
 172 537 152 557 152 587 c 0x6c
 152 617 172 637 203 637 c 0
402 637 m 0
 431 637 451 617 451 587 c 0
 451 557 431 537 401 537 c 0
 371 537 351 557 351 587 c 0
 351 617 371 637 402 637 c 0
EndSplineSet
EndChar

StartChar: ugrave
Encoding: 184 249 225
Width: 603
Flags: MW
HStem: -12 61<211.5 302.5> 0 20
VStem: 99 84<159 170 170 327 327 327> 419 84<74 89 164 327 327 327>
LayerCount: 2
Fore
SplineSet
503 465 m 1xb0
 503 102 l 2
 503 37 505 33 540 30 c 2
 581 27 l 1
 581 -3 l 1
 531 -1 513 0 498 0 c 0x70
 482 0 466 -1 415 -3 c 1
 418 41 419 59 419 89 c 1
 352 27 l 2
 324 2 286 -12 240 -12 c 0
 183 -12 145 3 123 33 c 0
 105 58 99 89 99 159 c 2
 99 327 l 2
 98 395 96 399 55 400 c 2
 18 400 l 1
 18 428 l 1
 70 434 125 448 174 469 c 1
 183 465 l 1
 183 170 l 2
 183 126 190 95 204 79 c 0
 220 60 248 49 283 49 c 0
 322 49 354 63 382 91 c 0
 405 114 419 142 419 164 c 2
 419 327 l 2
 418 395 416 399 375 400 c 2
 338 400 l 1
 338 428 l 1
 390 434 445 448 494 469 c 1
 503 465 l 1xb0
350 506 m 1
 206 596 l 2
 173 617 166 625 166 643 c 0
 166 662 180 677 197 677 c 0
 212 677 230 666 252 644 c 2
 390 506 l 1
 350 506 l 1
EndSplineSet
EndChar

StartChar: yacute
Encoding: 188 253 226
Width: 556
Flags: MW
HStem: -283 67<107 114.5>
LayerCount: 2
Fore
SplineSet
297 86 m 1
 416 378 l 2
 420 388 422 397 422 404 c 0
 422 418 408 427 380 429 c 2
 354 431 l 1
 354 459 l 1
 408 457 431 456 449 456 c 0
 467 456 490 457 544 459 c 1
 544 431 l 1
 516 429 l 2
 491 426 472 399 432 308 c 2
 229 -160 l 2
 191 -247 148 -283 81 -283 c 0
 62 -283 46 -279 27 -268 c 1
 51 -193 l 1
 64 -193 l 1
 80 -207 99 -216 115 -216 c 0
 153 -216 192 -170 224 -85 c 2
 247 -24 l 1
 229 26 219 50 191 118 c 2
 82 380 l 2
 67 415 55 427 30 429 c 2
 12 431 l 1
 12 459 l 1
 79 457 105 456 128 456 c 0
 151 456 178 457 244 459 c 1
 244 431 l 1
 206 429 l 2
 184 428 173 420 173 406 c 0
 173 394 176 380 182 364 c 2
 246 196 l 2
 264 147 275 124 297 86 c 1
190 506 m 1
 328 644 l 2
 349 666 368 677 383 677 c 0
 400 677 414 662 414 643 c 0
 414 625 408 617 374 596 c 2
 230 506 l 1
 190 506 l 1
EndSplineSet
EndChar

StartChar: ydieresis
Encoding: 190 255 227
Width: 556
Flags: MW
HStem: -283 67<107 114.5> 537 100<171.5 201 370.5 400>
VStem: 136 100<572 602> 335 100<572 602>
LayerCount: 2
Fore
SplineSet
297 86 m 1
 416 378 l 2
 420 388 422 397 422 404 c 0
 422 418 408 427 380 429 c 2
 354 431 l 1
 354 459 l 1
 408 457 431 456 449 456 c 0
 467 456 490 457 544 459 c 1
 544 431 l 1
 516 429 l 2
 491 426 472 399 432 308 c 2
 229 -160 l 2
 191 -247 148 -283 81 -283 c 0
 62 -283 46 -279 27 -268 c 1
 51 -193 l 1
 64 -193 l 1
 80 -207 99 -216 115 -216 c 0
 153 -216 192 -170 224 -85 c 2
 247 -24 l 1
 229 26 219 50 191 118 c 2
 82 380 l 2
 67 415 55 427 30 429 c 2
 12 431 l 1
 12 459 l 1
 79 457 105 456 128 456 c 0
 151 456 178 457 244 459 c 1
 244 431 l 1
 206 429 l 2
 184 428 173 420 173 406 c 0
 173 394 176 380 182 364 c 2
 246 196 l 2
 264 147 275 124 297 86 c 1
187 637 m 0
 216 637 236 617 236 587 c 0
 236 557 216 537 186 537 c 0
 156 537 136 557 136 587 c 0
 136 617 156 637 187 637 c 0
386 637 m 0
 415 637 435 617 435 587 c 0
 435 557 415 537 385 537 c 0
 355 537 335 557 335 587 c 0
 335 617 355 637 386 637 c 0
EndSplineSet
EndChar

StartChar: zcaron
Encoding: 317 382 228
Width: 500
Flags: MW
HStem: -3 20<16 22> 0 35<154 195> 424 35<294 335 294 341>
LayerCount: 2
Fore
SplineSet
455 432 m 1xa0
 141 35 l 1
 276 35 l 2x40
 378 36 413 42 418 60 c 2
 436 139 l 1
 466 139 l 1
 460 92 l 2
 453 45 451 20 451 -3 c 1x80
 305 -1 214 0 176 0 c 0x40
 132 0 97 -1 22 -3 c 1
 16 17 l 1
 67 75 81 92 106 122 c 2
 276 334 l 2
 303 368 320 391 341 424 c 1
 198 424 l 2
 121 423 107 419 102 398 c 2
 90 330 l 1
 60 330 l 1
 66 399 67 411 69 462 c 1
 192 460 274 459 314 459 c 0
 356 459 388 460 455 462 c 1
 455 432 l 1xa0
258 574 m 1
 380 677 l 1
 414 677 l 1
 289 510 l 1
 227 510 l 1
 102 677 l 1
 137 677 l 1
 258 574 l 1
EndSplineSet
EndChar

StartChar: nsuperior
Encoding: 597 8319 229
Width: 457
Flags: MW
HStem: 271 20 515 41<242 250.5>
VStem: 114 57<337 462 337 469 337 469> 287 57<337 442 442 450 337 465>
LayerCount: 2
Fore
SplineSet
287 271 m 1
 287 442 l 2
 287 488 267 515 234 515 c 0
 205 515 171 486 171 462 c 2
 171 337 l 1
 172 313 l 2
 173 301 175 299 190 297 c 2
 207 295 l 1
 207 271 l 1
 193 272 l 1
 177 272 l 2
 167 273 155 273 142 273 c 0
 139 273 117 272 78 271 c 1
 78 295 l 1
 95 297 l 2
 113 299 113 300 114 337 c 2
 114 469 l 2
 113 508 113 509 91 509 c 2
 79 509 l 1
 79 532 l 1
 88 533 l 2
 108 535 134 543 162 557 c 1
 171 553 l 1
 171 507 l 1
 204 541 l 2
 214 551 231 556 253 556 c 0
 313 556 344 521 344 450 c 2
 344 337 l 1
 345 313 l 2
 346 301 348 299 363 297 c 2
 377 295 l 1
 377 271 l 1
 371 271 367 271 366 272 c 2
 353 272 l 2
 348 273 342 273 336 273 c 0
 327 273 325 273 297 272 c 2
 287 271 l 1
EndSplineSet
EndChar

StartChar: ff
Encoding: 849 64256 230
Width: 615
Flags: MW
HStem: -3 20 0 20 662 66<229.5 299.5>
VStem: 104 84<102 385 102 385 434 476 476 476> 413 84<102 385 102 385 434 476 476 476>
LayerCount: 2
Fore
SplineSet
339 717 m 1xb8
 339 640 l 1
 327 634 l 1
 303 655 285 662 258 662 c 0
 201 662 188 635 188 519 c 2
 188 434 l 1
 319 438 l 1
 312 385 l 1
 188 385 l 1
 188 102 l 2
 189 36 190 34 225 30 c 2
 271 27 l 1
 271 -3 l 1xb8
 201 -1 172 0 146 0 c 0x58
 120 0 91 -1 21 -3 c 1
 21 27 l 1
 67 30 l 2
 101 33 104 37 104 102 c 2
 104 385 l 1
 35 381 l 1
 35 403 l 1
 104 434 l 1
 104 476 l 2
 105 546 117 587 146 620 c 2
 204 686 l 2
 227 712 261 728 292 728 c 0
 307 728 319 725 339 717 c 1xb8
648 717 m 1
 648 640 l 1
 636 634 l 1
 612 655 594 662 567 662 c 0
 510 662 497 635 497 519 c 2
 497 434 l 1
 628 438 l 1
 621 385 l 1
 497 385 l 1
 497 102 l 2
 498 36 499 34 534 30 c 2
 580 27 l 1
 580 -3 l 1xb8
 510 -1 481 0 455 0 c 0x58
 429 0 400 -1 330 -3 c 1
 330 27 l 1
 376 30 l 2
 410 33 412 37 413 102 c 2
 413 385 l 1
 344 381 l 1
 344 403 l 1
 413 434 l 1
 413 476 l 2
 414 546 426 587 455 620 c 2
 513 686 l 2
 536 712 570 728 602 728 c 0
 616 728 628 725 648 717 c 1
EndSplineSet
Ligature2: "'liga' Standard Ligatures in Latin lookup 16 subtable" f f
EndChar

StartChar: ffi
Encoding: 852 64259 231
Width: 887
Flags: MW
HStem: -3 20 0 20 576 111<733 761.5> 662 66<230.5 300.5>
VStem: 105 84<102 385 102 385 434 476 476 476> 401 84<102 385 102 385 434 476 476 476> 692 111<616.5 645 616.5 646> 701 84<102 325 325 325>
LayerCount: 2
Fore
SplineSet
340 717 m 1x9d
 340 640 l 1
 328 634 l 1
 304 655 286 662 259 662 c 0
 202 662 189 635 189 519 c 2
 189 434 l 1
 320 438 l 1
 313 385 l 1
 189 385 l 1
 189 102 l 2
 190 36 191 34 226 30 c 2
 272 27 l 1
 272 -3 l 1x9d
 202 -1 173 0 147 0 c 0x4d
 121 0 92 -1 22 -3 c 1
 22 27 l 1
 68 30 l 2
 102 33 105 37 105 102 c 2
 105 385 l 1
 36 381 l 1
 36 403 l 1
 105 434 l 1
 105 476 l 2
 106 546 118 587 147 620 c 2
 205 686 l 2
 228 712 262 728 293 728 c 0
 308 728 320 725 340 717 c 1x9d
636 717 m 1
 636 640 l 1
 624 634 l 1
 600 655 582 662 555 662 c 0
 498 662 485 635 485 519 c 2
 485 434 l 1
 606 438 l 1
 599 385 l 1
 485 385 l 1
 485 102 l 2
 486 37 487 34 522 30 c 2
 574 27 l 1
 574 -3 l 1x9d
 502 -1 471 0 444 0 c 0x4d
 417 0 388 -1 318 -3 c 1
 318 27 l 1
 364 30 l 2
 398 33 400 37 401 102 c 2
 401 385 l 1
 332 381 l 1
 332 403 l 1
 401 434 l 1
 401 476 l 2
 402 546 414 587 443 620 c 2
 501 686 l 2
 524 712 558 728 590 728 c 0
 604 728 616 725 636 717 c 1
785 462 m 1
 785 102 l 2
 786 36 787 34 822 30 c 2
 868 27 l 1
 868 -3 l 1xad
 798 -1 769 0 743 0 c 0x4d
 717 0 688 -1 618 -3 c 1
 618 27 l 1
 664 30 l 2
 698 33 701 37 701 102 c 2
 701 325 l 2
 700 393 698 397 657 398 c 2
 620 398 l 1
 620 426 l 1
 677 432 732 447 776 469 c 1
 785 462 l 1
748 687 m 0
 776 687 803 659 803 631 c 0
 803 602 776 576 747 576 c 0
 718 576 692 602 692 631 c 0xa2
 692 661 718 687 748 687 c 0
EndSplineSet
Ligature2: "'liga' Standard Ligatures in Latin lookup 15 subtable" f f i
EndChar

StartChar: ffl
Encoding: 853 64260 232
Width: 890
Flags: MW
HStem: -3 20 0 20 662 66<231.5 301.5>
VStem: 106 84<102 385 102 385 434 476 476 476> 392 84<102 385 102 385 434 476 476 476> 717 84<102 620 620 635>
LayerCount: 2
Fore
SplineSet
341 717 m 1xbc
 341 640 l 1
 329 634 l 1
 305 655 287 662 260 662 c 0
 203 662 190 635 190 519 c 2
 190 434 l 1
 321 438 l 1
 314 385 l 1
 190 385 l 1
 190 102 l 2
 191 36 192 34 227 30 c 2
 273 27 l 1
 273 -3 l 1xbc
 203 -1 174 0 148 0 c 0x5c
 122 0 93 -1 23 -3 c 1
 23 27 l 1
 69 30 l 2
 103 33 106 37 106 102 c 2
 106 385 l 1
 37 381 l 1
 37 403 l 1
 106 434 l 1
 106 476 l 2
 107 546 119 587 148 620 c 2
 206 686 l 2
 229 712 263 728 294 728 c 0
 309 728 321 725 341 717 c 1xbc
627 717 m 1
 627 640 l 1
 615 634 l 1
 591 655 573 662 546 662 c 0
 489 662 476 635 476 519 c 2
 476 434 l 1
 607 438 l 1
 600 385 l 1
 476 385 l 1
 476 102 l 2
 477 36 478 34 513 30 c 2
 559 27 l 1
 559 -3 l 1xbc
 489 -1 460 0 434 0 c 0x5c
 408 0 379 -1 309 -3 c 1
 309 27 l 1
 355 30 l 2
 389 33 392 37 392 102 c 2
 392 385 l 1
 323 381 l 1
 323 403 l 1
 392 434 l 1
 392 476 l 2
 393 546 405 587 434 620 c 2
 492 686 l 2
 515 712 549 728 580 728 c 0
 595 728 607 725 627 717 c 1
634 27 m 1
 680 30 l 2
 715 33 716 37 717 102 c 2
 717 620 l 2
 717 650 711 660 692 661 c 2
 636 661 l 1
 636 689 l 1
 714 701 748 709 792 726 c 1
 801 718 l 1
 801 102 l 2
 802 36 803 34 838 30 c 2
 884 27 l 1
 884 -3 l 1x9c
 814 -1 785 0 759 0 c 0x5c
 733 0 705 -1 634 -3 c 1
 634 27 l 1
EndSplineSet
Ligature2: "'liga' Standard Ligatures in Latin lookup 16 subtable" f f l
EndChar

StartChar: oneeighth
Encoding: 623 8539 233
Width: 747
Flags: MW
HStem: -12 27<571 619 571 626.5> 0 20 386 27<579 620>
VStem: 127 57<333 619 619 619> 466 49<75 121.5> 480 52<310 335> 669 47<307 339> 679 54<87.5 115.5>
LayerCount: 2
Fore
SplineSet
196 0 m 1x59
 144 0 l 1
 595 689 l 1
 647 689 l 1
 196 0 l 1x59
37 601 m 1
 32 631 l 1
 90 651 127 666 172 689 c 1
 184 685 l 1
 184 333 l 2
 184 304 189 299 219 297 c 2
 254 295 l 1
 254 271 l 1
 235 272 l 2
 182 273 156 273 155 273 c 0
 141 273 123 273 54 271 c 1
 54 295 l 1
 91 297 l 2
 122 299 127 304 127 333 c 2
 127 619 l 2
 126 630 126 632 125 635 c 2
 47 601 l 1
 37 601 l 1
545 207 m 1
 495 240 480 263 480 303 c 0
 480 367 533 413 606 413 c 0
 671 413 716 377 716 325 c 0xa6
 716 289 697 264 645 229 c 1
 710 199 733 172 733 125 c 0
 733 50 667 -12 586 -12 c 0xb9
 517 -12 466 34 466 97 c 0
 466 146 492 183 545 207 c 1
620 174 m 2xa9
 573 195 l 1
 531 169 515 143 515 101 c 0
 515 49 546 15 596 15 c 0
 642 15 679 52 679 100 c 0
 679 131 657 158 620 174 c 2xa9
586 256 m 2xa6
 617 241 l 1
 654 264 669 286 669 318 c 0
 669 360 641 386 599 386 c 0
 559 386 532 361 532 324 c 0
 532 296 550 273 586 256 c 2xa6
EndSplineSet
Ligature2: "'frac' Diagonal Fractions lookup 10 subtable" onesuperior fraction eightsuperior
Ligature2: "'frac' Diagonal Fractions lookup 10 subtable" onesuperior slash eightsuperior
Ligature2: "'frac' Diagonal Fractions lookup 10 subtable" one fraction eight
Ligature2: "'frac' Diagonal Fractions lookup 10 subtable" one slash eight
EndChar

StartChar: threeeighths
Encoding: 624 8540 234
Width: 747
Flags: MW
HStem: -12 27<571 619.5 571 627> 0 20 261 31<102.5 154> 386 27<579.5 621.5> 470 27<135 144 121.5 167> 640 46<118.5 149.5>
VStem: 198 56<578.5 593> 219 62<370.5 414> 466 49<75 121.5> 480 52<310 335> 670 47<307 339> 679 54<87.5 115.5>
LayerCount: 2
Fore
SplineSet
197 0 m 1x4090
 145 0 l 1
 596 689 l 1
 648 689 l 1
 197 0 l 1x4090
546 207 m 1
 496 240 480 263 480 303 c 0
 480 367 534 413 607 413 c 0
 673 413 717 378 717 325 c 0xbc60
 717 289 698 264 646 229 c 1
 711 199 733 173 733 125 c 0
 733 50 667 -12 587 -12 c 0xbc90
 517 -12 466 34 466 97 c 0
 466 146 493 183 546 207 c 1
621 174 m 2xbc90
 574 195 l 1
 532 169 515 143 515 101 c 0
 515 49 546 15 596 15 c 0
 643 15 679 52 679 100 c 0
 679 131 657 158 621 174 c 2xbc90
587 256 m 2xbe60
 618 241 l 1
 655 264 670 286 670 318 c 0
 670 360 643 386 600 386 c 0
 559 386 532 361 532 324 c 0
 532 296 550 274 587 256 c 2xbe60
22 567 m 1
 40 645 l 1
 72 676 97 686 140 686 c 0
 208 686 254 650 254 596 c 0xbe
 254 561 237 533 193 499 c 1
 253 487 281 459 281 408 c 0
 281 333 197 261 111 261 c 0
 85 261 71 264 27 277 c 1
 24 308 18 330 5 369 c 1
 27 377 l 1
 50 314 76 292 129 292 c 0
 184 292 219 330 219 388 c 0xbd
 219 440 191 470 143 470 c 0
 127 470 116 467 92 457 c 1
 85 463 l 1
 93 499 l 1
 102 498 119 497 124 497 c 0
 164 497 198 533 198 575 c 0
 198 611 168 640 131 640 c 0
 101 640 65 621 59 602 c 2
 47 567 l 1
 22 567 l 1
EndSplineSet
Ligature2: "'frac' Diagonal Fractions lookup 12 subtable" threesuperior fraction eightsuperior
Ligature2: "'frac' Diagonal Fractions lookup 12 subtable" threesuperior slash eightsuperior
Ligature2: "'frac' Diagonal Fractions lookup 12 subtable" three fraction eight
Ligature2: "'frac' Diagonal Fractions lookup 12 subtable" three slash eight
EndChar

StartChar: fiveeighths
Encoding: 625 8541 235
Width: 747
Flags: MW
HStem: -12 27<572.5 620.5 572.5 628> 0 20 261 33<105.5 150.5> 386 27<579 621> 496 47<145 158.5>
VStem: 221 58<382.5 426> 467 49<75 121.5> 480 52<310 335> 670 47<307 339> 680 54<87.5 115>
LayerCount: 2
Fore
SplineSet
173 0 m 1x4240
 121 0 l 1
 572 689 l 1
 624 689 l 1
 173 0 l 1x4240
546 207 m 1
 496 240 480 263 480 303 c 0
 480 367 534 413 607 413 c 0
 673 413 717 377 717 325 c 0xb980
 717 289 698 264 647 229 c 1
 711 199 734 173 734 125 c 0
 734 50 668 -12 588 -12 c 0xba40
 518 -12 467 34 467 97 c 0
 467 146 493 182 546 207 c 1
621 174 m 2xba40
 575 195 l 1
 532 169 516 143 516 101 c 0
 516 49 548 15 597 15 c 0
 644 15 680 53 680 100 c 0
 680 130 658 158 621 174 c 2xba40
587 256 m 2xbd80
 619 241 l 1
 655 264 670 286 670 318 c 0
 670 360 643 386 599 386 c 0
 559 386 532 361 532 324 c 0
 532 296 550 274 587 256 c 2xbd80
80 630 m 1
 75 516 l 1
 108 536 131 543 159 543 c 0
 229 543 279 494 279 426 c 0
 279 339 197 261 104 261 c 0
 77 261 53 266 35 276 c 1
 33 282 32 284 30 292 c 0
 24 309 18 323 7 351 c 2
 4 359 l 1
 24 370 l 1
 53 319 l 2
 61 304 90 294 121 294 c 0
 184 294 221 331 221 395 c 0
 221 457 186 496 131 496 c 0
 102 496 89 489 58 459 c 1
 42 464 l 1
 42 471 l 1
 43 480 l 2
 44 494 46 563 46 596 c 0
 46 617 46 627 44 681 c 1
 49 686 l 1
 82 684 123 683 155 683 c 0
 187 683 229 684 261 686 c 1
 266 681 l 1
 265 671 265 665 265 657 c 0
 265 648 265 642 266 632 c 1
 261 627 l 1
 243 627 l 2
 170 627 166 628 80 630 c 1
EndSplineSet
Ligature2: "'frac' Diagonal Fractions lookup 13 subtable" fivesuperior fraction eightsuperior
Ligature2: "'frac' Diagonal Fractions lookup 13 subtable" fivesuperior slash eightsuperior
Ligature2: "'frac' Diagonal Fractions lookup 13 subtable" five fraction eight
Ligature2: "'frac' Diagonal Fractions lookup 13 subtable" five slash eight
EndChar

StartChar: seveneighths
Encoding: 626 8542 236
Width: 747
Flags: MW
HStem: -12 27<571.5 619.5 571.5 627> 0 20 386 27<579 621> 629 54<143.5 188.5 143.5 240>
VStem: 466 49<75 121.5> 480 52<310 335> 670 47<307 339> 679 54<87.5 115>
LayerCount: 2
Fore
SplineSet
137 0 m 1x49
 85 0 l 1
 536 689 l 1
 588 689 l 1
 137 0 l 1x49
545 207 m 1
 496 240 480 263 480 303 c 0
 480 367 534 413 607 413 c 0
 673 413 717 378 717 325 c 0xb6
 717 289 698 263 646 229 c 1
 710 200 733 172 733 125 c 0
 733 50 667 -12 587 -12 c 0xb9
 517 -12 466 34 466 97 c 0
 466 146 493 183 545 207 c 1
621 174 m 2xb9
 574 195 l 1
 532 169 515 143 515 101 c 0
 515 49 547 15 596 15 c 0
 643 15 679 53 679 100 c 0
 679 130 657 158 621 174 c 2xb9
587 256 m 2xb6
 618 241 l 1
 655 264 670 286 670 318 c 0
 670 360 643 386 599 386 c 0
 559 386 532 361 532 324 c 0
 532 296 550 274 587 256 c 2xb6
30 282 m 1
 177 515 l 2
 199 550 218 583 240 629 c 1
 85 629 l 2
 59 628 57 626 52 591 c 2
 47 555 l 1
 23 555 l 1
 25 608 25 609 25 619 c 0
 25 626 25 626 24 666 c 2
 23 682 l 1
 32 686 l 1
 94 684 121 683 166 683 c 0
 211 683 235 684 290 686 c 2
 302 686 l 1
 302 664 l 1
 191 470 l 2
 151 398 123 339 96 271 c 1
 89 272 l 1
 78 273 l 1
 67 273 l 2
 62 273 62 273 44 272 c 2
 37 271 l 1
 30 282 l 1
EndSplineSet
Ligature2: "'frac' Diagonal Fractions lookup 14 subtable" sevensuperior fraction eightsuperior
Ligature2: "'frac' Diagonal Fractions lookup 14 subtable" sevensuperior slash eightsuperior
Ligature2: "'frac' Diagonal Fractions lookup 14 subtable" seven fraction eight
Ligature2: "'frac' Diagonal Fractions lookup 14 subtable" seven slash eight
EndChar

StartChar: zerosuperior
Encoding: 590 8304 237
Width: 310
Flags: MW
HStem: 261 27<127.5 182 127.5 194> 659 27<124.5 180>
VStem: 19 57<417 539.5> 230 57<415.5 532>
LayerCount: 2
Fore
SplineSet
162 686 m 0
 247 686 287 623 287 492 c 0
 287 339 240 261 148 261 c 0
 61 261 19 329 19 467 c 0
 19 612 68 686 162 686 c 0
152 659 m 0
 97 659 76 612 76 488 c 0
 76 346 99 288 156 288 c 0
 208 288 230 339 230 462 c 0
 230 602 208 659 152 659 c 0
EndSplineSet
EndChar

StartChar: foursuperior
Encoding: 591 8308 238
Width: 310
Flags: MW
HStem: 271 20 380 44<49 169 49 169 10 169 226 237 237 238.5>
VStem: 169 57<339 380 339 380 424 503>
LayerCount: 2
Fore
SplineSet
169 380 m 1
 10 380 l 1
 2 397 l 1
 173 673 l 1
 220 689 l 1
 231 685 l 1
 227 665 226 615 226 503 c 2
 226 424 l 1
 237 424 l 1
 239 424 l 2
 256 424 274 425 291 426 c 1
 291 377 l 1
 277 379 251 380 226 380 c 1
 226 339 l 2
 227 304 231 299 259 298 c 2
 291 296 l 1
 291 271 l 1
 269 272 l 2
 213 273 213 273 194 273 c 0
 176 273 176 273 117 272 c 2
 96 271 l 1
 96 296 l 1
 136 298 l 2
 164 299 168 304 169 339 c 2
 169 380 l 1
169 424 m 1
 169 617 l 1
 49 424 l 1
 169 424 l 1
EndSplineSet
EndChar

StartChar: fivesuperior
Encoding: 592 8309 239
Width: 310
Flags: MW
HStem: 261 33<106.5 151.5> 496 47<146 159.5>
VStem: 222 58<382.5 426>
LayerCount: 2
Fore
SplineSet
81 630 m 1
 76 516 l 1
 109 536 132 543 160 543 c 0
 230 543 280 494 280 426 c 0
 280 339 198 261 105 261 c 0
 78 261 54 266 36 276 c 1
 34 282 33 284 31 292 c 0
 25 309 19 323 8 351 c 2
 5 359 l 1
 25 370 l 1
 54 319 l 2
 62 304 91 294 122 294 c 0
 185 294 222 331 222 395 c 0
 222 457 187 496 132 496 c 0
 103 496 90 489 59 459 c 1
 43 464 l 1
 43 471 l 1
 44 480 l 2
 45 494 47 563 47 596 c 0
 47 617 47 627 45 681 c 1
 50 686 l 1
 83 684 124 683 156 683 c 0
 188 683 230 684 262 686 c 1
 267 681 l 1
 266 671 266 665 266 657 c 0
 266 648 266 642 267 632 c 1
 262 627 l 1
 244 627 l 2
 171 627 167 628 81 630 c 1
EndSplineSet
EndChar

StartChar: sixsuperior
Encoding: 593 8310 240
Width: 310
Flags: MW
HStem: 261 26<132.5 179.5 132.5 189.5> 479 42<165.5 180>
VStem: 21 61<372 416 367 469.5> 231 58<364 413.5>
LayerCount: 2
Fore
SplineSet
258 675 m 1
 258 666 l 1
 152 635 102 580 88 479 c 1
 92 482 92 482 95 485 c 0
 130 512 150 521 181 521 c 0
 246 521 289 475 289 405 c 0
 289 323 229 261 150 261 c 0
 70 261 21 322 21 422 c 0
 21 517 68 601 148 651 c 0
 170 664 184 670 233 686 c 1
 258 675 l 1
158 479 m 0
 130 479 103 466 90 446 c 0
 84 437 82 426 82 406 c 0
 82 328 108 287 157 287 c 0
 202 287 231 325 231 385 c 0
 231 442 202 479 158 479 c 0
EndSplineSet
EndChar

StartChar: sevensuperior
Encoding: 594 8311 241
Width: 310
Flags: MW
HStem: 271 20 629 54<148.5 193.5 148.5 245>
LayerCount: 2
Fore
SplineSet
35 282 m 1
 182 515 l 2
 204 550 223 583 245 629 c 1
 90 629 l 2
 64 628 62 626 57 591 c 2
 52 555 l 1
 28 555 l 1
 30 608 30 609 30 619 c 0
 30 626 30 626 29 666 c 2
 28 682 l 1
 37 686 l 1
 99 684 126 683 171 683 c 0
 216 683 240 684 295 686 c 2
 307 686 l 1
 307 664 l 1
 196 470 l 2
 156 398 128 339 101 271 c 1
 94 272 l 1
 83 273 l 1
 72 273 l 2
 67 273 67 273 49 272 c 2
 42 271 l 1
 35 282 l 1
EndSplineSet
EndChar

StartChar: eightsuperior
Encoding: 595 8312 242
Width: 310
Flags: MW
HStem: 261 27<124 172 124 180> 659 27<132 173.5>
VStem: 19 49<348.5 394.5> 33 52<583 608> 222 47<580 611.5> 232 54<360.5 388.5>
LayerCount: 2
Fore
SplineSet
98 480 m 1xe4
 49 513 33 536 33 576 c 0
 33 640 87 686 160 686 c 0
 225 686 269 650 269 598 c 0xd8
 269 562 250 536 199 502 c 1
 263 472 286 446 286 398 c 0
 286 323 220 261 140 261 c 0
 70 261 19 307 19 370 c 0
 19 419 45 455 98 480 c 1xe4
173 447 m 2xe4
 127 468 l 1
 85 442 68 416 68 375 c 0
 68 322 99 288 149 288 c 0
 195 288 232 326 232 373 c 0
 232 404 210 431 173 447 c 2xe4
140 529 m 2xd8
 171 514 l 1
 207 537 222 559 222 591 c 0
 222 632 195 659 152 659 c 0
 112 659 85 634 85 597 c 0
 85 569 103 547 140 529 c 2xd8
EndSplineSet
EndChar

StartChar: ninesuperior
Encoding: 596 8313 243
Width: 310
Flags: MW
HStem: 424 43<123 132.5> 660 26<122.5 169>
VStem: 11 58<537 585.5> 221 59<528.5 573.5 475.5 587>
LayerCount: 2
Fore
SplineSet
60 261 m 1
 36 273 l 1
 36 282 l 1
 143 308 207 375 214 469 c 1
 178 440 l 2
 167 431 143 424 122 424 c 0
 57 424 11 475 11 545 c 0
 11 626 70 686 149 686 c 0
 230 686 280 624 280 523 c 0
 280 428 236 348 157 301 c 0
 134 287 116 279 60 261 c 1
146 660 m 0
 99 660 69 624 69 567 c 0
 69 507 100 467 146 467 c 0
 191 467 221 502 221 555 c 0
 221 619 192 660 146 660 c 0
EndSplineSet
EndChar

StartChar: IJ
Encoding: 241 306 244
Width: 694
Flags: MW
HStem: -195 66<363 432> 0 20 672 20<34 34 327 327 367 367 660 660>
VStem: 133 95<120 569 120 569> 466 95<56 117 117 569>
LayerCount: 2
Fore
SplineSet
327 662 m 1
 279 659 l 2
 233 656 229 650 228 569 c 2
 228 120 l 2
 229 39 233 32 279 30 c 2
 327 27 l 1
 327 -3 l 1
 268 -1 232 0 180 0 c 0
 128 0 93 -1 34 -3 c 1
 34 27 l 1
 82 30 l 2
 128 32 132 40 133 120 c 2
 133 569 l 2
 132 650 128 656 82 659 c 2
 34 662 l 1
 34 692 l 1
 94 690 130 689 180 689 c 0
 231 689 267 690 327 692 c 1
 327 662 l 1
660 662 m 1
 612 659 l 2
 566 657 562 649 561 569 c 2
 561 117 l 2
 561 -5 548 -54 499 -114 c 0
 460 -163 397 -200 363 -195 c 2
 356 -194 l 1
 339 -192 l 1
 334 -116 l 1
 345 -110 l 1
 368 -124 387 -129 412 -129 c 0
 452 -129 466 -101 466 -17 c 2
 466 569 l 2
 465 650 461 656 415 659 c 2
 367 662 l 1
 367 692 l 1
 427 690 463 689 514 689 c 0
 564 689 600 690 660 692 c 1
 660 662 l 1
EndSplineSet
EndChar

StartChar: Abreve
Encoding: 193 258 245
Width: 778
Flags: MW
HStem: -3 20 0 20 229 40<240 493 240 511 223 493> 737 60<363 415.5>
LayerCount: 2
Fore
SplineSet
408 700 m 1x80
 650 132 l 2
 685 50 696 34 722 30 c 2
 756 27 l 1
 756 -3 l 1xb0
 678 -1 651 0 629 0 c 0x40
 608 0 572 -1 490 -3 c 1
 490 27 l 1
 537 30 l 2
 563 32 578 39 578 50 c 0
 578 60 575 69 557 114 c 2
 511 229 l 1
 223 229 l 1
 195 162 l 2
 174 111 160 70 160 56 c 0
 160 40 173 33 208 30 c 2
 245 27 l 1
 245 -3 l 1xa0
 172 -1 141 0 124 0 c 0x40
 105 0 83 -1 15 -3 c 1
 15 27 l 1
 52 30 l 2
 74 32 94 50 106 79 c 2
 284 484 l 2
 301 522 321 569 337 605 c 0
 344 621 360 660 376 700 c 1
 408 700 l 1x80
240 269 m 1
 493 269 l 1
 367 567 l 1
 240 269 l 1
249 895 m 1
 279 895 l 1
 282 838 328 797 389 797 c 0
 451 797 497 837 501 895 c 1
 531 895 l 1
 528 851 523 828 507 802 c 0
 482 760 441 737 390 737 c 0
 336 737 293 762 269 808 c 0
 255 834 251 853 249 895 c 1
EndSplineSet
EndChar

StartChar: Aogonek
Encoding: 195 260 246
Width: 778
Flags: MW
HStem: -145 41<677 683.5> -2 20 0 20 229 40<240 493 240 511 223 493> 680 20<376 408 408 408>
VStem: 601 47<-74.5 -65.5>
LayerCount: 2
Fore
SplineSet
756 27 m 1xbc
 756 -3 l 1
 747 -2 736 -2 733 -2 c 0x54
 684 -2 648 -28 648 -63 c 0
 648 -86 666 -104 688 -104 c 0
 711 -104 735 -92 762 -68 c 1
 778 -89 l 1
 732 -130 701 -145 666 -145 c 0
 629 -145 601 -117 601 -81 c 0
 601 -50 617 -23 651 0 c 1
 627 0 l 2
 608 0 575 -1 490 -3 c 1
 490 27 l 1
 537 30 l 2
 563 32 578 39 578 50 c 0
 578 60 575 69 557 114 c 2
 511 229 l 1
 223 229 l 1
 195 162 l 2
 174 111 160 70 160 56 c 0
 160 40 173 33 208 30 c 2
 245 27 l 1
 245 -3 l 1
 172 -1 141 0 124 0 c 0
 105 0 83 -1 15 -3 c 1
 15 27 l 1
 52 30 l 2
 74 32 94 50 106 79 c 2
 284 484 l 2
 301 522 321 569 337 605 c 0
 344 621 360 660 376 700 c 1
 408 700 l 1
 650 132 l 2
 685 50 696 34 722 30 c 2
 756 27 l 1xbc
240 269 m 1
 493 269 l 1
 367 567 l 1
 240 269 l 1
EndSplineSet
EndChar

StartChar: Cacute
Encoding: 197 262 247
Width: 709
Flags: MW
HStem: -20 54<356 456.5> 667 42<389 464>
VStem: 22 107<262.5 409.5>
LayerCount: 2
Fore
SplineSet
670 84 m 1
 642 34 l 1
 572 -2 498 -20 415 -20 c 0
 180 -20 22 125 22 342 c 0
 22 477 82 583 196 649 c 0
 264 688 345 709 433 709 c 0
 506 709 578 696 664 668 c 1
 650 602 645 566 645 516 c 1
 614 516 l 1
 614 588 l 2
 614 627 513 667 415 667 c 0
 242 667 129 546 129 361 c 0
 129 164 258 34 454 34 c 0
 531 34 599 54 661 94 c 1
 670 84 l 1
326 737 m 1
 464 875 l 2
 486 897 504 908 519 908 c 0
 536 908 550 893 550 874 c 0
 550 856 544 848 510 827 c 2
 366 737 l 1
 326 737 l 1
EndSplineSet
EndChar

StartChar: Ccaron
Encoding: 203 268 248
Width: 709
Flags: MW
HStem: -20 54<356 456.5> 667 42<389 464>
VStem: 22 107<262.5 409.5>
LayerCount: 2
Fore
SplineSet
670 84 m 1
 642 34 l 1
 572 -2 498 -20 415 -20 c 0
 180 -20 22 125 22 342 c 0
 22 477 82 583 196 649 c 0
 264 688 345 709 433 709 c 0
 506 709 578 696 664 668 c 1
 650 602 645 566 645 516 c 1
 614 516 l 1
 614 588 l 2
 614 627 513 667 415 667 c 0
 242 667 129 546 129 361 c 0
 129 164 258 34 454 34 c 0
 531 34 599 54 661 94 c 1
 670 84 l 1
415 805 m 1
 537 908 l 1
 571 908 l 1
 446 741 l 1
 384 741 l 1
 259 908 l 1
 294 908 l 1
 415 805 l 1
EndSplineSet
EndChar

StartChar: Cdotaccent
Encoding: 201 266 249
Width: 709
Flags: MW
HStem: -20 54<356 456.5> 667 42<389 464> 768 100<405.5 435>
VStem: 22 107<262.5 409.5> 370 100<803 833>
LayerCount: 2
Fore
SplineSet
421 868 m 0
 450 868 470 848 470 818 c 0
 470 788 450 768 420 768 c 0
 390 768 370 788 370 818 c 0
 370 848 390 868 421 868 c 0
670 84 m 1
 642 34 l 1
 572 -2 498 -20 415 -20 c 0
 180 -20 22 125 22 342 c 0
 22 477 82 583 196 649 c 0
 264 688 345 709 433 709 c 0
 506 709 578 696 664 668 c 1
 650 602 645 566 645 516 c 1
 614 516 l 1
 614 588 l 2
 614 627 513 667 415 667 c 0
 242 667 129 546 129 361 c 0
 129 164 258 34 454 34 c 0
 531 34 599 54 661 94 c 1
 670 84 l 1
EndSplineSet
EndChar

StartChar: Dcaron
Encoding: 205 270 250
Width: 774
Flags: MW
HStem: -3 44<333 368 287 405> 0 20 652 37 672 20<22 22 398 508>
VStem: 113 95<95 569 569 569> 644 107<331.5 409>
LayerCount: 2
Fore
SplineSet
57 20 m 1x4c
 88 36 l 2
 104 44 113 65 113 95 c 2
 113 569 l 2
 112 650 109 655 62 659 c 2
 22 662 l 1
 22 692 l 1
 125 690 177 689 226 689 c 0x6c
 272 689 306 690 364 691 c 0
 381 692 394 692 402 692 c 0
 614 692 751 571 751 385 c 0
 751 278 707 170 635 99 c 0
 565 30 469 -3 341 -3 c 0x9c
 325 -3 325 -3 248 -1 c 0
 232 0 217 0 196 0 c 0x4c
 170 0 135 -1 57 -3 c 1x8c
 57 20 l 1x4c
208 644 m 1
 208 49 l 1
 233 43 263 41 311 41 c 0x8c
 425 41 484 58 544 107 c 0
 610 161 644 247 644 359 c 0
 644 459 621 531 574 579 c 0
 555 597 536 611 514 620 c 0
 472 639 392 652 318 652 c 0
 267 652 233 650 208 644 c 1
328 805 m 1
 450 908 l 1
 484 908 l 1
 359 741 l 1
 297 741 l 1
 172 908 l 1
 207 908 l 1
 328 805 l 1
EndSplineSet
EndChar

StartChar: Dcroat
Encoding: 207 272 251
Width: 774
Flags: MW
HStem: -3 44<343.5 369 286.5 399> 0 20 346 36<14 113 14 113 208 392> 652 37 672 20<22 22 379 404 404 508>
VStem: 113 95<95 346 49 346 382 569 569 569> 644 107<323 418>
LayerCount: 2
Fore
SplineSet
57 20 m 1x46
 88 36 l 2
 104 44 113 65 113 95 c 2
 113 346 l 1
 14 346 l 1
 14 382 l 1
 113 382 l 1
 113 569 l 2
 112 650 109 655 62 659 c 2
 22 662 l 1
 22 692 l 1x6e
 127 690 177 689 221 689 c 0x16
 262 689 334 690 379 692 c 2
 404 692 l 2
 612 692 751 570 751 387 c 0
 751 259 689 129 596 65 c 0
 531 20 448 -3 350 -3 c 0x8e
 337 -3 337 -3 287 -2 c 0
 249 -1 212 0 193 0 c 0x46
 168 0 134 -1 57 -3 c 1x86
 57 20 l 1x46
208 644 m 1xb6
 208 382 l 1
 392 382 l 1
 392 346 l 1
 208 346 l 1
 208 49 l 1
 233 43 263 41 310 41 c 0
 428 41 483 57 543 107 c 0
 611 165 644 248 644 362 c 0
 644 474 612 553 549 600 c 0
 504 633 421 652 318 652 c 0
 267 652 233 650 208 644 c 1xb6
EndSplineSet
EndChar

StartChar: Ecaron
Encoding: 217 282 252
Width: 611
Flags: MW
HStem: -3 42<287 406> 0 20 330 42<302 356> 650 42
VStem: 121 95<120 327 375 569 569 569>
LayerCount: 2
Fore
SplineSet
34 27 m 1x88
 70 30 l 2
 117 34 120 39 121 120 c 2
 121 569 l 2
 120 650 116 656 70 659 c 2
 22 662 l 1
 22 692 l 1
 117 690 159 689 200 689 c 0
 222 689 268 690 333 691 c 0
 373 692 406 692 432 692 c 0
 478 692 508 691 556 689 c 1
 545 645 540 597 540 537 c 1
 505 537 l 1
 505 602 l 2
 505 625 502 630 478 636 c 0
 447 644 388 650 335 650 c 0
 267 650 247 649 216 642 c 1
 216 375 l 1
 251 373 278 372 326 372 c 0
 392 372 420 375 438 383 c 1
 443 391 445 400 446 409 c 2
 451 461 l 1
 481 461 l 1
 479 395 478 365 478 345 c 0
 478 324 479 300 481 234 c 1
 451 234 l 1
 446 293 l 1
 438 318 l 1
 420 327 393 330 319 330 c 0
 270 330 242 329 216 327 c 1
 216 47 l 1
 245 40 261 39 313 39 c 0xb8
 410 39 486 44 501 52 c 0
 510 56 519 73 526 101 c 0
 529 110 532 131 537 164 c 1
 572 164 l 1
 562 112 556 58 556 0 c 1x48
 464 -2 423 -3 389 -3 c 0x88
 359 -3 304 -2 228 -1 c 0
 196 0 174 0 158 0 c 0x48
 129 0 99 -1 34 -3 c 1
 34 27 l 1x88
306 805 m 1
 428 908 l 1
 462 908 l 1
 337 741 l 1
 275 741 l 1
 150 908 l 1
 185 908 l 1
 306 805 l 1
EndSplineSet
EndChar

StartChar: Edotaccent
Encoding: 213 278 253
Width: 611
Flags: MW
HStem: -3 42<287 406> 0 20 330 42<302 356> 650 42 768 100<291.5 321>
VStem: 121 95<120 327 375 569 569 569> 256 100<803 833>
LayerCount: 2
Fore
SplineSet
34 27 m 1x86
 70 30 l 2
 117 34 120 39 121 120 c 2
 121 569 l 2
 120 650 116 656 70 659 c 2
 22 662 l 1
 22 692 l 1
 117 690 159 689 200 689 c 0
 222 689 268 690 333 691 c 0
 373 692 406 692 432 692 c 0
 478 692 508 691 556 689 c 1
 545 645 540 597 540 537 c 1
 505 537 l 1
 505 602 l 2
 505 625 502 630 478 636 c 0
 447 644 388 650 335 650 c 0
 267 650 247 649 216 642 c 1
 216 375 l 1
 251 373 278 372 326 372 c 0
 392 372 420 375 438 383 c 1
 443 391 445 400 446 409 c 2
 451 461 l 1
 481 461 l 1
 479 395 478 365 478 345 c 0
 478 324 479 300 481 234 c 1
 451 234 l 1
 446 293 l 1
 438 318 l 1
 420 327 393 330 319 330 c 0
 270 330 242 329 216 327 c 1
 216 47 l 1
 245 40 261 39 313 39 c 0xbe
 410 39 486 44 501 52 c 0
 510 56 519 73 526 101 c 0
 529 110 532 131 537 164 c 1
 572 164 l 1
 562 112 556 58 556 0 c 1x46
 464 -2 423 -3 389 -3 c 0x86
 359 -3 304 -2 228 -1 c 0
 196 0 174 0 158 0 c 0x46
 129 0 99 -1 34 -3 c 1
 34 27 l 1x86
307 868 m 0
 336 868 356 848 356 818 c 0
 356 788 336 768 306 768 c 0
 276 768 256 788 256 818 c 0
 256 848 276 868 307 868 c 0
EndSplineSet
EndChar

StartChar: Eogonek
Encoding: 215 280 254
Width: 611
Flags: MW
HStem: -145 41<510.5 516.5> -3 42<287 390> 0 20 330 42<302 356> 650 42
VStem: 121 95<120 327 375 569 569 569> 434 47<-75 -66>
LayerCount: 2
Fore
SplineSet
537 164 m 1x5e
 572 164 l 1
 562 112 556 58 556 0 c 1x26
 510 -2 481 -27 481 -64 c 0
 481 -86 500 -104 521 -104 c 0
 545 -104 568 -92 595 -68 c 1
 611 -89 l 1
 565 -130 534 -145 499 -145 c 0
 462 -145 434 -117 434 -81 c 0
 434 -51 450 -24 481 -2 c 1
 390 -3 l 2xc6
 359 -3 307 -2 228 -1 c 0
 196 0 174 0 158 0 c 0x26
 129 0 99 -1 34 -3 c 1
 34 27 l 1
 70 30 l 2
 117 34 120 39 121 120 c 2
 121 569 l 2
 120 650 116 656 70 659 c 2
 22 662 l 1
 22 692 l 1
 117 690 159 689 200 689 c 0
 222 689 268 690 333 691 c 0
 373 692 406 692 432 692 c 0
 478 692 508 691 556 689 c 1
 545 645 540 597 540 537 c 1
 505 537 l 1
 505 602 l 2
 505 625 502 630 478 636 c 0
 447 644 388 650 335 650 c 0
 267 650 247 649 216 642 c 1
 216 375 l 1
 251 373 278 372 326 372 c 0
 392 372 420 375 438 383 c 1
 443 391 445 400 446 409 c 2
 451 461 l 1
 481 461 l 1
 479 395 478 365 478 345 c 0
 478 324 479 300 481 234 c 1
 451 234 l 1
 446 293 l 1
 438 318 l 1
 420 327 393 330 319 330 c 0
 270 330 242 329 216 327 c 1
 216 47 l 1
 245 40 261 39 313 39 c 0
 410 39 486 44 501 52 c 0
 510 56 519 73 526 101 c 0
 529 110 532 131 537 164 c 1x5e
EndSplineSet
EndChar

StartChar: Gbreve
Encoding: 221 286 255
Width: 763
Flags: MW
HStem: -20 42<354 447.5> 667 42<331 450.5> 737 60<395 447.5>
VStem: 22 107<258.5 451.5> 596 92<98 199 31 211>
LayerCount: 2
Fore
SplineSet
641 516 m 1
 641 569 l 2
 641 607 616 630 558 649 c 0
 520 661 476 667 425 667 c 0
 237 667 129 555 129 363 c 0
 129 154 254 22 454 22 c 0
 520 22 579 36 590 54 c 0
 594 62 596 74 596 98 c 2
 596 199 l 2
 596 223 588 232 562 234 c 2
 479 241 l 1
 479 271 l 1
 540 269 567 269 601 269 c 0
 635 269 664 269 724 271 c 1
 728 246 l 1
 699 236 l 2
 689 232 688 231 688 199 c 2
 688 31 l 1
 552 -7 483 -20 412 -20 c 0
 178 -20 22 125 22 340 c 0
 22 563 192 709 451 709 c 0
 530 709 581 700 692 668 c 1
 678 613 672 568 672 516 c 1
 641 516 l 1
281 895 m 1
 311 895 l 1
 314 838 360 797 422 797 c 0
 484 797 530 837 533 895 c 1
 563 895 l 1
 561 851 555 828 539 802 c 0
 515 760 473 737 422 737 c 0
 368 737 325 762 301 808 c 0
 288 834 283 853 281 895 c 1
EndSplineSet
EndChar

StartChar: Gdotaccent
Encoding: 223 288 256
Width: 763
Flags: MW
HStem: -20 42<354 447.5> 667 42<331 450.5> 768 100<419.5 449>
VStem: 22 107<258.5 451.5> 384 100<803 833> 596 92<98 199 31 211>
LayerCount: 2
Fore
SplineSet
435 868 m 0
 464 868 484 848 484 818 c 0
 484 788 464 768 434 768 c 0
 404 768 384 788 384 818 c 0
 384 848 404 868 435 868 c 0
641 516 m 1
 641 569 l 2
 641 607 616 630 558 649 c 0
 520 661 476 667 425 667 c 0
 237 667 129 555 129 363 c 0
 129 154 254 22 454 22 c 0
 520 22 579 36 590 54 c 0
 594 62 596 74 596 98 c 2
 596 199 l 2
 596 223 588 232 562 234 c 2
 479 241 l 1
 479 271 l 1
 540 269 567 269 601 269 c 0
 635 269 664 269 724 271 c 1
 728 246 l 1
 699 236 l 2
 689 232 688 231 688 199 c 2
 688 31 l 1
 552 -7 483 -20 412 -20 c 0
 178 -20 22 125 22 340 c 0
 22 563 192 709 451 709 c 0
 530 709 581 700 692 668 c 1
 678 613 672 568 672 516 c 1
 641 516 l 1
EndSplineSet
EndChar

StartChar: Idotaccent
Encoding: 239 304 257
Width: 337
Flags: MW
HStem: -3 20 0 20 768 100<154.5 184>
VStem: 119 100<803 833> 121 95<120 569 120 569>
LayerCount: 2
Fore
SplineSet
315 662 m 1x88
 267 659 l 2
 221 656 217 650 216 569 c 2
 216 120 l 2
 217 39 221 32 267 30 c 2
 315 27 l 1
 315 -3 l 1xa8
 256 -1 220 0 168 0 c 0x48
 116 0 81 -1 22 -3 c 1
 22 27 l 1
 70 30 l 2
 116 32 120 40 121 120 c 2
 121 569 l 2
 120 650 116 656 70 659 c 2
 22 662 l 1
 22 692 l 1
 82 690 118 689 168 689 c 0
 219 689 255 690 315 692 c 1
 315 662 l 1x88
170 868 m 0
 199 868 219 848 219 818 c 0
 219 788 199 768 169 768 c 0
 139 768 119 788 119 818 c 0xb0
 119 848 139 868 170 868 c 0
EndSplineSet
EndChar

StartChar: Lacute
Encoding: 248 313 258
Width: 611
Flags: MW
HStem: -3 42<280.5 414.5> 0 20
VStem: 121 95<95 569 47 569>
LayerCount: 2
Fore
SplineSet
315 662 m 1x60
 267 659 l 2
 221 656 217 650 216 569 c 2
 216 47 l 1
 241 41 263 39 298 39 c 0xa0
 421 39 507 46 520 57 c 0
 526 62 533 82 539 111 c 0
 540 112 541 119 542 122 c 2
 554 172 l 1
 586 172 l 1
 575 69 571 41 565 0 c 1x60
 472 -2 432 -3 397 -3 c 0xa0
 368 -3 304 -2 211 -1 c 0
 190 0 175 0 164 0 c 0x60
 138 0 114 -1 65 -3 c 1xa0
 65 20 l 1
 96 36 l 2
 112 44 121 65 121 95 c 2
 121 569 l 2
 120 650 116 656 70 659 c 2
 22 662 l 1
 22 692 l 1
 82 690 118 689 168 689 c 0
 219 689 255 690 315 692 c 1
 315 662 l 1x60
177 737 m 1
 315 875 l 2
 337 897 355 908 370 908 c 0
 387 908 401 893 401 874 c 0
 401 856 395 848 361 827 c 2
 217 737 l 1
 177 737 l 1
EndSplineSet
EndChar

StartChar: Lcaron
Encoding: 252 317 259
Width: 611
Flags: MW
HStem: -3 42<280.5 414.5> 0 20 676 20<518 518>
VStem: 121 95<95 569 47 569>
LayerCount: 2
Fore
SplineSet
315 662 m 1x50
 267 659 l 2
 221 656 217 650 216 569 c 2
 216 47 l 1
 241 41 263 39 298 39 c 0xb0
 421 39 507 46 520 57 c 0
 526 62 533 82 539 111 c 0
 540 112 541 119 542 122 c 2
 554 172 l 1
 586 172 l 1
 575 69 571 41 565 0 c 1x50
 472 -2 432 -3 397 -3 c 0x90
 368 -3 304 -2 211 -1 c 0
 190 0 175 0 164 0 c 0x50
 138 0 114 -1 65 -3 c 1x90
 65 20 l 1
 96 36 l 2
 112 44 121 65 121 95 c 2
 121 569 l 2
 120 650 116 656 70 659 c 2
 22 662 l 1
 22 692 l 1
 82 690 118 689 168 689 c 0
 219 689 255 690 315 692 c 1
 315 662 l 1x50
414 481 m 1
 374 459 l 1
 361 468 l 1
 404 537 425 598 431 669 c 1
 477 683 486 685 518 696 c 1
 530 684 l 1
 500 606 465 546 414 481 c 1
EndSplineSet
EndChar

StartChar: Nacute
Encoding: 258 323 260
Width: 831
Flags: MW
HStem: 0 20
VStem: 112 46<120 569 569 569> 672 46<98 569>
LayerCount: 2
Fore
SplineSet
17 27 m 1
 61 30 l 2
 108 34 111 39 112 120 c 2
 112 569 l 2
 111 650 108 655 61 659 c 2
 17 662 l 1
 17 692 l 1
 73 690 80 690 137 689 c 1
 191 692 l 1
 672 98 l 1
 672 569 l 2
 671 650 668 655 621 659 c 2
 577 662 l 1
 577 692 l 1
 645 690 672 689 694 689 c 0
 716 689 748 690 813 692 c 1
 813 662 l 1
 769 659 l 2
 722 655 719 650 718 569 c 2
 718 17 l 2
 718 12 719 2 720 -8 c 0
 721 -15 721 -16 721 -20 c 2
 631 -4 l 1
 158 584 l 1
 158 120 l 2
 159 39 162 34 209 30 c 2
 253 27 l 1
 253 -3 l 1
 182 -1 152 0 133 0 c 0
 113 0 89 -1 17 -3 c 1
 17 27 l 1
327 737 m 1
 465 875 l 2
 487 897 505 908 520 908 c 0
 537 908 551 893 551 874 c 0
 551 856 545 848 511 827 c 2
 367 737 l 1
 327 737 l 1
EndSplineSet
EndChar

